<svg width="164" height="128" viewBox="0 0 164 128" fill="none" xmlns="http://www.w3.org/2000/svg">
<path fill-rule="evenodd" clip-rule="evenodd" d="M64.3428 18H60H55.6587C12.238 18 5 28.4456 5 41.3332V73V104.667C5 117.554 12.238 128 55.6587 128H60H64.3428C107.763 128 115 117.554 115 104.667V73V41.3332C115 28.4456 107.763 18 64.3428 18Z" fill="#FFF496"/>
<path fill-rule="evenodd" clip-rule="evenodd" d="M34 51V38L42.9986 32.9981L42.4675 23.1596L55.9959 17.9739L69.6396 27.9017L72 28L84.7775 18.4483L98.5656 23V32.5L108.377 37.9487V50.4559L117 56V75L108 79V93L99 98V107.002L84.7775 112L72 103L69 102L56 112L42.9986 107.002V98L33.3037 93V79.8603L24 74.647V56.5349L34 51Z" fill="#7DE0FF"/>
<path opacity="0.6" fill-rule="evenodd" clip-rule="evenodd" d="M93 48L108.5 38L98 23L93 48Z" fill="white"/>
<path fill-rule="evenodd" clip-rule="evenodd" d="M69 102V63L56 112L69 102Z" fill="#13C1FE"/>
<path opacity="0.6" fill-rule="evenodd" clip-rule="evenodd" d="M43 107L69 66L51.5 80.5L42.5 98L43 107Z" fill="white"/>
<path fill-rule="evenodd" clip-rule="evenodd" d="M33.5 94L33 79L48 58L34 50.5V38L49 58L33.5 94Z" fill="#13C1FE"/>
<path opacity="0.6" fill-rule="evenodd" clip-rule="evenodd" d="M22 58H49L34 50L22 58Z" fill="white"/>
<path opacity="0.6" fill-rule="evenodd" clip-rule="evenodd" d="M69 65L49 58L43.5 33.5L69 65Z" fill="white"/>
<path fill-rule="evenodd" clip-rule="evenodd" d="M85 112L95 65L98.5 107L85 112Z" fill="#13C1FE"/>
<path fill-rule="evenodd" clip-rule="evenodd" d="M69 65H95L93 48L69 65Z" fill="#13C1FE"/>
<path opacity="0.6" fill-rule="evenodd" clip-rule="evenodd" d="M117 56L95 65L108 50L117 56Z" fill="white"/>
<path opacity="0.6" fill-rule="evenodd" clip-rule="evenodd" d="M85 112.5L69 65V102L85 112.5Z" fill="white"/>
<path fill-rule="evenodd" clip-rule="evenodd" d="M69 64L98.5 23L85 18L69 64Z" fill="#13C1FE"/>
<path opacity="0.6" fill-rule="evenodd" clip-rule="evenodd" d="M69 64L70 28L85 18.5" fill="white"/>
<path opacity="0.6" fill-rule="evenodd" clip-rule="evenodd" d="M42.5 23L70 28L56 18L42.5 23Z" fill="white"/>
<path d="M43 30H32" stroke="#2D6E86" stroke-width="2"/>
<path d="M109 26H98" stroke="#2D6E86" stroke-width="2"/>
<path d="M93 109.135V117" stroke="#2D6E86" stroke-width="2"/>
<path d="M49 109V117" stroke="#2D6E86" stroke-width="2"/>
<path d="M25 58H16" stroke="#2D6E86" stroke-width="2"/>
<path d="M15 57V69" stroke="#2D6E86" stroke-width="2"/>
<path d="M117 82H108" stroke="#2D6E86" stroke-width="2"/>
<path d="M116 93V82" stroke="#2D6E86" stroke-width="2"/>
<path d="M124 58H117" stroke="#2D6E86" stroke-width="2"/>
<path d="M124 59V48" stroke="#2D6E86" stroke-width="2"/>
<path d="M34 88H24" stroke="#2D6E86" stroke-width="2"/>
<path d="M24 98V87" stroke="#2D6E86" stroke-width="2"/>
<path d="M71 78.0059L85 86" stroke="#2D6E86" stroke-width="2"/>
<path d="M108.164 78.8604L102.377 75.6692" stroke="#2D6E86" stroke-width="2"/>
<path d="M108.802 50.3677L103.696 52.989" stroke="#2D6E86" stroke-width="2"/>
<path d="M71 49L84 41" stroke="#2D6E86" stroke-width="2"/>
<path d="M71 78.0059L56 87" stroke="#2D6E86" stroke-width="2"/>
<path d="M32.6228 78.8604L38.4092 75.6692" stroke="#2D6E86" stroke-width="2"/>
<path d="M33.3037 50.3677L38.4094 52.989" stroke="#2D6E86" stroke-width="2"/>
<path d="M70.9999 49L56.2224 41.25" stroke="#2D6E86" stroke-width="2"/>
<path fill-rule="evenodd" clip-rule="evenodd" d="M34 51V38L42.9986 32.9981L42.4675 23.1596L55.9959 17.9739L69.6396 27.9017L72 28L84.7775 18.4483L98.5656 23V32.5L108.377 37.9487V50.4559L117 56V75L108 79V93L99 98V107.002L84.7775 112L72 103L69 102L56 112L42.9986 107.002V98L33.3037 93V79.8603L24 74.647V56.5349L34 51Z" stroke="white" stroke-width="2"/>
<path d="M71 80V17" stroke="#2D6E86" stroke-width="4"/>
<mask id="path-38-inside-1_669_14843" fill="white">
<path fill-rule="evenodd" clip-rule="evenodd" d="M76.5 13.5C76.5 16.5376 74.0376 19 71 19C67.9624 19 65.5 16.5376 65.5 13.5C65.5 10.4624 67.9624 8 71 8C74.0376 8 76.5 10.4624 76.5 13.5ZM120 26C120 29.0376 117.538 31.5 114.5 31.5C111.462 31.5 109 29.0376 109 26C109 22.9624 111.462 20.5 114.5 20.5C117.538 20.5 120 22.9624 120 26ZM33 30C33 33.0376 30.5376 35.5 27.5 35.5C24.4624 35.5 22 33.0376 22 30C22 26.9624 24.4624 24.5 27.5 24.5C30.5376 24.5 33 26.9624 33 30ZM93 127C96.0376 127 98.5 124.538 98.5 121.5C98.5 118.462 96.0376 116 93 116C89.9624 116 87.5 118.462 87.5 121.5C87.5 124.538 89.9624 127 93 127ZM54.5 121.5C54.5 124.538 52.0376 127 49 127C45.9624 127 43.5 124.538 43.5 121.5C43.5 118.462 45.9624 116 49 116C52.0376 116 54.5 118.462 54.5 121.5ZM15 79C18.0376 79 20.5 76.5376 20.5 73.5C20.5 70.4624 18.0376 68 15 68C11.9624 68 9.5 70.4624 9.5 73.5C9.5 76.5376 11.9624 79 15 79ZM121.5 98.5C121.5 101.538 119.038 104 116 104C112.962 104 110.5 101.538 110.5 98.5C110.5 95.4624 112.962 93 116 93C119.038 93 121.5 95.4624 121.5 98.5ZM123.5 49C126.538 49 129 46.5376 129 43.5C129 40.4624 126.538 38 123.5 38C120.462 38 118 40.4624 118 43.5C118 46.5376 120.462 49 123.5 49ZM24 109C27.0376 109 29.5 106.538 29.5 103.5C29.5 100.462 27.0376 98 24 98C20.9624 98 18.5 100.462 18.5 103.5C18.5 106.538 20.9624 109 24 109ZM82.9889 41.0515C82.9889 44.089 85.4513 46.5515 88.4889 46.5515C91.5264 46.5515 93.9889 44.089 93.9889 41.0515C93.9889 38.0139 91.5264 35.5515 88.4889 35.5515C85.4513 35.5515 82.9889 38.0139 82.9889 41.0515ZM98.5656 60.4559C95.5281 60.4559 93.0656 57.9935 93.0656 54.9559C93.0656 51.9183 95.5281 49.4559 98.5656 49.4559C101.603 49.4559 104.066 51.9183 104.066 54.9559C104.066 57.9935 101.603 60.4559 98.5656 60.4559ZM93.0656 73.6471C93.0656 76.6846 95.5281 79.1471 98.5656 79.1471C101.603 79.1471 104.066 76.6846 104.066 73.6471C104.066 70.6095 101.603 68.1471 98.5656 68.1471C95.5281 68.1471 93.0656 70.6095 93.0656 73.6471ZM89.5 92.5C86.4624 92.5 84 90.0376 84 87C84 83.9624 86.4624 81.5 89.5 81.5C92.5376 81.5 95 83.9624 95 87C95 90.0376 92.5376 92.5 89.5 92.5ZM57.0111 41.0515C57.0111 44.089 54.5487 46.5515 51.5111 46.5515C48.4736 46.5515 46.0111 44.089 46.0111 41.0515C46.0111 38.0139 48.4736 35.5515 51.5111 35.5515C54.5487 35.5515 57.0111 38.0139 57.0111 41.0515ZM42.4344 60.4559C45.4719 60.4559 47.9344 57.9935 47.9344 54.9559C47.9344 51.9183 45.4719 49.4559 42.4344 49.4559C39.3968 49.4559 36.9344 51.9183 36.9344 54.9559C36.9344 57.9935 39.3968 60.4559 42.4344 60.4559ZM47.9344 73.6471C47.9344 76.6846 45.4719 79.1471 42.4344 79.1471C39.3968 79.1471 36.9344 76.6846 36.9344 73.6471C36.9344 70.6095 39.3968 68.1471 42.4344 68.1471C45.4719 68.1471 47.9344 70.6095 47.9344 73.6471ZM51.5 92.5C54.5376 92.5 57 90.0376 57 87C57 83.9624 54.5376 81.5 51.5 81.5C48.4624 81.5 46 83.9624 46 87C46 90.0376 48.4624 92.5 51.5 92.5Z"/>
</mask>
<path fill-rule="evenodd" clip-rule="evenodd" d="M76.5 13.5C76.5 16.5376 74.0376 19 71 19C67.9624 19 65.5 16.5376 65.5 13.5C65.5 10.4624 67.9624 8 71 8C74.0376 8 76.5 10.4624 76.5 13.5ZM120 26C120 29.0376 117.538 31.5 114.5 31.5C111.462 31.5 109 29.0376 109 26C109 22.9624 111.462 20.5 114.5 20.5C117.538 20.5 120 22.9624 120 26ZM33 30C33 33.0376 30.5376 35.5 27.5 35.5C24.4624 35.5 22 33.0376 22 30C22 26.9624 24.4624 24.5 27.5 24.5C30.5376 24.5 33 26.9624 33 30ZM93 127C96.0376 127 98.5 124.538 98.5 121.5C98.5 118.462 96.0376 116 93 116C89.9624 116 87.5 118.462 87.5 121.5C87.5 124.538 89.9624 127 93 127ZM54.5 121.5C54.5 124.538 52.0376 127 49 127C45.9624 127 43.5 124.538 43.5 121.5C43.5 118.462 45.9624 116 49 116C52.0376 116 54.5 118.462 54.5 121.5ZM15 79C18.0376 79 20.5 76.5376 20.5 73.5C20.5 70.4624 18.0376 68 15 68C11.9624 68 9.5 70.4624 9.5 73.5C9.5 76.5376 11.9624 79 15 79ZM121.5 98.5C121.5 101.538 119.038 104 116 104C112.962 104 110.5 101.538 110.5 98.5C110.5 95.4624 112.962 93 116 93C119.038 93 121.5 95.4624 121.5 98.5ZM123.5 49C126.538 49 129 46.5376 129 43.5C129 40.4624 126.538 38 123.5 38C120.462 38 118 40.4624 118 43.5C118 46.5376 120.462 49 123.5 49ZM24 109C27.0376 109 29.5 106.538 29.5 103.5C29.5 100.462 27.0376 98 24 98C20.9624 98 18.5 100.462 18.5 103.5C18.5 106.538 20.9624 109 24 109ZM82.9889 41.0515C82.9889 44.089 85.4513 46.5515 88.4889 46.5515C91.5264 46.5515 93.9889 44.089 93.9889 41.0515C93.9889 38.0139 91.5264 35.5515 88.4889 35.5515C85.4513 35.5515 82.9889 38.0139 82.9889 41.0515ZM98.5656 60.4559C95.5281 60.4559 93.0656 57.9935 93.0656 54.9559C93.0656 51.9183 95.5281 49.4559 98.5656 49.4559C101.603 49.4559 104.066 51.9183 104.066 54.9559C104.066 57.9935 101.603 60.4559 98.5656 60.4559ZM93.0656 73.6471C93.0656 76.6846 95.5281 79.1471 98.5656 79.1471C101.603 79.1471 104.066 76.6846 104.066 73.6471C104.066 70.6095 101.603 68.1471 98.5656 68.1471C95.5281 68.1471 93.0656 70.6095 93.0656 73.6471ZM89.5 92.5C86.4624 92.5 84 90.0376 84 87C84 83.9624 86.4624 81.5 89.5 81.5C92.5376 81.5 95 83.9624 95 87C95 90.0376 92.5376 92.5 89.5 92.5ZM57.0111 41.0515C57.0111 44.089 54.5487 46.5515 51.5111 46.5515C48.4736 46.5515 46.0111 44.089 46.0111 41.0515C46.0111 38.0139 48.4736 35.5515 51.5111 35.5515C54.5487 35.5515 57.0111 38.0139 57.0111 41.0515ZM42.4344 60.4559C45.4719 60.4559 47.9344 57.9935 47.9344 54.9559C47.9344 51.9183 45.4719 49.4559 42.4344 49.4559C39.3968 49.4559 36.9344 51.9183 36.9344 54.9559C36.9344 57.9935 39.3968 60.4559 42.4344 60.4559ZM47.9344 73.6471C47.9344 76.6846 45.4719 79.1471 42.4344 79.1471C39.3968 79.1471 36.9344 76.6846 36.9344 73.6471C36.9344 70.6095 39.3968 68.1471 42.4344 68.1471C45.4719 68.1471 47.9344 70.6095 47.9344 73.6471ZM51.5 92.5C54.5376 92.5 57 90.0376 57 87C57 83.9624 54.5376 81.5 51.5 81.5C48.4624 81.5 46 83.9624 46 87C46 90.0376 48.4624 92.5 51.5 92.5Z" fill="#33E2B8"/>
<path d="M71 21C75.1421 21 78.5 17.6421 78.5 13.5H74.5C74.5 15.433 72.933 17 71 17V21ZM63.5 13.5C63.5 17.6421 66.8579 21 71 21V17C69.067 17 67.5 15.433 67.5 13.5H63.5ZM71 6C66.8579 6 63.5 9.35786 63.5 13.5H67.5C67.5 11.567 69.067 10 71 10V6ZM78.5 13.5C78.5 9.35786 75.1421 6 71 6V10C72.933 10 74.5 11.567 74.5 13.5H78.5ZM114.5 33.5C118.642 33.5 122 30.1421 122 26H118C118 27.933 116.433 29.5 114.5 29.5V33.5ZM107 26C107 30.1421 110.358 33.5 114.5 33.5V29.5C112.567 29.5 111 27.933 111 26H107ZM114.5 18.5C110.358 18.5 107 21.8579 107 26H111C111 24.067 112.567 22.5 114.5 22.5V18.5ZM122 26C122 21.8579 118.642 18.5 114.5 18.5V22.5C116.433 22.5 118 24.067 118 26H122ZM27.5 37.5C31.6421 37.5 35 34.1421 35 30H31C31 31.933 29.433 33.5 27.5 33.5V37.5ZM20 30C20 34.1421 23.3579 37.5 27.5 37.5V33.5C25.567 33.5 24 31.933 24 30H20ZM27.5 22.5C23.3579 22.5 20 25.8579 20 30H24C24 28.067 25.567 26.5 27.5 26.5V22.5ZM35 30C35 25.8579 31.6421 22.5 27.5 22.5V26.5C29.433 26.5 31 28.067 31 30H35ZM96.5 121.5C96.5 123.433 94.933 125 93 125V129C97.1421 129 100.5 125.642 100.5 121.5H96.5ZM93 118C94.933 118 96.5 119.567 96.5 121.5H100.5C100.5 117.358 97.1421 114 93 114V118ZM89.5 121.5C89.5 119.567 91.067 118 93 118V114C88.8579 114 85.5 117.358 85.5 121.5H89.5ZM93 125C91.067 125 89.5 123.433 89.5 121.5H85.5C85.5 125.642 88.8579 129 93 129V125ZM49 129C53.1421 129 56.5 125.642 56.5 121.5H52.5C52.5 123.433 50.933 125 49 125V129ZM41.5 121.5C41.5 125.642 44.8579 129 49 129V125C47.067 125 45.5 123.433 45.5 121.5H41.5ZM49 114C44.8579 114 41.5 117.358 41.5 121.5H45.5C45.5 119.567 47.067 118 49 118V114ZM56.5 121.5C56.5 117.358 53.1421 114 49 114V118C50.933 118 52.5 119.567 52.5 121.5H56.5ZM18.5 73.5C18.5 75.433 16.933 77 15 77V81C19.1421 81 22.5 77.6421 22.5 73.5H18.5ZM15 70C16.933 70 18.5 71.567 18.5 73.5H22.5C22.5 69.3579 19.1421 66 15 66V70ZM11.5 73.5C11.5 71.567 13.067 70 15 70V66C10.8579 66 7.5 69.3579 7.5 73.5H11.5ZM15 77C13.067 77 11.5 75.433 11.5 73.5H7.5C7.5 77.6421 10.8579 81 15 81V77ZM116 106C120.142 106 123.5 102.642 123.5 98.5H119.5C119.5 100.433 117.933 102 116 102V106ZM108.5 98.5C108.5 102.642 111.858 106 116 106V102C114.067 102 112.5 100.433 112.5 98.5H108.5ZM116 91C111.858 91 108.5 94.3579 108.5 98.5H112.5C112.5 96.567 114.067 95 116 95V91ZM123.5 98.5C123.5 94.3579 120.142 91 116 91V95C117.933 95 119.5 96.567 119.5 98.5H123.5ZM127 43.5C127 45.433 125.433 47 123.5 47V51C127.642 51 131 47.6421 131 43.5H127ZM123.5 40C125.433 40 127 41.567 127 43.5H131C131 39.3579 127.642 36 123.5 36V40ZM120 43.5C120 41.567 121.567 40 123.5 40V36C119.358 36 116 39.3579 116 43.5H120ZM123.5 47C121.567 47 120 45.433 120 43.5H116C116 47.6421 119.358 51 123.5 51V47ZM27.5 103.5C27.5 105.433 25.933 107 24 107V111C28.1421 111 31.5 107.642 31.5 103.5H27.5ZM24 100C25.933 100 27.5 101.567 27.5 103.5H31.5C31.5 99.3579 28.1421 96 24 96V100ZM20.5 103.5C20.5 101.567 22.067 100 24 100V96C19.8579 96 16.5 99.3579 16.5 103.5H20.5ZM24 107C22.067 107 20.5 105.433 20.5 103.5H16.5C16.5 107.642 19.8579 111 24 111V107ZM88.4889 44.5515C86.5559 44.5515 84.9889 42.9845 84.9889 41.0515H80.9889C80.9889 45.1936 84.3467 48.5515 88.4889 48.5515V44.5515ZM91.9889 41.0515C91.9889 42.9845 90.4219 44.5515 88.4889 44.5515V48.5515C92.631 48.5515 95.9889 45.1936 95.9889 41.0515H91.9889ZM88.4889 37.5515C90.4219 37.5515 91.9889 39.1185 91.9889 41.0515H95.9889C95.9889 36.9093 92.631 33.5515 88.4889 33.5515V37.5515ZM84.9889 41.0515C84.9889 39.1185 86.5559 37.5515 88.4889 37.5515V33.5515C84.3467 33.5515 80.9889 36.9093 80.9889 41.0515H84.9889ZM91.0656 54.9559C91.0656 59.098 94.4235 62.4559 98.5656 62.4559V58.4559C96.6326 58.4559 95.0656 56.8889 95.0656 54.9559H91.0656ZM98.5656 47.4559C94.4235 47.4559 91.0656 50.8137 91.0656 54.9559H95.0656C95.0656 53.0229 96.6326 51.4559 98.5656 51.4559V47.4559ZM106.066 54.9559C106.066 50.8137 102.708 47.4559 98.5656 47.4559V51.4559C100.499 51.4559 102.066 53.0229 102.066 54.9559H106.066ZM98.5656 62.4559C102.708 62.4559 106.066 59.098 106.066 54.9559H102.066C102.066 56.8889 100.499 58.4559 98.5656 58.4559V62.4559ZM98.5656 77.1471C96.6326 77.1471 95.0656 75.5801 95.0656 73.6471H91.0656C91.0656 77.7892 94.4235 81.1471 98.5656 81.1471V77.1471ZM102.066 73.6471C102.066 75.5801 100.499 77.1471 98.5656 77.1471V81.1471C102.708 81.1471 106.066 77.7892 106.066 73.6471H102.066ZM98.5656 70.1471C100.499 70.1471 102.066 71.7141 102.066 73.6471H106.066C106.066 69.5049 102.708 66.1471 98.5656 66.1471V70.1471ZM95.0656 73.6471C95.0656 71.7141 96.6326 70.1471 98.5656 70.1471V66.1471C94.4235 66.1471 91.0656 69.5049 91.0656 73.6471H95.0656ZM82 87C82 91.1421 85.3579 94.5 89.5 94.5V90.5C87.567 90.5 86 88.933 86 87H82ZM89.5 79.5C85.3579 79.5 82 82.8579 82 87H86C86 85.067 87.567 83.5 89.5 83.5V79.5ZM97 87C97 82.8579 93.6421 79.5 89.5 79.5V83.5C91.433 83.5 93 85.067 93 87H97ZM89.5 94.5C93.6421 94.5 97 91.1421 97 87H93C93 88.933 91.433 90.5 89.5 90.5V94.5ZM51.5111 48.5515C55.6533 48.5515 59.0111 45.1936 59.0111 41.0515H55.0111C55.0111 42.9845 53.4441 44.5515 51.5111 44.5515V48.5515ZM44.0111 41.0515C44.0111 45.1936 47.369 48.5515 51.5111 48.5515V44.5515C49.5781 44.5515 48.0111 42.9845 48.0111 41.0515H44.0111ZM51.5111 33.5515C47.369 33.5515 44.0111 36.9093 44.0111 41.0515H48.0111C48.0111 39.1185 49.5781 37.5515 51.5111 37.5515V33.5515ZM59.0111 41.0515C59.0111 36.9093 55.6533 33.5515 51.5111 33.5515V37.5515C53.4441 37.5515 55.0111 39.1185 55.0111 41.0515H59.0111ZM45.9344 54.9559C45.9344 56.8889 44.3674 58.4559 42.4344 58.4559V62.4559C46.5765 62.4559 49.9344 59.098 49.9344 54.9559H45.9344ZM42.4344 51.4559C44.3674 51.4559 45.9344 53.0229 45.9344 54.9559H49.9344C49.9344 50.8137 46.5765 47.4559 42.4344 47.4559V51.4559ZM38.9344 54.9559C38.9344 53.0229 40.5014 51.4559 42.4344 51.4559V47.4559C38.2922 47.4559 34.9344 50.8137 34.9344 54.9559H38.9344ZM42.4344 58.4559C40.5014 58.4559 38.9344 56.8889 38.9344 54.9559H34.9344C34.9344 59.098 38.2922 62.4559 42.4344 62.4559V58.4559ZM42.4344 81.1471C46.5765 81.1471 49.9344 77.7892 49.9344 73.6471H45.9344C45.9344 75.5801 44.3674 77.1471 42.4344 77.1471V81.1471ZM34.9344 73.6471C34.9344 77.7892 38.2922 81.1471 42.4344 81.1471V77.1471C40.5014 77.1471 38.9344 75.5801 38.9344 73.6471H34.9344ZM42.4344 66.1471C38.2922 66.1471 34.9344 69.5049 34.9344 73.6471H38.9344C38.9344 71.7141 40.5014 70.1471 42.4344 70.1471V66.1471ZM49.9344 73.6471C49.9344 69.5049 46.5765 66.1471 42.4344 66.1471V70.1471C44.3674 70.1471 45.9344 71.7141 45.9344 73.6471H49.9344ZM55 87C55 88.933 53.433 90.5 51.5 90.5V94.5C55.6421 94.5 59 91.1421 59 87H55ZM51.5 83.5C53.433 83.5 55 85.067 55 87H59C59 82.8579 55.6421 79.5 51.5 79.5V83.5ZM48 87C48 85.067 49.567 83.5 51.5 83.5V79.5C47.3579 79.5 44 82.8579 44 87H48ZM51.5 90.5C49.567 90.5 48 88.933 48 87H44C44 91.1421 47.3579 94.5 51.5 94.5V90.5Z" fill="#246F99" mask="url(#path-38-inside-1_669_14843)"/>
</svg>
