<svg width="165" height="130" viewBox="0 0 165 130" fill="none" xmlns="http://www.w3.org/2000/svg">
<path fill-rule="evenodd" clip-rule="evenodd" d="M60.0095 19H55.6667H51.3254C7.90475 19 0.666748 29.4456 0.666748 42.3332V74V105.667C0.666748 118.554 7.90475 129 51.3254 129H55.6667H60.0095C103.43 129 110.667 118.554 110.667 105.667V74V42.3332C110.667 29.4456 103.43 19 60.0095 19Z" fill="#C40F00"/>
<path fill-rule="evenodd" clip-rule="evenodd" d="M60.0095 19H55.6667H51.3254C7.90475 19 0.666748 29.4456 0.666748 42.3332V74V105.667C0.666748 118.554 7.90475 129 51.3254 129H55.6667H60.0095C103.43 129 110.667 118.554 110.667 105.667V74V42.3332C110.667 29.4456 103.43 19 60.0095 19Z" fill="#FAFAFA" fill-opacity="0.8"/>
<mask id="mask0_669_14676" style="mask-type:luminance" maskUnits="userSpaceOnUse" x="0" y="19" width="111" height="110">
<path fill-rule="evenodd" clip-rule="evenodd" d="M60.0095 19H55.6667H51.3254C7.90475 19 0.666748 29.4456 0.666748 42.3332V74V105.667C0.666748 118.554 7.90475 129 51.3254 129H55.6667H60.0095C103.43 129 110.667 118.554 110.667 105.667V74V42.3332C110.667 29.4456 103.43 19 60.0095 19Z" fill="white"/>
</mask>
<g mask="url(#mask0_669_14676)">
<path fill-rule="evenodd" clip-rule="evenodd" d="M84.6667 20.4165C84.6667 20.4165 88.6667 29.4165 88.6667 37.4165C88.6667 45.4165 88.6667 68.9165 88.6667 68.9165C88.6667 68.9165 98.1667 74.9165 102.167 68.9165C106.167 62.9165 108.667 65.4165 108.667 65.4165C108.667 65.4165 111.925 67.7282 112.667 70.4165C113.408 73.1048 110.667 80.9165 110.667 80.9165C110.667 80.9165 106.44 79.2797 102.167 81.4165C97.8932 83.5533 89.1667 90.9165 89.1667 90.9165C89.1667 90.9165 90.6667 98.9165 88.6667 100.917C86.6667 102.917 86.6667 106.917 86.6667 106.917C86.6667 106.917 89.1667 112.917 89.1667 118.917C89.1667 124.917 91.1667 126.417 91.1667 126.417C91.1667 126.417 74.1667 128.917 58.6667 128.917C43.1667 128.917 30.1667 128.917 30.1667 128.917L37.1667 19.9165L74.1667 19.4165L84.6667 20.4165Z" fill="#C40F00"/>
<path fill-rule="evenodd" clip-rule="evenodd" d="M84.6667 20.4165C84.6667 20.4165 88.6667 29.4165 88.6667 37.4165C88.6667 45.4165 88.6667 68.9165 88.6667 68.9165C88.6667 68.9165 98.1667 74.9165 102.167 68.9165C106.167 62.9165 108.667 65.4165 108.667 65.4165C108.667 65.4165 111.925 67.7282 112.667 70.4165C113.408 73.1048 110.667 80.9165 110.667 80.9165C110.667 80.9165 106.44 79.2797 102.167 81.4165C97.8932 83.5533 89.1667 90.9165 89.1667 90.9165C89.1667 90.9165 90.6667 98.9165 88.6667 100.917C86.6667 102.917 86.6667 106.917 86.6667 106.917C86.6667 106.917 89.1667 112.917 89.1667 118.917C89.1667 124.917 91.1667 126.417 91.1667 126.417C91.1667 126.417 74.1667 128.917 58.6667 128.917C43.1667 128.917 30.1667 128.917 30.1667 128.917L37.1667 19.9165L74.1667 19.4165L84.6667 20.4165Z" fill="#FAFAFA" fill-opacity="0.5"/>
</g>
<path fill-rule="evenodd" clip-rule="evenodd" d="M69.4424 86.1863C68.9986 85.2405 68.3529 83.2626 69.0251 80.6477C69.6444 78.241 71.6427 74.5304 77.6488 70.5198C79.6664 69.1736 81.8932 68.1105 84.2672 67.3606C85.2262 67.058 86.2372 66.9045 87.2738 66.9045C87.677 66.9045 88.0881 66.9283 88.4948 66.9751C88.5574 66.9821 88.6192 66.9857 88.6818 66.9857C88.9844 66.9857 89.2844 66.901 89.549 66.7413C90.4348 66.2067 92.6739 64.9636 94.3404 64.9636C94.5574 64.9636 94.7612 64.9857 94.9456 65.028C98.508 65.8441 99.7943 68.054 100.486 69.2406C100.569 69.3844 100.644 69.5132 100.713 69.6226L100.907 69.9279L92.3624 74.2737C91.6337 75.2318 82.8892 86.346 69.7406 86.3751L69.5315 86.376L69.4424 86.1863Z" fill="#FFDBB9"/>
<path fill-rule="evenodd" clip-rule="evenodd" d="M94.3403 64.6355C92.59 64.6355 90.2883 65.9112 89.3796 66.4599C89.1661 66.5887 88.9252 66.6575 88.6826 66.6575C88.6323 66.6575 88.5829 66.654 88.5327 66.6487C88.1136 66.6002 87.6901 66.5764 87.2737 66.5764C86.2036 66.5764 85.159 66.7343 84.1683 67.0475C81.7643 67.8071 79.5102 68.8834 77.467 70.2473C71.3735 74.3143 69.34 78.1035 68.7074 80.5657C68.0087 83.2794 68.6818 85.3394 69.145 86.3257L69.3232 86.7051L69.7414 86.7042C82.972 86.6742 91.5357 75.9138 92.5812 74.5313L92.7973 74.4211L100.734 70.3849L101.378 70.0576L100.99 69.4471C100.923 69.3404 100.85 69.2151 100.769 69.0757C100.054 67.8459 98.7205 65.5557 95.0187 64.7078C94.8105 64.6593 94.582 64.6355 94.3403 64.6355ZM94.3403 65.2928C94.5282 65.2928 94.7064 65.3104 94.8723 65.3483C98.7276 66.2314 99.7951 68.7899 100.436 69.7991L92.4991 73.8353L92.1453 74.0152C92.1453 74.0152 83.4034 86.0161 69.7396 86.0469C69.3426 85.2009 68.6871 83.2821 69.3444 80.7298C69.9902 78.2155 72.044 74.6575 77.8313 70.7934C79.8631 69.4374 82.0678 68.3999 84.3668 67.6739C85.3117 67.3757 86.2918 67.2336 87.2737 67.2336C87.669 67.2336 88.0642 67.2566 88.4577 67.3016C88.5327 67.3104 88.6076 67.3148 88.6826 67.3148C89.0443 67.3148 89.4016 67.2142 89.7192 67.0228C90.7214 66.4176 92.8317 65.2928 94.3403 65.2928Z" fill="#020202"/>
<path fill-rule="evenodd" clip-rule="evenodd" d="M23.1492 75.2934C19.0416 75.2934 15.6997 71.9515 15.6997 67.8439L17.3433 28.6099C17.3424 24.5164 20.6851 21.1746 24.7927 21.1746H68.6125C72.7202 21.1746 76.0629 24.5164 76.0629 28.624L77.7056 67.8307C77.7056 71.9515 74.3637 75.2934 70.2561 75.2934H23.1492Z" fill="#3F3F3F"/>
<path fill-rule="evenodd" clip-rule="evenodd" d="M68.6129 20.8461H24.7922C20.5037 20.8461 17.0145 24.3352 17.0145 28.6246L15.3718 67.8163C15.3709 72.133 18.8601 75.6222 23.1486 75.6222H70.2564C74.5449 75.6222 78.035 72.133 78.035 67.8436L76.3905 28.5964C76.3914 24.3352 72.9022 20.8461 68.6129 20.8461ZM68.6129 21.5033C72.5458 21.5033 75.7341 24.6917 75.7341 28.6246L77.3768 67.8436C77.3768 71.7766 74.1894 74.9649 70.2564 74.9649H23.1486C19.2165 74.9649 16.0282 71.7766 16.0282 67.8436L17.6718 28.6246C17.6718 24.6917 20.8601 21.5033 24.7922 21.5033H68.6129Z" fill="#020202"/>
<path fill-rule="evenodd" clip-rule="evenodd" d="M52.8237 128.722L52.8423 128.376C52.8687 127.853 52.964 127.333 53.1228 126.831L53.196 126.602H75.6979L75.7702 126.833C75.9273 127.34 76.0208 127.859 76.0473 128.376L76.0658 128.722H52.8237Z" fill="#44484B"/>
<mask id="mask1_669_14676" style="mask-type:luminance" maskUnits="userSpaceOnUse" x="52" y="126" width="25" height="4">
<path fill-rule="evenodd" clip-rule="evenodd" d="M52.4778 129.051H76.4115V126.273H52.4778V129.051Z" fill="white"/>
</mask>
<g mask="url(#mask1_669_14676)">
<path fill-rule="evenodd" clip-rule="evenodd" d="M75.9404 126.273H75.4561H53.4359H52.9551L52.8095 126.732C52.6419 127.262 52.5422 127.809 52.5131 128.359L52.4778 129.051H53.1694H75.719H76.4115L76.3753 128.359C76.3471 127.816 76.2492 127.269 76.0842 126.737L75.9404 126.273ZM75.4561 126.931C75.6007 127.397 75.6925 127.887 75.719 128.393H53.1694C53.1959 127.887 53.2877 127.397 53.4359 126.931H75.4561Z" fill="#020202"/>
</g>
<path fill-rule="evenodd" clip-rule="evenodd" d="M53.1833 126.602L53.3854 126.142C53.5883 125.678 53.86 125.226 54.1926 124.8C54.3602 124.595 54.527 124.405 54.7096 124.229C55.8776 123.065 57.4312 122.421 59.0827 122.421H69.8061C70.9759 122.421 72.1166 122.751 73.1047 123.376C73.3288 123.513 73.5423 123.669 73.7514 123.84C74.503 124.456 75.1083 125.251 75.5035 126.14L75.709 126.602H53.1833Z" fill="#FFDBB9"/>
<path fill-rule="evenodd" clip-rule="evenodd" d="M69.8064 122.093H59.0822C57.3442 122.093 55.7077 122.771 54.4744 124C54.2662 124.2 54.0818 124.417 53.9442 124.584C53.5842 125.045 53.2992 125.52 53.084 126.009L52.6799 126.931H53.6857H54.9905H59.3125H75.203H76.214L75.8038 126.007C75.3882 125.071 74.7504 124.234 73.9599 123.586C73.7147 123.385 73.4959 123.229 73.2692 123.092C72.2405 122.441 71.0389 122.093 69.8064 122.093ZM69.8064 122.75C70.9533 122.75 72.0252 123.082 72.9286 123.655C73.1456 123.786 73.3459 123.933 73.5435 124.095C74.2528 124.676 74.8254 125.423 75.203 126.274H59.3125H54.9905H53.6857C53.8859 125.817 54.1497 125.39 54.4514 125.002C54.6058 124.815 54.7637 124.634 54.9384 124.466C56.0033 123.404 57.4686 122.75 59.0822 122.75H69.8064Z" fill="#020202"/>
<path fill-rule="evenodd" clip-rule="evenodd" d="M18.364 128.722L18.3825 128.376C18.409 127.858 18.5025 127.34 18.6587 126.833L18.731 126.602H41.2338L41.3061 126.831C41.4658 127.333 41.5602 127.853 41.5875 128.376L41.6061 128.722H18.364Z" fill="#44484B"/>
<mask id="mask2_669_14676" style="mask-type:luminance" maskUnits="userSpaceOnUse" x="18" y="126" width="24" height="4">
<path fill-rule="evenodd" clip-rule="evenodd" d="M18.0178 129.051H41.9515V126.273H18.0178V129.051Z" fill="white"/>
</mask>
<g mask="url(#mask2_669_14676)">
<path fill-rule="evenodd" clip-rule="evenodd" d="M41.4743 126.273H40.9934H18.9733H18.4889L18.3451 126.737C18.1802 127.269 18.0822 127.816 18.054 128.359L18.0178 129.051H18.7104H41.259H41.9515L41.9154 128.359C41.8871 127.809 41.7874 127.262 41.6198 126.732L41.4743 126.273ZM40.9934 126.931C41.1408 127.397 41.2334 127.887 41.259 128.393H18.7104C18.7368 127.887 18.8286 127.397 18.9733 126.931H40.9934Z" fill="#020202"/>
</g>
<path fill-rule="evenodd" clip-rule="evenodd" d="M18.7205 126.602L18.926 126.14C19.3213 125.251 19.9265 124.456 20.6781 123.841C20.8872 123.669 21.1007 123.513 21.3301 123.373C22.312 122.751 23.4527 122.421 24.6225 122.421H35.3468C36.9974 122.421 38.5519 123.065 39.7234 124.233C39.9025 124.405 40.0684 124.595 40.2307 124.792C40.5686 125.225 40.8403 125.677 41.045 126.142L41.247 126.602H18.7205Z" fill="#FFDBB9"/>
<path fill-rule="evenodd" clip-rule="evenodd" d="M35.3469 122.093H24.6226C23.3902 122.093 22.1886 122.441 21.1493 123.099C20.9341 123.229 20.7144 123.385 20.47 123.586C19.6787 124.234 19.0408 125.071 18.6253 126.007L18.2151 126.931H19.2261H35.1166H39.4386H40.7434H41.75L41.3451 126.009C41.1307 125.52 40.8449 125.045 40.4964 124.598C40.3473 124.417 40.1629 124.2 39.9468 123.992C38.7214 122.771 37.0849 122.093 35.3469 122.093ZM35.3469 122.75C36.9605 122.75 38.4267 123.404 39.4916 124.466C39.6654 124.634 39.8233 124.815 39.9777 125.002C40.2803 125.39 40.5432 125.817 40.7434 126.274H39.4386H35.1166H19.2261C19.6046 125.423 20.1763 124.676 20.8864 124.095C21.0832 123.933 21.2834 123.786 21.5005 123.655C22.4047 123.082 23.4758 122.75 24.6226 122.75H35.3469Z" fill="#020202"/>
<path fill-rule="evenodd" clip-rule="evenodd" d="M54.3428 123.978C53.2092 121.626 50.7901 117.346 47.2145 114.832C43.6389 117.346 41.2198 121.626 40.0862 123.978L39.8939 124.376L39.5674 124.077C38.4064 123.01 36.9067 122.421 35.3469 122.421H24.6226C23.5596 122.421 22.5053 122.7 21.5737 123.227L21.1591 123.461L21.0867 122.991C20.912 121.853 20.6209 120.817 20.3395 119.816C19.5622 117.049 18.5953 113.604 18.5918 105.368V104.873L19.0479 105.035C20.1401 105.493 22.5415 105.717 26.388 105.717H68.041C71.8875 105.717 74.288 105.493 75.3811 105.035L75.8372 104.844V105.338C75.8337 113.603 74.8668 117.048 74.0895 119.815C73.8081 120.816 73.5179 121.85 73.3423 122.991L73.27 123.461L72.8553 123.227C71.9246 122.7 70.8694 122.421 69.8064 122.421H59.0821C57.5223 122.421 56.0226 123.01 54.8607 124.077L54.5352 124.376L54.3428 123.978Z" fill="#FFDBB9"/>
<path fill-rule="evenodd" clip-rule="evenodd" d="M18.2634 104.349V105.338C18.267 113.648 19.2409 117.117 20.0235 119.904C20.3155 120.943 20.5907 121.924 20.7619 123.041L20.9066 123.981L21.7358 123.513C22.6181 123.014 23.6167 122.75 24.6233 122.75H35.3467C36.8244 122.75 38.2448 123.307 39.3458 124.318L39.9978 124.918L40.3824 124.12C41.4825 121.838 43.8037 117.723 47.2143 115.236C50.625 117.723 52.947 121.838 54.0471 124.12L54.4318 124.918L55.0837 124.318C56.1847 123.307 57.6051 122.75 59.0828 122.75H69.8062C70.8128 122.75 71.8115 123.014 72.6937 123.513L73.523 123.981L73.6677 123.041C73.8388 121.924 74.1141 120.943 74.4061 119.905C75.1886 117.117 76.1626 113.648 76.1661 105.367V104.378L75.2548 104.732C74.2032 105.172 71.8441 105.387 68.0417 105.387H47.2143H26.3878C22.5854 105.387 20.2264 105.172 19.1748 104.732L18.2634 104.349ZM75.5088 105.338V105.367C75.5053 113.551 74.5455 116.976 73.7735 119.726C73.4674 120.814 73.1913 121.807 73.0175 122.94C72.0647 122.401 70.9698 122.093 69.8062 122.093H59.0828C57.3704 122.093 55.8124 122.757 54.6391 123.835C53.3643 121.189 50.8755 116.917 47.2143 114.432C43.5531 116.917 41.0653 121.189 39.7904 123.835C38.6171 122.757 37.0591 122.093 35.3467 122.093H24.6233C23.4597 122.093 22.3649 122.401 21.4121 122.94C21.2374 121.807 20.9621 120.814 20.656 119.726C19.8841 116.976 18.9242 113.551 18.9207 105.367V105.338C20.0649 105.817 22.4804 106.045 26.3878 106.045H47.2143H68.0417C71.9491 106.045 74.3646 105.817 75.5088 105.338Z" fill="#020202"/>
<path fill-rule="evenodd" clip-rule="evenodd" d="M20.5223 105.345C20.4243 105.332 20.3132 105.32 20.1888 105.308C19.1354 105.204 17.1769 105.01 15.3798 102.746C14.5302 101.674 14.5999 99.3166 14.6688 98.3532C14.689 98.0771 14.6211 97.8089 14.4738 97.5751C13.8509 96.5932 13.446 95.5433 13.2704 94.4538C12.959 92.535 12.9123 90.6197 13.1302 88.7599C13.7795 83.2161 15.6189 80.5959 17.0472 79.374C18.5885 78.056 20.1588 77.8593 20.9572 77.8593H21.4336L21.3048 78.3048C21.034 79.0194 20.8955 79.7375 20.8955 80.4389L23.0472 98.1106L20.7984 105.383L20.5223 105.345Z" fill="#FFDBB9"/>
<mask id="mask3_669_14676" style="mask-type:luminance" maskUnits="userSpaceOnUse" x="12" y="77" width="12" height="29">
<path fill-rule="evenodd" clip-rule="evenodd" d="M12.6667 77.5303V105.747H23.3817V77.5303H12.6667Z" fill="white"/>
</mask>
<g mask="url(#mask3_669_14676)">
<path fill-rule="evenodd" clip-rule="evenodd" d="M20.9566 77.5303C20.1132 77.5303 18.4547 77.7376 16.834 79.1244C15.3607 80.3843 13.4657 83.0715 12.8032 88.7221C12.5817 90.6118 12.6302 92.558 12.9461 94.5068C13.1296 95.6396 13.5504 96.7318 14.1962 97.7507C14.3056 97.9245 14.3559 98.1248 14.3409 98.3295C14.2518 99.5743 14.235 101.831 15.1225 102.95C17.006 105.324 19.0554 105.527 20.1565 105.635C20.2764 105.647 20.3841 105.657 20.4776 105.67L21.0307 105.747L21.1957 105.213L23.3404 98.2748L23.3818 98.1407L23.3651 98.0013L21.2248 80.4001C21.2301 79.7508 21.3598 79.0847 21.6121 78.4213L21.9474 77.5391L21.0043 77.5303H21.0007H20.9566ZM20.9566 78.1875C20.9707 78.1875 20.9849 78.1875 20.9981 78.1875C20.722 78.9145 20.5676 79.667 20.5676 80.4389L22.7122 98.0807L20.5676 105.019C19.6633 104.894 17.5636 104.968 15.6377 102.541C14.8887 101.598 14.924 99.389 14.9972 98.3762C15.0219 98.0322 14.9355 97.6907 14.7511 97.3996C14.1724 96.4856 13.7674 95.4693 13.5945 94.4018C13.2946 92.55 13.2381 90.6647 13.456 88.7989C14.0797 83.4817 15.7815 80.8898 17.261 79.6238C18.7343 78.3631 20.2306 78.1875 20.9566 78.1875Z" fill="#020202"/>
</g>
<path fill-rule="evenodd" clip-rule="evenodd" d="M26.3877 105.442C25.5769 105.442 24.8332 105.432 24.1751 105.414L23.8522 105.404L23.9148 98.7052C21.869 98.369 20.3657 95.6659 19.539 94.1811C19.3326 93.8106 19.0997 93.3907 19.015 93.313L18.8333 93.2222L18.8668 93.0404V80.7679C18.8668 78.3868 20.5845 75.8848 23.464 74.0727L23.8972 73.8001L24.43 73.5187C25.1649 73.1323 25.9042 72.8173 26.6268 72.5818L27.142 72.4142L27.4596 72.3392L28.1168 72.1689L28.8782 72.0604C29.1402 72.0233 29.4022 71.9977 29.6572 71.9836L29.7242 71.9801L29.7878 72.003C33.3943 73.3149 38.1036 74.0436 44.1829 74.2289L45.2769 74.2518C45.8433 74.2642 46.4776 74.2712 47.2081 74.2748C47.9518 74.2712 48.5861 74.2642 49.1525 74.2518L50.2191 74.2298C56.317 74.0436 61.036 73.3149 64.6416 72.003L64.7051 71.9801L64.7722 71.9836C65.0271 71.9977 65.2891 72.0233 65.5512 72.0604L66.2755 72.161L67.3729 72.4424L67.8017 72.5809C68.526 72.8182 69.2653 73.1332 69.9993 73.5187L70.5136 73.7895L70.9662 74.0727C72.9856 75.344 72.0452 76.9602 71.215 78.3868C70.7659 79.1587 70.3019 79.9562 70.2763 80.6911L75.6543 93.7453L75.3817 93.8821C75.327 93.9271 75.1347 94.2155 74.9803 94.4476C74.2904 95.4824 73.0332 97.3695 71.0068 97.6174L70.5357 105.406L70.2357 105.414C69.5908 105.432 68.8471 105.442 68.0417 105.442H26.3877Z" fill="#FFDBB9"/>
<path fill-rule="evenodd" clip-rule="evenodd" d="M64.656 71.6481L64.5289 71.6939C60.9577 72.9943 56.2723 73.716 50.2061 73.9013L49.1457 73.9233C48.5802 73.9348 47.9485 73.9427 47.203 73.9463C46.4805 73.9427 45.8488 73.9348 45.2833 73.9233L44.1867 73.9004C38.148 73.716 33.4722 72.9943 29.9001 71.6939L29.773 71.6481L29.6381 71.656C29.3734 71.6701 29.1026 71.6975 28.8326 71.7345L28.1083 71.836L28.0712 71.8413L28.0351 71.8501L27.3699 72.0221L27.0938 72.0865L27.0673 72.0927L27.0408 72.1015L26.5256 72.2692C25.7854 72.51 25.0294 72.8329 24.2768 73.2281L23.766 73.4963L23.7431 73.5087L23.7219 73.5219L23.2887 73.7945C20.3139 75.6666 18.5371 78.2735 18.5371 80.7676V93.041V93.4459L18.8097 93.5827C18.9059 93.7194 19.0956 94.0608 19.2517 94.3414C20.0695 95.8112 21.5287 98.4322 23.5834 98.9704L23.5269 105.078L23.5208 105.723L24.1657 105.741C24.8273 105.761 25.5746 105.771 26.388 105.771H68.0411C68.8553 105.771 69.5964 105.761 70.2448 105.742L70.8456 105.726L70.8818 105.125L71.3185 97.9011C73.3317 97.5147 74.5642 95.6647 75.2541 94.629C75.3732 94.4499 75.5187 94.232 75.592 94.1447L76.0745 93.902L75.8425 93.3383L70.6083 80.6344C70.6577 79.9983 71.0847 79.2634 71.4985 78.5523C72.3136 77.1522 73.4296 75.2343 71.1412 73.7945L70.7107 73.5237L70.6886 73.5104L70.6657 73.4981L70.1522 73.2281C69.4006 72.8329 68.6445 72.5109 67.9043 72.2692L67.4932 72.1359L66.3948 71.8501L66.3587 71.8413L66.3207 71.836L65.5964 71.7345C65.3274 71.6975 65.0556 71.6701 64.791 71.656L64.656 71.6481ZM64.7539 72.3115C65 72.3256 65.2524 72.3503 65.5056 72.3856L66.2299 72.4871L67.2903 72.7605L67.7005 72.8938C68.4054 73.124 69.1271 73.4319 69.8461 73.8095L70.3604 74.0803L70.7909 74.3512C73.5734 76.1015 69.9466 78.4861 69.9466 80.7535L75.2347 93.5889C74.7777 93.8173 73.4199 97.2033 70.6957 97.3136L70.2254 105.085C69.5849 105.104 68.8439 105.113 68.0411 105.113H26.388C25.5807 105.113 24.8397 105.104 24.1842 105.084L24.2459 98.4084C21.512 98.299 19.6522 93.2704 19.1944 93.041V80.7676C19.1944 78.5003 20.8565 76.1015 23.6381 74.3512L24.0722 74.0786L24.583 73.8095C25.302 73.4319 26.0236 73.124 26.7294 72.8938L27.2437 72.727L27.534 72.6582L28.1992 72.4871L28.9235 72.3856C29.1767 72.3503 29.429 72.3256 29.6751 72.3115C33.3143 73.6357 38.0571 74.3706 44.1726 74.5576L45.2701 74.5806C45.8383 74.592 46.4735 74.6 47.2066 74.6035C47.9556 74.6 48.5908 74.592 49.1598 74.5806L50.2255 74.5585C56.3719 74.3706 61.1156 73.6357 64.7539 72.3115Z" fill="#020202"/>
<path fill-rule="evenodd" clip-rule="evenodd" d="M18.2705 46.6441C18.836 46.7006 19.5347 47.2467 20.2316 48.2021C21.1465 49.4531 21.9511 51.2379 22.5007 53.2326C22.5307 53.334 22.5572 53.4328 22.5828 53.5343L22.2969 56.383C22.1311 58.0406 22.1443 59.581 22.3481 61.0084C22.2316 61.1196 22.1019 61.1955 21.9626 61.2343C21.3468 61.4107 20.5113 60.8505 19.675 59.7036C18.7636 58.4526 17.952 56.667 17.4024 54.6723C17.1253 53.6772 16.933 52.6935 16.8254 51.761C16.7204 50.8285 16.6992 49.9551 16.7672 49.1788C16.8969 47.7584 17.3256 46.8435 17.9405 46.6706C18.0464 46.6415 18.1558 46.6327 18.2705 46.6441Z" fill="#FFDBB9"/>
<path fill-rule="evenodd" clip-rule="evenodd" d="M18.2705 46.6441C18.836 46.7006 19.5347 47.2467 20.2316 48.2021C21.1465 49.4531 21.9511 51.2379 22.5007 53.2326C22.5307 53.334 22.5572 53.4328 22.5828 53.5343L22.2969 56.383C22.1311 58.0406 22.1443 59.581 22.3481 61.0084C22.2316 61.1196 22.1019 61.1955 21.9626 61.2343C21.3468 61.4107 20.5113 60.8505 19.675 59.7036C18.7636 58.4526 17.952 56.667 17.4024 54.6723C17.1253 53.6772 16.933 52.6935 16.8254 51.761C16.7204 50.8285 16.6992 49.9551 16.7672 49.1788C16.8969 47.7584 17.3256 46.8435 17.9405 46.6706C18.0464 46.6415 18.1558 46.6327 18.2705 46.6441Z" stroke="#020202" stroke-width="0.802017"/>
<path fill-rule="evenodd" clip-rule="evenodd" d="M75.2144 46.6441C74.6489 46.7006 73.9502 47.2467 73.2532 48.2021C72.3384 49.4531 71.5338 51.2379 70.9841 53.2326C70.9542 53.334 70.9277 53.4328 70.9021 53.5343L71.1879 56.383C71.3538 58.0406 71.3406 59.581 71.1368 61.0084C71.2532 61.1196 71.3829 61.1955 71.5223 61.2343C72.1381 61.4107 72.9735 60.8505 73.8099 59.7036C74.7212 58.4526 75.5329 56.667 76.0825 54.6723C76.3595 53.6772 76.5518 52.6935 76.6595 51.761C76.7644 50.8285 76.7856 49.9551 76.7177 49.1788C76.588 47.7584 76.1592 46.8435 75.5443 46.6706C75.4385 46.6415 75.3291 46.6327 75.2144 46.6441Z" fill="#FFDBB9"/>
<path fill-rule="evenodd" clip-rule="evenodd" d="M75.2144 46.6441C74.6489 46.7006 73.9502 47.2467 73.2532 48.2021C72.3384 49.4531 71.5338 51.2379 70.9841 53.2326C70.9542 53.334 70.9277 53.4328 70.9021 53.5343L71.1879 56.383C71.3538 58.0406 71.3406 59.581 71.1368 61.0084C71.2532 61.1196 71.3829 61.1955 71.5223 61.2343C72.1381 61.4107 72.9735 60.8505 73.8099 59.7036C74.7212 58.4526 75.5329 56.667 76.0825 54.6723C76.3595 53.6772 76.5518 52.6935 76.6595 51.761C76.7644 50.8285 76.7856 49.9551 76.7177 49.1788C76.588 47.7584 76.1592 46.8435 75.5443 46.6706C75.4385 46.6415 75.3291 46.6327 75.2144 46.6441Z" stroke="#020202" stroke-width="0.802017"/>
<path fill-rule="evenodd" clip-rule="evenodd" d="M50.8398 75.3483H42.6237C29.963 75.3483 19.6992 65.0845 19.6992 52.4247V40.6753C19.6992 31.2364 27.3507 23.585 36.7896 23.585H56.673C66.1119 23.585 73.7634 31.2364 73.7634 40.6753V52.4247C73.7634 65.0845 63.5005 75.3483 50.8398 75.3483Z" fill="#FFDBB9"/>
<path fill-rule="evenodd" clip-rule="evenodd" d="M50.8398 75.3483H42.6237C29.963 75.3483 19.6992 65.0845 19.6992 52.4247V40.6753C19.6992 31.2364 27.3507 23.585 36.7896 23.585H56.673C66.1119 23.585 73.7634 31.2364 73.7634 40.6753V52.4247C73.7634 65.0845 63.5005 75.3483 50.8398 75.3483Z" stroke="#020202" stroke-width="0.802017"/>
<path fill-rule="evenodd" clip-rule="evenodd" d="M51.05 66.0604C49.9913 66.4645 48.4369 66.8324 46.6918 66.8456C44.9503 66.8588 43.3985 66.5306 42.3275 66.1919C41.2494 65.8505 40.6345 65.5152 40.6707 65.4067C40.7501 65.1332 43.3888 65.9748 46.6857 65.9616C49.9887 65.9519 52.5515 64.9038 52.6504 65.1632C52.6962 65.2682 52.1087 65.6599 51.05 66.0604Z" fill="#FFDBB9"/>
<path fill-rule="evenodd" clip-rule="evenodd" d="M52.5289 49.7644C52.5289 51.0233 53.5514 52.045 54.8095 52.045C56.0684 52.045 57.0874 51.0233 57.0874 49.7644C57.0874 48.5055 56.0684 47.4865 54.8095 47.4865C53.5514 47.4865 52.5289 48.5055 52.5289 49.7644ZM48.3913 46.9016C49.3874 43.3295 52.6569 40.7102 56.5351 40.7102C60.4133 40.7102 63.6837 43.3295 64.6797 46.9016C64.8235 47.5068 64.8959 48.1341 64.8959 48.7816C64.8959 53.3992 61.3308 55.1689 56.7133 55.1689C52.0958 55.1689 48.1743 53.3992 48.1743 48.7816C48.1743 48.1341 48.2467 47.5068 48.3913 46.9016Z" fill="white"/>
<path fill-rule="evenodd" clip-rule="evenodd" d="M51.7068 38.9593H59.3089V38.302H51.7068V38.9593Z" fill="black"/>
<path fill-rule="evenodd" clip-rule="evenodd" d="M54.8098 52.0454C53.5509 52.0454 52.5293 51.0229 52.5293 49.7648C52.5293 48.5059 53.5509 47.4869 54.8098 47.4869C56.0688 47.4869 57.0877 48.5059 57.0877 49.7648C57.0877 51.0229 56.0688 52.0454 54.8098 52.0454Z" fill="black"/>
<path fill-rule="evenodd" clip-rule="evenodd" d="M56.5354 40.7099C52.6571 40.7099 49.3867 43.3292 48.3916 46.9022C49.2394 43.1881 52.5654 40.4205 56.5354 40.4205C60.5053 40.4205 63.8313 43.1881 64.6791 46.9022C63.684 43.3292 60.4136 40.7099 56.5354 40.7099Z" fill="white"/>
<path fill-rule="evenodd" clip-rule="evenodd" d="M46.6328 66.2505C42.2367 66.2602 38.7263 64.7383 38.6204 65.235C38.5719 65.4335 41.6165 68.6104 46.6495 68.6104C51.6817 68.6104 54.6936 65.4335 54.6451 65.235C54.5392 64.7383 51.0289 66.2602 46.6328 66.2505Z" fill="#E05934"/>
<path fill-rule="evenodd" clip-rule="evenodd" d="M32.9304 38.9593H40.6542V38.302H32.9304V38.9593Z" fill="black"/>
<path fill-rule="evenodd" clip-rule="evenodd" d="M38.0879 52.0563C36.829 52.0563 35.8074 51.0338 35.8074 49.7758C35.81 48.5169 36.829 47.4944 38.0879 47.4944C39.3468 47.4944 40.3684 48.5169 40.3684 49.7758C40.3684 51.0338 39.3468 52.0563 38.0879 52.0563Z" fill="black"/>
<path fill-rule="evenodd" clip-rule="evenodd" d="M38.0878 52.0564C36.8288 52.0564 35.8072 51.0339 35.8072 49.7758C35.8099 48.5169 36.8288 47.4944 38.0878 47.4944C39.3467 47.4944 40.3683 48.5169 40.3683 49.7758C40.3683 51.0339 39.3467 52.0564 38.0878 52.0564ZM44.5068 46.913C43.6581 43.1989 40.3321 40.4323 36.3621 40.4323C32.4116 40.4323 29.1059 43.1698 28.2343 46.8539C28.0834 47.475 28.0049 48.1252 28.0049 48.793C28.0014 53.4106 31.8046 55.1688 36.4221 55.1688C41.0397 55.1688 44.7229 53.4106 44.7229 48.793C44.7229 48.1455 44.6506 47.5174 44.5068 46.913Z" fill="white"/>
<path fill-rule="evenodd" clip-rule="evenodd" d="M28.2349 47.5659C29.1056 43.8817 32.4122 41.1442 36.3628 41.1442C40.3328 41.1442 43.6587 43.9108 44.5065 47.625C44.6256 48.1243 44.6936 48.6395 44.7139 49.168C44.7192 49.0436 44.7236 48.9183 44.7236 48.793C44.7236 48.1455 44.6512 47.5174 44.5065 46.913C43.6587 43.1989 40.3328 40.4323 36.3628 40.4323C32.4122 40.4323 29.1056 43.1698 28.2349 46.8539C28.084 47.475 28.0046 48.1261 28.0046 48.793C28.0046 48.9236 28.0082 49.0524 28.0143 49.1812C28.0355 48.6281 28.1079 48.0864 28.2349 47.5659Z" fill="black"/>
<path fill-rule="evenodd" clip-rule="evenodd" d="M48.4265 47.5452C49.2973 43.8611 52.6039 41.1236 56.5544 41.1236C60.5244 41.1236 63.8504 43.8902 64.6982 47.6044C64.8173 48.1037 64.8852 48.6189 64.9055 49.1474C64.9108 49.023 64.9152 48.8977 64.9152 48.7724C64.9152 48.1249 64.8429 47.4967 64.6982 46.8924C63.8504 43.1783 60.5244 40.4116 56.5544 40.4116C52.6039 40.4116 49.2973 43.1491 48.4265 46.8333C48.2757 47.4544 48.1963 48.1055 48.1963 48.7724C48.1963 48.903 48.1998 49.0318 48.206 49.1606C48.2272 48.6074 48.2995 48.0658 48.4265 47.5452Z" fill="black"/>
<path fill-rule="evenodd" clip-rule="evenodd" d="M54.2085 65.1598C52.6752 65.2145 50.7026 64.5573 49.1693 64.5573C47.6854 64.5573 47.4816 65.3751 46.677 65.4289C45.8724 65.3751 45.6678 64.5573 44.1847 64.5573C42.6506 64.5573 40.6788 65.2145 39.1455 65.1598L40.1856 65.7077L46.6611 66.8404C46.6611 66.8413 46.6611 66.8457 46.6611 66.8457L46.677 66.8431L46.692 66.8457C46.692 66.8457 46.6929 66.8413 46.6929 66.8404L53.1675 65.7077L54.2085 65.1598Z" fill="#E05934"/>
<path fill-rule="evenodd" clip-rule="evenodd" d="M72.978 98.0802C78.4045 94.6607 77.6829 89.0957 76.6577 85.8712C76.2387 84.5523 75.4359 83.4036 74.4601 82.4217C73.3415 81.2942 72.6489 79.746 72.6489 78.0318C72.6489 77.244 72.8016 76.4923 73.068 75.798C72.5148 75.2828 71.8823 74.7958 71.1756 74.3512L70.7416 74.0786L70.2308 73.8095C69.6847 73.5228 69.1368 73.2766 68.596 73.0737C64.2899 77.8342 56.7761 80.9899 48.2194 80.9899H46.5794C38.0227 80.9899 30.5089 77.8342 26.2028 73.0737C25.662 73.2766 25.1141 73.5228 24.568 73.8095L24.0563 74.0786L23.6232 74.3512C22.9165 74.7958 22.2831 75.2828 21.7299 75.798C21.9972 76.4923 22.149 77.244 22.149 78.0318C22.149 80.2779 20.9597 82.2417 19.1794 83.3419C19.1794 83.3419 13.8235 93.041 21.8208 98.0802C18.1622 102.574 16.9015 108.046 17.1732 117.403H17.1662V120.949H17.3347H17.467H18.9571C19.9505 120.949 19.4494 120.37 18.9897 119.857C18.4278 119.228 18.6924 118.797 19.1891 118.797H20.6783H20.8106H22.3007C22.7974 118.797 23.0621 119.228 22.4992 119.857C22.0396 120.37 21.5394 120.949 22.5318 120.949H24.0219H24.1542H25.6443C26.6368 120.949 26.1366 120.37 25.677 119.857C25.1141 119.228 25.3788 118.797 25.8755 118.797H27.3655H27.4979H28.9879C29.4837 118.797 29.7493 119.228 29.1864 119.857C28.7268 120.37 28.2257 120.949 29.2191 120.949H30.7091H30.8415H32.3307C33.324 120.949 32.8238 120.37 32.3642 119.857C31.8013 119.228 32.066 118.797 32.5627 118.797H34.0527H34.1851H35.6743C36.1709 118.797 36.4356 119.228 35.8728 119.857C35.414 120.37 34.9129 120.949 35.9063 120.949H37.3955H37.5287H39.0179C40.0112 120.949 39.5101 120.37 39.0514 119.857C38.4885 119.228 38.7532 118.797 39.2499 118.797H40.8052H40.8714H42.4276C42.9243 118.797 43.189 119.228 42.6261 119.857C42.1674 120.37 41.6663 120.949 42.6597 120.949H44.1489H44.2812H45.7713C46.7646 120.949 46.2635 120.37 45.8039 119.857C45.2419 119.228 45.5066 118.797 46.0033 118.797H47.4925H47.6248H49.1149C49.6116 118.797 49.8762 119.228 49.3134 119.857C48.8537 120.37 48.3535 120.949 49.3469 120.949H50.8361H50.9684H52.4585C53.451 120.949 52.9508 120.37 52.4911 119.857C51.9283 119.228 52.1938 118.797 52.6896 118.797H54.1797H54.312H55.8021C56.2979 118.797 56.5634 119.228 56.0006 119.857C55.5409 120.37 55.0407 120.949 56.0332 120.949H57.5233H57.6556H59.1448C60.1382 120.949 59.638 120.37 59.1783 119.857C58.6155 119.228 58.8801 118.797 59.3768 118.797H60.8669H60.9992H62.4884C62.9851 118.797 63.2498 119.228 62.6878 119.857C62.2282 120.37 61.7271 120.949 62.7204 120.949H64.2105H64.3428H65.832C66.8254 120.949 66.3243 120.37 65.8656 119.857C65.3027 119.228 65.5674 118.797 66.0641 118.797H67.4209H67.6865H69.0433C69.54 118.797 69.8047 119.228 69.2418 119.857C68.7822 120.37 68.282 120.949 69.2753 120.949H70.7645H70.8968H72.3869C73.3803 120.949 72.8792 120.37 72.4196 119.857C71.8576 119.228 72.1222 118.797 72.6189 118.797H74.1081H74.2405H75.7305C76.2272 118.797 76.4919 119.228 75.929 119.857C75.4694 120.37 74.9692 120.949 75.9617 120.949H77.4517H77.5841H77.5867V118.549C77.9978 108.587 76.7839 102.756 72.978 98.0802Z" fill="white"/>
<path fill-rule="evenodd" clip-rule="evenodd" d="M72.978 98.0802C78.4045 94.6607 77.6829 89.0957 76.6577 85.8712C76.2387 84.5523 75.4359 83.4036 74.4601 82.4217C73.3415 81.2942 72.6489 79.746 72.6489 78.0318C72.6489 77.244 72.8016 76.4923 73.068 75.798C72.5148 75.2828 71.8823 74.7958 71.1756 74.3512L70.7416 74.0786L70.2308 73.8095C69.6847 73.5228 69.1368 73.2766 68.596 73.0737C64.2899 77.8342 56.7761 80.9899 48.2194 80.9899H46.5794C38.0227 80.9899 30.5089 77.8342 26.2028 73.0737C25.662 73.2766 25.1141 73.5228 24.568 73.8095L24.0563 74.0786L23.6232 74.3512C22.9165 74.7958 22.2831 75.2828 21.7299 75.798C21.9972 76.4923 22.149 77.244 22.149 78.0318C22.149 80.2779 20.9597 82.2417 19.1794 83.3419C19.1794 83.3419 13.8235 93.041 21.8208 98.0802C18.1622 102.574 16.9015 108.046 17.1732 117.403H17.1662V120.949H17.3347H17.467H18.9571C19.9505 120.949 19.4494 120.37 18.9897 119.857C18.4278 119.228 18.6924 118.797 19.1891 118.797H20.6783H20.8106H22.3007C22.7974 118.797 23.0621 119.228 22.4992 119.857C22.0396 120.37 21.5394 120.949 22.5318 120.949H24.0219H24.1542H25.6443C26.6368 120.949 26.1366 120.37 25.677 119.857C25.1141 119.228 25.3788 118.797 25.8755 118.797H27.3655H27.4979H28.9879C29.4837 118.797 29.7493 119.228 29.1864 119.857C28.7268 120.37 28.2257 120.949 29.2191 120.949H30.7091H30.8415H32.3307C33.324 120.949 32.8238 120.37 32.3642 119.857C31.8013 119.228 32.066 118.797 32.5627 118.797H34.0527H34.1851H35.6743C36.171 118.797 36.4356 119.228 35.8728 119.857C35.414 120.37 34.9129 120.949 35.9063 120.949H37.3955H37.5287H39.0179C40.0112 120.949 39.5101 120.37 39.0514 119.857C38.4885 119.228 38.7532 118.797 39.2499 118.797H40.8052H40.8714H42.4276C42.9243 118.797 43.189 119.228 42.6261 119.857C42.1674 120.37 41.6663 120.949 42.6597 120.949H44.1489H44.2812H45.7713C46.7646 120.949 46.2635 120.37 45.8039 119.857C45.2419 119.228 45.5066 118.797 46.0033 118.797H47.4925H47.6248H49.1149C49.6116 118.797 49.8762 119.228 49.3134 119.857C48.8537 120.37 48.3535 120.949 49.3469 120.949H50.8361H50.9684H52.4585C53.451 120.949 52.9508 120.37 52.4911 119.857C51.9283 119.228 52.1938 118.797 52.6896 118.797H54.1797H54.312H55.8021C56.2979 118.797 56.5634 119.228 56.0006 119.857C55.5409 120.37 55.0407 120.949 56.0332 120.949H57.5233H57.6556H59.1448C60.1382 120.949 59.638 120.37 59.1783 119.857C58.6155 119.228 58.8801 118.797 59.3768 118.797H60.8669H60.9992H62.4884C62.9851 118.797 63.2498 119.228 62.6878 119.857C62.2282 120.37 61.7271 120.949 62.7204 120.949H64.2105H64.3428H65.832C66.8254 120.949 66.3243 120.37 65.8656 119.857C65.3027 119.228 65.5674 118.797 66.0641 118.797H67.4209H67.6865H69.0433C69.54 118.797 69.8047 119.228 69.2418 119.857C68.7822 120.37 68.282 120.949 69.2753 120.949H70.7645H70.8968H72.3869C73.3803 120.949 72.8792 120.37 72.4196 119.857C71.8576 119.228 72.1222 118.797 72.6189 118.797H74.1081H74.2405H75.7305C76.2272 118.797 76.4919 119.228 75.929 119.857C75.4694 120.37 74.9692 120.949 75.9617 120.949H77.4517H77.5841H77.5867V118.549C77.9978 108.587 76.7839 102.756 72.978 98.0802Z" stroke="#020202" stroke-width="0.542017"/>
<path fill-rule="evenodd" clip-rule="evenodd" d="M24.4651 78.799C22.968 78.799 21.5282 78.3403 20.3019 77.4739L20.0293 77.2816L20.2251 77.0125C21.0174 75.9239 22.1369 74.9075 23.4638 74.073L23.8969 73.8004L24.4298 73.5189C25.1647 73.1325 25.904 72.8176 26.6274 72.582L27.1426 72.4144L27.4593 72.3385L28.1166 72.1683L28.878 72.0597C29.14 72.0236 29.402 71.998 29.657 71.9839L29.724 71.9803L29.7875 72.0033C30.2833 72.1833 30.8012 72.3518 31.3393 72.5106L31.6243 72.5935L31.5705 72.8846C30.9388 76.312 27.9507 78.799 24.4651 78.799Z" fill="white"/>
<path fill-rule="evenodd" clip-rule="evenodd" d="M29.7731 71.6482L29.6382 71.6561C29.3735 71.6702 29.1018 71.6976 28.8327 71.7347L28.1084 71.8361L28.0713 71.8414L28.0352 71.8502L27.37 72.0223L27.0938 72.0867L27.0674 72.0928L27.0409 72.1017L26.5257 72.2693C25.7855 72.5101 25.0294 72.833 24.2769 73.2282L23.7661 73.4964L23.7432 73.5088L23.722 73.522L23.2879 73.7946C21.9267 74.6513 20.7754 75.6976 19.9593 76.8189L19.5676 77.3579L20.112 77.7426C21.3947 78.6486 22.8998 79.1276 24.4648 79.1276C28.1093 79.1276 31.2332 76.5277 31.8931 72.9451L32.0007 72.3619L31.4326 72.1952C30.8927 72.0364 30.3775 71.8679 29.9002 71.6941L29.7731 71.6482ZM29.6752 72.3116C30.1772 72.4951 30.7021 72.6654 31.2473 72.826C30.6554 76.0363 27.8473 78.4704 24.4648 78.4704C22.9845 78.4704 21.6153 78.0002 20.4913 77.2062C21.2491 76.1643 22.3149 75.1841 23.6382 74.3513L24.0722 74.0787L24.583 73.8096C25.302 73.432 26.0237 73.1241 26.7295 72.8939L27.2438 72.7263L27.5341 72.6583L28.1993 72.4872L28.9236 72.3857C29.1768 72.3504 29.4291 72.3257 29.6752 72.3116Z" fill="#020202"/>
<path fill-rule="evenodd" clip-rule="evenodd" d="M22.6575 76.4437C22.6575 76.4437 22.7783 76.4631 22.9909 76.4975C23.1965 76.5089 23.4779 76.516 23.8273 76.4878C24.1714 76.4631 24.5701 76.4084 24.9865 76.3246C25.4012 76.2381 25.8405 76.1322 26.2525 75.977C26.6733 75.8367 27.0518 75.6329 27.3897 75.4273C27.7179 75.2077 27.9887 74.9633 28.1775 74.7075C28.2948 74.5901 28.3363 74.4481 28.4148 74.3352C28.4916 74.2196 28.5278 74.1058 28.5613 74.0105C28.6389 73.8155 28.683 73.7035 28.683 73.7035L28.7924 73.7061C28.7924 73.7061 28.8154 73.8252 28.8365 74.0502C28.8489 74.1631 28.8648 74.3034 28.8268 74.4587C28.7968 74.6131 28.7889 74.808 28.6945 74.9845C28.6195 75.1733 28.5269 75.3771 28.3778 75.5544C28.2507 75.7555 28.0699 75.9161 27.8802 76.082C27.6923 76.246 27.4726 76.381 27.2459 76.5028C27.0147 76.613 26.7827 76.7348 26.5339 76.7983C26.047 76.9659 25.5414 77.0356 25.0712 77.0603C24.5992 77.0744 24.159 77.04 23.7902 76.9545C23.425 76.8795 23.1233 76.7498 22.9283 76.6439C22.751 76.5248 22.6575 76.4437 22.6575 76.4437Z" fill="#D1D1D1"/>
<path fill-rule="evenodd" clip-rule="evenodd" d="M69.8889 78.799C66.4033 78.799 63.4152 76.312 62.7836 72.8846L62.7297 72.5935L63.0147 72.5106C63.552 72.3518 64.0707 72.1833 64.5665 72.0033L64.63 71.9803L64.6971 71.9839C64.952 71.998 65.2141 72.0236 65.4761 72.0597L66.2004 72.1612L66.9017 72.3403L67.1849 72.4065L67.7257 72.5811C68.4492 72.8176 69.1893 73.1325 69.9242 73.5189L70.435 73.788L70.8903 74.073C71.9719 74.754 72.8964 75.5348 73.6375 76.3941C73.8342 76.6217 73.9163 76.9217 73.8633 77.2154C73.8113 77.5074 73.6313 77.7571 73.3711 77.9009C72.3089 78.4885 71.1038 78.799 69.8889 78.799Z" fill="white"/>
<path fill-rule="evenodd" clip-rule="evenodd" d="M64.5809 71.6482L64.4538 71.6941C63.9766 71.8679 63.4613 72.0364 62.9214 72.1952L62.3533 72.3619L62.4609 72.9451C63.1208 76.5277 66.2447 79.1276 69.8892 79.1276C71.1596 79.1276 72.4185 78.803 73.5301 78.189C73.8777 77.9966 74.1177 77.6632 74.1874 77.2732C74.2571 76.8806 74.1477 76.4819 73.8865 76.1793C73.1234 75.2953 72.1741 74.4925 71.0661 73.7946L70.632 73.522L70.6108 73.5088L70.5879 73.4964L70.0771 73.2282C69.3254 72.833 68.5685 72.5101 67.8283 72.2693L67.3131 72.1017L67.2866 72.0928L67.2602 72.0867L66.9699 72.0187L66.3188 71.8502L66.2827 71.8414L66.2456 71.8361L65.5213 71.7347C65.2522 71.6976 64.9805 71.6702 64.7159 71.6561L64.5809 71.6482ZM64.6788 72.3116C64.9249 72.3257 65.1773 72.3504 65.4305 72.3857L66.1548 72.4872L66.8199 72.6583L67.1102 72.7263L67.6245 72.8939C68.3303 73.1241 69.052 73.432 69.771 73.8096L70.2818 74.0787L70.7158 74.3513C71.7833 75.0227 72.6832 75.7902 73.3889 76.6089C73.6624 76.9256 73.5786 77.4108 73.2125 77.6138C72.2262 78.1581 71.0952 78.4704 69.8892 78.4704C66.5068 78.4704 63.6987 76.0363 63.1067 72.826C63.6519 72.6654 64.1768 72.4951 64.6788 72.3116Z" fill="#020202"/>
<path fill-rule="evenodd" clip-rule="evenodd" d="M71.3533 76.4437C71.3533 76.4437 71.2598 76.5248 71.0825 76.6439C70.8875 76.7498 70.5858 76.8795 70.2205 76.9545C69.8518 77.04 69.4115 77.0744 68.9395 77.0603C68.4693 77.0356 67.9638 76.9659 67.4768 76.7983C67.228 76.7348 66.996 76.613 66.7649 76.5028C66.5381 76.381 66.3185 76.246 66.1306 76.082C65.9409 75.9161 65.76 75.7555 65.633 75.5544C65.4839 75.3771 65.3913 75.1733 65.3163 74.9845C65.2219 74.808 65.2139 74.6131 65.1839 74.4587C65.146 74.3034 65.1619 74.1631 65.1742 74.0502C65.1954 73.8252 65.2183 73.7061 65.2183 73.7061L65.3277 73.7035C65.3277 73.7035 65.3718 73.8155 65.4495 74.0105C65.483 74.1058 65.5192 74.2196 65.5959 74.3352C65.6744 74.4481 65.7159 74.5901 65.8332 74.7075C66.022 74.9633 66.2929 75.2077 66.6211 75.4273C66.959 75.6329 67.3374 75.8367 67.7582 75.977C68.1702 76.1322 68.6096 76.2381 69.0242 76.3246C69.4406 76.4084 69.8394 76.4631 70.1835 76.4878C70.5328 76.516 70.8143 76.5089 71.0198 76.4975C71.2324 76.4631 71.3533 76.4437 71.3533 76.4437Z" fill="#D1D1D1"/>
<path d="M21.8206 98.0801C26.1081 99.2852 57.5125 101.257 72.9778 98.0801" stroke="#020202" stroke-width="0.542017"/>
<path fill-rule="evenodd" clip-rule="evenodd" d="M18.3274 119.122C18.3274 119.122 18.3909 118.245 18.5268 116.927C18.6618 115.61 18.8779 113.856 19.207 112.122C19.5228 110.386 19.986 108.672 20.4985 107.449C20.6273 107.144 20.7658 106.873 20.8832 106.631C21.0217 106.402 21.1426 106.201 21.2422 106.036C21.4787 105.731 21.6137 105.557 21.6137 105.557C21.6137 105.557 21.4866 105.736 21.2661 106.051C21.1743 106.219 21.064 106.424 20.937 106.659C20.832 106.905 20.7076 107.179 20.5938 107.487C20.143 108.722 19.7636 110.439 19.5307 112.175C19.2855 113.909 19.1523 115.659 19.0799 116.971C19.0058 118.281 18.9838 119.161 18.9838 119.161L18.3274 119.122Z" fill="#020202"/>
<path fill-rule="evenodd" clip-rule="evenodd" d="M22.3835 119.004C22.3835 119.004 22.4391 116.802 22.6217 114.6C22.7126 113.5 22.8502 112.405 22.9923 111.59C23.1317 110.775 23.2596 110.24 23.2596 110.24C23.2596 110.24 23.1714 110.784 23.0946 111.604C23.0134 112.424 22.9588 113.52 22.9499 114.616C22.9323 116.809 23.0408 119.004 23.0408 119.004H22.3835Z" fill="#020202"/>
<path fill-rule="evenodd" clip-rule="evenodd" d="M25.0574 119.105C25.0574 119.105 25.0662 118.925 25.083 118.609C25.1059 118.285 25.1429 117.831 25.1976 117.293C25.3079 116.216 25.4553 114.783 25.6017 113.349C25.7349 111.916 25.8355 110.479 25.8337 109.4C25.8461 108.32 25.7146 107.608 25.7146 107.608C25.7146 107.608 25.8867 108.313 25.9369 109.398C26.0005 110.48 25.9811 111.927 25.9299 113.37C25.8646 114.81 25.7993 116.251 25.7508 117.331C25.7349 117.865 25.7208 118.311 25.712 118.622C25.7137 118.937 25.7146 119.117 25.7146 119.117L25.0574 119.105Z" fill="#020202"/>
<path fill-rule="evenodd" clip-rule="evenodd" d="M29.1826 119.3C29.1826 119.3 29.2188 118.395 29.2735 117.036C29.337 115.681 29.4235 113.878 29.4438 112.074C29.4658 110.27 29.3961 108.465 29.2047 107.125C29.1076 106.456 28.9718 105.909 28.858 105.53C28.7159 105.162 28.6348 104.951 28.6348 104.951C28.6348 104.951 28.7256 105.158 28.8853 105.521C29.0159 105.896 29.1773 106.439 29.3061 107.109C29.5602 108.446 29.712 110.258 29.7728 112.069C29.8346 113.881 29.8293 115.693 29.8275 117.049C29.8355 118.403 29.8399 119.305 29.8399 119.305L29.1826 119.3Z" fill="#020202"/>
<path fill-rule="evenodd" clip-rule="evenodd" d="M31.7502 119.185C31.7502 119.185 31.8182 116.53 32.0784 113.891C32.2064 112.571 32.3846 111.256 32.5778 110.28C32.763 109.303 32.9554 108.669 32.9554 108.669C32.9554 108.669 32.8027 109.314 32.6792 110.297C32.5478 111.278 32.4525 112.595 32.4066 113.913C32.3105 116.552 32.4075 119.187 32.4075 119.187L31.7502 119.185Z" fill="#020202"/>
<path fill-rule="evenodd" clip-rule="evenodd" d="M75.845 119.222C75.845 119.222 75.8732 118.245 75.9165 116.78C75.9474 115.319 75.9712 113.369 75.8053 111.429C75.7683 110.944 75.7189 110.461 75.6527 109.986C75.6033 109.51 75.5054 109.049 75.4321 108.598C75.336 108.154 75.2425 107.722 75.1295 107.32C74.9981 106.925 74.9099 106.536 74.7555 106.205C74.6161 105.868 74.4996 105.553 74.3426 105.301C74.1935 105.045 74.0912 104.802 73.9491 104.642C73.6915 104.3 73.5442 104.105 73.5442 104.105C73.5442 104.105 73.6995 104.295 73.9721 104.625C74.122 104.781 74.2341 105.019 74.3955 105.271C74.5649 105.519 74.6955 105.831 74.8508 106.165C75.0201 106.494 75.1251 106.881 75.2751 107.276C75.4066 107.677 75.5195 108.109 75.635 108.554C75.7277 109.005 75.8468 109.467 75.9174 109.946C76.0038 110.422 76.0744 110.908 76.1326 111.396C76.3814 113.346 76.4405 115.312 76.4714 116.781C76.4899 118.248 76.5023 119.226 76.5023 119.226L75.845 119.222Z" fill="#020202"/>
<path fill-rule="evenodd" clip-rule="evenodd" d="M71.6819 119C71.6819 119 71.6995 118.268 71.7992 117.172C71.9033 116.086 72.0409 114.638 72.1795 113.189C72.3065 111.743 72.3674 110.293 72.3418 109.204C72.3206 108.115 72.2297 107.392 72.2297 107.392C72.2297 107.392 72.3612 108.108 72.4441 109.2C72.5323 110.289 72.5526 111.75 72.5076 113.207C72.4512 114.661 72.3956 116.114 72.3533 117.205C72.3162 118.286 72.3391 119.009 72.3391 119.009L71.6819 119Z" fill="#020202"/>
<path fill-rule="evenodd" clip-rule="evenodd" d="M69.1624 119.233L69.3811 110.788L69.8196 119.214L69.1624 119.233Z" fill="#020202"/>
<path fill-rule="evenodd" clip-rule="evenodd" d="M65.3142 119.143C65.3142 119.143 65.3301 118.309 65.353 117.057C65.3786 115.804 65.4227 114.133 65.5065 112.464C65.5895 110.795 65.7139 109.127 65.8797 107.884C66.0315 106.637 66.2591 105.831 66.2591 105.831C66.2591 105.831 66.072 106.647 65.982 107.894C65.8771 109.14 65.8365 110.807 65.8356 112.473C65.8338 114.139 65.8718 115.805 65.9079 117.055C65.9459 118.306 65.9715 119.141 65.9715 119.141L65.3142 119.143Z" fill="#020202"/>
<path fill-rule="evenodd" clip-rule="evenodd" d="M62.6851 119.302C62.6851 119.302 62.7142 118.393 62.8006 117.043C62.8809 115.692 62.9947 113.894 63.0565 112.094C63.1191 110.295 63.1271 108.493 63.0327 107.146C62.9832 106.473 62.9038 105.916 62.8342 105.528C62.7398 105.146 62.6851 104.927 62.6851 104.927C62.6851 104.927 62.7495 105.143 62.8624 105.522C62.9497 105.907 63.0538 106.463 63.135 107.136C63.2911 108.484 63.3652 110.292 63.3847 112.098C63.4058 113.905 63.3741 115.711 63.3555 117.063C63.33 118.416 63.3423 119.309 63.3423 119.309L62.6851 119.302Z" fill="#020202"/>
<path fill-rule="evenodd" clip-rule="evenodd" d="M58.6179 119.182C58.6179 119.182 58.7026 116.622 58.8905 114.072C58.984 112.797 59.0987 111.523 59.2231 110.572C59.3413 109.619 59.4807 108.994 59.4807 108.994C59.4807 108.994 59.3819 109.626 59.3255 110.581C59.2619 111.535 59.2302 112.811 59.2187 114.085C59.1958 116.638 59.2752 119.184 59.2752 119.184L58.6179 119.182Z" fill="#020202"/>
<path fill-rule="evenodd" clip-rule="evenodd" d="M55.9477 119.137C55.9477 119.137 55.9583 118.914 55.976 118.524C56.0007 118.135 56.0342 117.578 56.0756 116.91C56.1595 115.581 56.26 113.809 56.2883 112.036C56.3191 110.264 56.2768 108.487 56.103 107.168C56.0509 106.841 56.0262 106.534 55.9627 106.272C55.9018 106.009 55.8648 105.775 55.8074 105.59C55.6875 105.221 55.6187 105.009 55.6187 105.009C55.6187 105.009 55.6972 105.218 55.8339 105.582C55.901 105.765 55.9486 105.997 56.0218 106.259C56.0986 106.521 56.1365 106.826 56.2044 107.153C56.44 108.471 56.5662 110.253 56.6173 112.034C56.6703 113.815 56.6526 115.597 56.6297 116.932C56.62 117.597 56.6111 118.151 56.605 118.538C56.605 118.925 56.605 119.147 56.605 119.147L55.9477 119.137Z" fill="#020202"/>
<path fill-rule="evenodd" clip-rule="evenodd" d="M51.9626 119.142C51.9626 119.142 51.9803 118.544 52.0076 117.646C52.0359 116.747 52.0773 115.546 52.1664 114.347C52.252 113.149 52.3852 111.953 52.5546 111.067C52.7143 110.179 52.9075 109.611 52.9075 109.611C52.9075 109.611 52.7531 110.191 52.6561 111.082C52.5484 111.972 52.4982 113.166 52.4946 114.36C52.4884 115.554 52.529 116.748 52.5617 117.644C52.597 118.542 52.6199 119.141 52.6199 119.141L51.9626 119.142Z" fill="#020202"/>
<path fill-rule="evenodd" clip-rule="evenodd" d="M49.2922 119.18C49.2922 119.18 49.3346 118.226 49.399 116.796C49.4687 115.37 49.5587 113.471 49.5842 111.569C49.6081 109.669 49.5604 107.767 49.3857 106.353C49.3019 105.645 49.1696 105.066 49.0505 104.667C48.9032 104.281 48.7991 104.064 48.7991 104.064C48.7991 104.064 48.912 104.274 49.077 104.658C49.2137 105.053 49.3725 105.63 49.4872 106.338C49.7245 107.751 49.8542 109.659 49.9133 111.567C49.9689 113.474 49.9618 115.382 49.953 116.811C49.9513 118.236 49.9495 119.186 49.9495 119.186L49.2922 119.18Z" fill="#020202"/>
<path fill-rule="evenodd" clip-rule="evenodd" d="M45.2253 119.09C45.2253 119.09 45.2333 118.887 45.265 118.52C45.3003 118.145 45.3621 117.629 45.4468 117.014C45.6197 115.787 45.8508 114.152 46.082 112.516C46.2999 110.881 46.4807 109.241 46.5266 108.006C46.5513 107.389 46.5328 106.874 46.5037 106.514C46.4481 106.158 46.4163 105.954 46.4163 105.954C46.4163 105.954 46.4587 106.157 46.5319 106.511C46.5787 106.87 46.6237 107.386 46.629 108.007C46.6448 109.249 46.5451 110.903 46.4093 112.551C46.2593 114.196 46.1102 115.841 45.9982 117.074C45.9435 117.69 45.9091 118.202 45.8932 118.547C45.8799 118.901 45.8826 119.111 45.8826 119.111L45.2253 119.09Z" fill="#020202"/>
<path fill-rule="evenodd" clip-rule="evenodd" d="M42.4727 119.308C42.4727 119.308 42.4815 118.439 42.4947 117.136C42.5062 115.83 42.53 114.089 42.5918 112.347C42.6526 110.606 42.7514 108.866 42.8997 107.567C43.0311 106.265 43.2534 105.42 43.2534 105.42C43.2534 105.42 43.0717 106.274 43.002 107.576C42.9155 108.876 42.8988 110.614 42.9208 112.352C42.9411 114.089 42.9993 115.825 43.0496 117.128C43.0973 118.434 43.1299 119.304 43.1299 119.304L42.4727 119.308Z" fill="#020202"/>
<path fill-rule="evenodd" clip-rule="evenodd" d="M38.4878 119.016C38.4878 119.016 38.5593 116.401 38.9077 113.818C39.0789 112.527 39.3109 111.242 39.5597 110.297C39.8014 109.35 40.0493 108.748 40.0493 108.748C40.0493 108.748 39.8402 109.365 39.6603 110.32C39.4723 111.273 39.3233 112.561 39.235 113.851C39.0524 116.438 39.145 119.02 39.145 119.02L38.4878 119.016Z" fill="#020202"/>
<path fill-rule="evenodd" clip-rule="evenodd" d="M35.8177 119.236C35.8177 119.236 35.8204 119.016 35.793 118.669C35.763 118.304 35.7215 117.782 35.6704 117.156C35.5627 115.895 35.4242 114.209 35.351 112.52C35.2769 110.831 35.2857 109.136 35.4004 107.872C35.4481 107.241 35.5363 106.717 35.6086 106.356C35.6889 105.996 35.7357 105.79 35.7357 105.79C35.7357 105.79 35.6995 105.998 35.636 106.361C35.5822 106.725 35.5195 107.249 35.5028 107.879C35.4498 109.14 35.5239 110.823 35.6792 112.498C35.8336 114.174 36.0533 115.842 36.2218 117.096C36.3038 117.728 36.3726 118.253 36.4203 118.622C36.4679 119.009 36.475 119.211 36.475 119.211L35.8177 119.236Z" fill="#020202"/>
<path fill-rule="evenodd" clip-rule="evenodd" d="M32.9071 82.832C32.9071 82.832 33.0024 82.9079 33.1806 83.0491C33.357 83.2052 33.6287 83.364 33.9719 83.5793C34.331 83.7857 34.7783 84.016 35.312 84.2418C35.8493 84.4615 36.4624 84.6909 37.1505 84.892C37.8299 85.1179 38.5842 85.3128 39.3843 85.5025C40.1871 85.6869 41.0402 85.8527 41.9286 85.9913C42.817 86.128 43.7372 86.2603 44.6768 86.3618C45.6154 86.4641 46.5726 86.5347 47.5299 86.5903C48.4879 86.6467 49.4469 86.6662 50.3891 86.66C51.3322 86.652 52.2603 86.6344 53.154 86.5673C54.9414 86.4491 56.6052 86.24 57.9947 85.9083C59.386 85.5881 60.5082 85.1637 61.2492 84.7685C61.6154 84.5656 61.9003 84.3944 62.0812 84.2568C62.27 84.1271 62.3697 84.0574 62.3697 84.0574C62.3697 84.0574 62.2858 84.1457 62.127 84.3106C61.9771 84.4871 61.7256 84.7129 61.3798 84.9732C60.6934 85.4955 59.6004 86.1174 58.1897 86.5938C57.483 86.8214 56.7076 87.0411 55.8756 87.2078C55.0428 87.3693 54.1588 87.5166 53.2396 87.6013C51.4001 87.7927 49.4301 87.798 47.469 87.6931C46.4879 87.6454 45.5105 87.5457 44.5524 87.4266C43.5934 87.304 42.6521 87.1646 41.7504 86.9732C40.8479 86.7914 39.9816 86.5815 39.1673 86.3556C38.3539 86.1245 37.589 85.8898 36.8965 85.6251C36.2057 85.3614 35.5881 85.072 35.0491 84.8003C34.5127 84.5206 34.0628 84.2409 33.7037 83.993C33.3499 83.7248 33.072 83.5025 32.923 83.3384C32.7615 83.1779 32.675 83.0923 32.675 83.0923L32.9071 82.832Z" fill="#D1D1D1"/>
<path fill-rule="evenodd" clip-rule="evenodd" d="M37.1562 95.5887C37.1562 95.5887 38.2467 95.0656 39.9679 94.6051C40.828 94.3722 41.8417 94.1366 42.9463 93.9787C44.0481 93.8075 45.2365 93.7008 46.4275 93.6293C47.6194 93.5738 48.8174 93.5685 49.9361 93.6505C51.0556 93.7317 52.0966 93.8711 52.9727 94.0775C53.8487 94.2698 54.5624 94.4992 55.0441 94.6968C55.5232 94.898 55.7967 95.0126 55.7967 95.0126C55.7967 95.0126 55.5046 94.965 54.9938 94.8821C54.7433 94.8274 54.4336 94.7903 54.0772 94.7577C53.7243 94.7127 53.3282 94.6633 52.8897 94.6492C52.4548 94.6157 51.9837 94.5883 51.4835 94.5901C50.9859 94.5751 50.4592 94.5883 49.9158 94.5954C48.8289 94.6404 47.6705 94.6889 46.5157 94.8221C45.3574 94.9121 44.2069 95.0894 43.1236 95.2244C42.0411 95.3717 41.0265 95.4952 40.1496 95.579C38.4002 95.7678 37.1907 95.7519 37.1907 95.7519L37.1562 95.5887Z" fill="#D1D1D1"/>
<path fill-rule="evenodd" clip-rule="evenodd" d="M46.7864 96.4643C46.7864 96.4643 46.9725 96.437 47.2972 96.3893C47.6236 96.3549 48.1 96.3293 48.6629 96.3293C49.7912 96.3355 51.2769 96.4784 52.7431 96.5993C53.4762 96.669 54.2067 96.7096 54.8887 96.7546C55.5715 96.8013 56.2076 96.8384 56.7563 96.8631C57.3051 96.8913 57.7691 96.9178 58.0964 96.9248C58.4237 96.9337 58.6178 96.9575 58.6178 96.9575C58.6178 96.9575 58.4458 97.0404 58.1317 97.1533C57.8194 97.2786 57.358 97.3968 56.7951 97.5001C56.2323 97.5909 55.5662 97.6571 54.8569 97.643C54.1467 97.643 53.396 97.5671 52.6514 97.4806C51.1613 97.2927 49.7074 96.9937 48.6179 96.781C47.5336 96.5631 46.7864 96.4643 46.7864 96.4643Z" fill="#D1D1D1"/>
<path fill-rule="evenodd" clip-rule="evenodd" d="M44.4858 84.3863C44.4858 84.3863 44.7364 84.3563 45.1713 84.3457C45.6001 84.3095 46.2123 84.2583 46.9472 84.1966C48.4091 84.0475 50.3588 83.8984 52.2829 83.5693C53.2507 83.4317 54.1982 83.2067 55.0919 83.0179C55.9776 82.8009 56.7963 82.5636 57.4774 82.3086C57.8215 82.1895 58.1382 82.0801 58.4055 81.954C58.6746 81.8331 58.9198 81.7414 59.0998 81.632C59.4791 81.4361 59.6962 81.325 59.6962 81.325L59.84 81.5323C59.84 81.5323 59.6379 81.6814 59.2842 81.9425C59.1077 82.0792 58.8713 82.2001 58.6066 82.358C58.3446 82.5212 58.0341 82.6712 57.6944 82.8353C57.0107 83.1591 56.1805 83.4485 55.2851 83.7334C54.8334 83.8587 54.3693 84.0087 53.8859 84.1039C53.4068 84.2169 52.9163 84.3174 52.424 84.403C51.4386 84.5662 50.4479 84.7056 49.5136 84.7612C48.5802 84.8406 47.7024 84.8177 46.9543 84.7806C46.207 84.7374 45.5824 84.635 45.1528 84.5495C44.7267 84.4604 44.4858 84.3863 44.4858 84.3863Z" fill="#D1D1D1"/>
<path fill-rule="evenodd" clip-rule="evenodd" d="M22.2613 34.4479H28.0169C28.7023 32.2944 29.1593 29.6407 29.4372 27.4192C29.4372 27.4192 30.7412 31.4024 30.6591 34.4479H35.4663C36.1518 32.2944 36.6097 29.6407 36.8867 27.4192C36.8867 27.4192 38.1906 31.4024 38.1086 34.4479H55.2968C55.2148 31.4024 56.5187 27.4192 56.5187 27.4192C56.7966 29.6407 57.2536 32.2944 57.9391 34.4479H62.7463C62.6642 31.4024 63.9682 27.4192 63.9682 27.4192C64.2461 29.6407 64.703 32.2944 65.3885 34.4479H71.1468C73.9381 34.4479 76.201 32.185 76.201 29.3936C76.201 13.8939 63.6356 1.32849 48.1359 1.32849H45.2731C29.7725 1.32849 17.207 13.8939 17.207 29.3936C17.207 32.185 19.4699 34.4479 22.2613 34.4479Z" fill="#3F3F3F"/>
<path fill-rule="evenodd" clip-rule="evenodd" d="M22.2613 34.4479H28.0169C28.7023 32.2944 29.1593 29.6407 29.4372 27.4192C29.4372 27.4192 30.7412 31.4024 30.6591 34.4479H35.4663C36.1518 32.2944 36.6097 29.6407 36.8867 27.4192C36.8867 27.4192 38.1906 31.4024 38.1086 34.4479H55.2968C55.2148 31.4024 56.5187 27.4192 56.5187 27.4192C56.7966 29.6407 57.2536 32.2944 57.9391 34.4479H62.7463C62.6642 31.4024 63.9682 27.4192 63.9682 27.4192C64.2461 29.6407 64.703 32.2944 65.3885 34.4479H71.1468C73.9381 34.4479 76.201 32.185 76.201 29.3936C76.201 13.8939 63.6356 1.32849 48.1359 1.32849H45.2731C29.7725 1.32849 17.207 13.8939 17.207 29.3936C17.207 32.185 19.4699 34.4479 22.2613 34.4479Z" stroke="#020202" stroke-width="0.802017"/>
<path fill-rule="evenodd" clip-rule="evenodd" d="M69.6474 18.201C69.6359 17.9399 69.5935 17.6725 69.5653 17.392C69.53 17.1132 69.5106 16.8186 69.4559 16.5239C69.4065 16.2266 69.3562 15.9213 69.305 15.609C69.2512 15.2967 69.1727 14.9827 69.1057 14.6589C69.0695 14.4966 69.0342 14.3333 68.998 14.1692C68.9539 14.0069 68.9098 13.8428 68.8657 13.6787C68.7731 13.3505 68.6919 13.0118 68.5843 12.6792C68.4749 12.3457 68.3646 12.0096 68.2534 11.6726C68.1423 11.3338 68.002 11.0065 67.8759 10.6704L67.68 10.1675L67.4612 9.67699C67.3836 9.5076 67.3077 9.33645 67.2318 9.16618C62.2235 4.50895 55.5151 1.65674 48.1353 1.65674H45.2725C38.7679 1.65674 32.7838 3.87375 28.026 7.58878C27.8311 7.95313 27.6431 8.32808 27.4499 8.70126C27.292 9.01974 27.1526 9.35145 27.0035 9.67699L26.7847 10.1675L26.5889 10.6704C26.4627 11.0065 26.3225 11.3338 26.2113 11.6726C26.1001 12.0096 25.9899 12.3457 25.8805 12.6792C25.7728 13.0118 25.6917 13.3505 25.599 13.6787C25.5541 13.8428 25.5099 14.0069 25.4667 14.1692C25.4305 14.3333 25.3944 14.4966 25.3591 14.6589C25.292 14.9827 25.2135 15.2967 25.1597 15.609C25.1085 15.9213 25.0582 16.2266 25.0088 16.5239C24.9533 16.8186 24.9347 17.1132 24.8986 17.392C24.8712 17.6725 24.8289 17.9399 24.8174 18.201C24.7909 18.7233 24.7424 19.1935 24.7495 19.6161C24.7504 20.0378 24.7309 20.4004 24.7512 20.7021C24.7777 21.3002 24.7927 21.6416 24.7927 21.6416C24.7927 21.6416 24.8615 21.3082 24.9824 20.7241C25.0335 20.433 25.1421 20.0854 25.2417 19.6866C25.3344 19.287 25.4958 18.8477 25.6423 18.3686C25.7137 18.1286 25.8187 17.8852 25.9096 17.632C26.0093 17.3796 26.0931 17.1159 26.214 16.8547C26.3278 16.5927 26.4451 16.3236 26.5651 16.0493C26.6851 15.7758 26.8315 15.5049 26.9665 15.2279C27.0353 15.0894 27.1041 14.95 27.1738 14.8097C27.2514 14.673 27.3282 14.5354 27.4067 14.3969C27.5655 14.1216 27.712 13.8384 27.884 13.5649C28.0569 13.2941 28.2298 13.0206 28.4045 12.7453C28.5774 12.4719 28.7777 12.2125 28.9612 11.9469L29.2417 11.5517L29.5426 11.1715C29.7446 10.92 29.9352 10.666 30.1416 10.4251C30.5642 9.95136 30.9594 9.47849 31.3908 9.06032C31.6034 8.85035 31.7993 8.63421 32.011 8.441C32.2227 8.2478 32.4292 8.059 32.6312 7.8755C32.7309 7.78463 32.8297 7.69464 32.9268 7.60554C33.0291 7.52261 33.1297 7.44057 33.2294 7.3594C33.2426 7.34793 33.2549 7.33823 33.2682 7.32764C33.0423 7.94696 32.8835 8.61303 32.6947 9.2694C32.5483 9.95577 32.3754 10.6377 32.2792 11.3373C32.153 12.0272 32.0939 12.7277 32.0225 13.407C31.9881 14.0934 31.936 14.7603 31.9528 15.4088C31.9413 16.0546 31.9881 16.6783 32.0198 17.2632C32.0754 17.849 32.1266 18.3986 32.2051 18.9015C32.2898 19.4043 32.3498 19.8622 32.4468 20.2636C32.5377 20.665 32.5995 21.0135 32.6841 21.2967C32.8377 21.8604 32.9259 22.1824 32.9259 22.1824C32.9259 22.1824 32.9215 21.8498 32.9144 21.2676C32.9021 20.9791 32.9303 20.6253 32.9426 20.2239C32.9488 19.8243 33.0044 19.3717 33.0467 18.8838C33.0953 18.396 33.1808 17.8702 33.2682 17.3205C33.3793 16.7718 33.4826 16.1975 33.6449 15.6143C33.7799 15.0276 33.9854 14.4374 34.1698 13.8419C34.393 13.2526 34.5994 12.6571 34.8676 12.0837C35.105 11.5023 35.4128 10.9492 35.6828 10.4022C36.0004 9.87284 36.2748 9.34263 36.61 8.86711C36.7706 8.62627 36.9223 8.38719 37.0802 8.16046C37.2461 7.93902 37.4084 7.72199 37.5663 7.51114C37.8681 7.08327 38.2121 6.71803 38.498 6.36779C38.6418 6.18781 38.7865 6.03695 38.9241 5.89845C39.0229 5.79523 39.1138 5.70083 39.2055 5.60555C39.1579 5.80405 39.1093 6.00343 39.0688 6.20811C39.0132 6.5257 38.9567 6.85036 38.8985 7.18031C38.835 7.50673 38.7988 7.84462 38.7617 8.18516C38.7282 8.52569 38.6744 8.86535 38.6585 9.21294C38.6409 9.55789 38.6224 9.90548 38.6038 10.2548C38.5862 10.6024 38.6003 10.9544 38.5985 11.302L38.6021 11.8225L38.6329 12.3413C38.6576 12.6862 38.6656 13.0277 38.7053 13.3647C38.745 13.7008 38.7838 14.0343 38.8217 14.3633C38.8606 14.6906 38.9276 15.0126 38.9779 15.3276C39.0714 15.9584 39.2346 16.5565 39.3564 17.1212C39.5205 17.6805 39.6431 18.2107 39.8142 18.6853C39.9739 19.1626 40.116 19.5975 40.273 19.9734C40.4239 20.351 40.5438 20.68 40.67 20.942C40.9082 21.4687 41.0449 21.7696 41.0449 21.7696C41.0449 21.7696 40.9894 21.4449 40.8923 20.8776C40.8376 20.5971 40.805 20.2477 40.7556 19.8543C40.7 19.4617 40.6744 19.0126 40.6418 18.5283C40.5976 18.0457 40.6135 17.5155 40.5968 16.9668C40.6223 16.4118 40.6135 15.8349 40.6797 15.2394C40.7097 14.9421 40.7238 14.6412 40.767 14.3378C40.8094 14.036 40.8526 13.7308 40.8958 13.4229C40.9382 13.1176 41.0123 12.8115 41.0688 12.5063L41.1596 12.0484L41.2761 11.5958C41.3581 11.295 41.4216 10.9933 41.516 10.6995C41.6096 10.4066 41.7031 10.1163 41.7957 9.82697C41.8839 9.53936 42.0074 9.26323 42.1089 8.98798C42.2139 8.71361 42.3153 8.44365 42.4415 8.18692C42.5597 7.92931 42.6753 7.67612 42.7891 7.4291C42.9091 7.18472 43.0414 6.95358 43.1614 6.72597C43.2117 6.62451 43.2646 6.52659 43.3184 6.43042C44.1689 5.1812 45.5998 4.35809 47.2249 4.35809C48.9117 4.35809 50.3876 5.2456 51.224 6.57599C51.2504 6.62628 51.2778 6.6748 51.3034 6.72597C51.4225 6.95358 51.5557 7.18472 51.6757 7.4291C51.7886 7.67612 51.905 7.92931 52.0233 8.18692C52.1494 8.44365 52.25 8.71361 52.355 8.98798C52.4564 9.26323 52.5808 9.53936 52.669 9.82697C52.7617 10.1163 52.8552 10.4066 52.9487 10.6995C53.0422 10.9933 53.1066 11.295 53.1887 11.5958L53.3051 12.0484L53.396 12.5063C53.4525 12.8115 53.5257 13.1176 53.568 13.4229C53.6121 13.7308 53.6554 14.036 53.6977 14.3378C53.7409 14.6412 53.7551 14.9421 53.7842 15.2394C53.8512 15.8349 53.8424 16.4118 53.868 16.9668C53.8503 17.5155 53.8671 18.0457 53.823 18.5283C53.7903 19.0126 53.7648 19.4617 53.7083 19.8543C53.6598 20.2477 53.6271 20.5971 53.5716 20.8776C53.4754 21.4449 53.4198 21.7696 53.4198 21.7696C53.4198 21.7696 53.5557 21.4687 53.7939 20.942C53.9209 20.68 54.0409 20.351 54.1909 19.9734C54.3488 19.5975 54.4899 19.1626 54.6496 18.6853C54.8217 18.2107 54.9434 17.6805 55.1084 17.1212C55.2292 16.5565 55.3933 15.9584 55.4869 15.3276C55.5371 15.0126 55.6042 14.6906 55.643 14.3633C55.6809 14.0343 55.7198 13.7008 55.7595 13.3647C55.7983 13.0277 55.8071 12.6862 55.8318 12.3413L55.8627 11.8225L55.8662 11.302C55.8636 10.9544 55.8786 10.6024 55.8609 10.2548C55.8424 9.90548 55.8239 9.55789 55.8053 9.21294C55.7895 8.86535 55.7365 8.52569 55.703 8.18516C55.6659 7.84462 55.6298 7.50673 55.5654 7.18031C55.508 6.85036 55.4516 6.5257 55.396 6.20811C55.3545 6.00343 55.3069 5.80405 55.2592 5.60555C55.351 5.70083 55.4419 5.79523 55.5407 5.89845C55.6783 6.03695 55.823 6.18781 55.9668 6.36779C56.2517 6.71803 56.5967 7.08327 56.8975 7.51114C57.0554 7.72199 57.2178 7.93902 57.3836 8.16046C57.5424 8.38719 57.6933 8.62627 57.8547 8.86711C58.19 9.34263 58.4643 9.87284 58.7811 10.4022C59.0519 10.9492 59.3598 11.5023 59.5971 12.0837C59.8653 12.6571 60.0717 13.2526 60.2941 13.8419C60.4793 14.4374 60.6849 15.0276 60.8199 15.6143C60.9822 16.1975 61.0854 16.7718 61.1957 17.3205C61.2839 17.8702 61.3695 18.396 61.418 18.8838C61.4595 19.3717 61.5159 19.8243 61.5212 20.2239C61.5336 20.6253 61.5618 20.9791 61.5503 21.2676C61.5433 21.8498 61.5389 22.1824 61.5389 22.1824C61.5389 22.1824 61.6262 21.8604 61.7797 21.2967C61.8653 21.0135 61.9262 20.665 62.017 20.2636C62.1141 19.8622 62.175 19.4043 62.2596 18.9015C62.3373 18.3986 62.3885 17.849 62.444 17.2632C62.4767 16.6783 62.5234 16.0546 62.512 15.4088C62.5278 14.7603 62.4767 14.0934 62.4423 13.407C62.3699 12.7277 62.3117 12.0272 62.1847 11.3373C62.0894 10.6377 61.9165 9.95577 61.77 9.2694C61.5803 8.61303 61.4224 7.94696 61.1966 7.32764C61.2098 7.33823 61.2222 7.34793 61.2354 7.3594C61.3342 7.44057 61.4357 7.52261 61.538 7.60554C61.635 7.69464 61.7338 7.78463 61.8335 7.8755C62.0347 8.059 62.242 8.2478 62.4529 8.441C62.6655 8.63421 62.8613 8.85035 63.0739 9.06032C63.5053 9.47849 63.9006 9.95136 64.3232 10.4251C64.5287 10.666 64.7193 10.92 64.9222 11.1715L65.223 11.5517L65.5027 11.9469C65.6871 12.2125 65.8873 12.4719 66.0602 12.7453C66.234 13.0206 66.4078 13.2941 66.5799 13.5649C66.7519 13.8384 66.8984 14.1216 67.058 14.3969C67.1357 14.5354 67.2133 14.673 67.2901 14.8097C67.3606 14.95 67.4295 15.0894 67.4983 15.2279C67.6332 15.5049 67.7788 15.7758 67.8997 16.0493C68.0197 16.3236 68.1361 16.5927 68.2508 16.8547C68.3717 17.1159 68.4555 17.3796 68.5552 17.632C68.646 17.8852 68.751 18.1286 68.8225 18.3686C68.9689 18.8477 69.1295 19.287 69.223 19.6866C69.3218 20.0854 69.4303 20.433 69.4824 20.7241C69.6032 21.3082 69.6721 21.6416 69.6721 21.6416C69.6721 21.6416 69.687 21.3002 69.7126 20.7021C69.7338 20.4004 69.7144 20.0378 69.7153 19.6161C69.7223 19.1935 69.6738 18.7233 69.6474 18.201Z" fill="#797979"/>
<path fill-rule="evenodd" clip-rule="evenodd" d="M71.466 53.2857C71.466 53.2857 64.0131 55 47.1094 55C30.2065 55 21.8675 53.2857 21.8675 53.2857C20.652 53.2857 19.6667 52.3317 19.6667 51.1549V45.1309C19.6667 43.954 20.652 43 21.8675 43H71.466C72.6815 43 73.6667 43.954 73.6667 45.1309V51.1549C73.6667 52.3317 72.6815 53.2857 71.466 53.2857Z" fill="white"/>
<path d="M19.2591 51.2114C19.2591 52.63 20.3977 53.7826 21.8109 53.8053L21.8726 53.8177C21.9392 53.831 22.0384 53.8503 22.1702 53.8747C22.4338 53.9236 22.8276 53.9931 23.3522 54.0764C24.4014 54.2429 25.9736 54.4643 28.0722 54.6856C32.2694 55.1282 38.5724 55.5701 47.0089 55.5701C55.4459 55.5701 61.5291 55.1282 65.5072 54.6854C67.4963 54.464 68.9591 54.2423 69.9267 54.0755C70.4105 53.9921 70.7705 53.9224 71.0106 53.8733C71.1306 53.8488 71.2207 53.8294 71.2813 53.816C71.3003 53.8118 71.3164 53.8082 71.3296 53.8052C72.7406 53.78 73.8765 52.6284 73.8765 51.2114V45.0112C73.8765 43.5784 72.7151 42.417 71.2823 42.417H21.8534C20.4206 42.417 19.2591 43.5784 19.2591 45.0112V51.2114Z" stroke="#020202" stroke-width="0.802017"/>
<path fill-rule="evenodd" clip-rule="evenodd" d="M70.6667 108C71.1978 112.458 75.9262 116.042 81.4153 116.042C86.9054 116.042 91.6357 112.458 92.1667 108H70.6667Z" fill="#FFE251"/>
<path fill-rule="evenodd" clip-rule="evenodd" d="M89.2487 108.102C88.7617 112.188 84.9276 115.445 80.0657 115.962C80.5085 116.01 80.9576 116.042 81.4155 116.042C86.9055 116.042 91.4172 112.56 91.9492 108.102H89.2487Z" fill="#E7BD0A"/>
<path d="M81.1667 106V83.5" stroke="#A65C2B" stroke-linecap="round" stroke-linejoin="round"/>
<path d="M70.8291 106.338L81.4157 83.4001" stroke="#A65C2B" stroke-width="0.802017" stroke-linecap="round" stroke-linejoin="round"/>
<path d="M92.0024 106.338L81.4158 83.4001" stroke="#A65C2B" stroke-width="0.802017" stroke-linecap="round" stroke-linejoin="round"/>
<path fill-rule="evenodd" clip-rule="evenodd" d="M81.6667 85C81.1147 85 80.6667 84.552 80.6667 84C80.6667 83.448 81.1147 83 81.6667 83C82.2187 83 82.6667 83.448 82.6667 84C82.6667 84.552 82.2187 85 81.6667 85ZM80.6667 82C79.4827 81.957 78.6667 82.6408 78.6667 83C78.6667 84.3592 79.4827 85.0429 80.6667 85L95.6667 84V83L80.6667 82Z" fill="#7F5A40"/>
<path fill-rule="evenodd" clip-rule="evenodd" d="M120.167 108C119.636 112.458 115.136 116.042 109.647 116.042C104.157 116.042 99.6978 112.458 99.1667 108H120.167Z" fill="#FFE14B"/>
<path d="M110.167 106L109.647 83.4001" stroke="#A65C2B" stroke-linecap="round" stroke-linejoin="round"/>
<path d="M120.233 106.338L109.647 83.4001" stroke="#A65C2B" stroke-width="0.802017" stroke-linecap="round" stroke-linejoin="round"/>
<path d="M99.0601 106.338L109.647 83.4001" stroke="#A65C2B" stroke-width="0.802017" stroke-linecap="round" stroke-linejoin="round"/>
<path fill-rule="evenodd" clip-rule="evenodd" d="M109.667 85C109.115 85 108.667 84.552 108.667 84C108.667 83.448 109.115 83 109.667 83C110.219 83 110.667 83.448 110.667 84C110.667 84.552 110.219 85 109.667 85ZM110.667 82L95.6667 83V84L110.667 85C111.851 85.0429 112.667 84.3592 112.667 83C112.667 82.6408 111.851 81.957 110.667 82Z" fill="#7F5A40"/>
<path fill-rule="evenodd" clip-rule="evenodd" d="M94.6667 82H96.6667V61H94.6667V82Z" fill="#7E593F"/>
<path fill-rule="evenodd" clip-rule="evenodd" d="M98.1778 83.4001C98.1778 84.8619 96.993 86.0467 95.5312 86.0467C94.0693 86.0467 92.8845 84.8619 92.8845 83.4001C92.8845 81.9382 94.0693 80.7534 95.5312 80.7534C96.993 80.7534 98.1778 81.9382 98.1778 83.4001Z" fill="#A95E2C"/>
<path fill-rule="evenodd" clip-rule="evenodd" d="M97.2957 83.4002C97.2957 84.375 96.5061 85.1646 95.5313 85.1646C94.5564 85.1646 93.7668 84.375 93.7668 83.4002C93.7668 82.4253 94.5564 81.6357 95.5313 81.6357C96.5061 81.6357 97.2957 82.4253 97.2957 83.4002Z" fill="#F3CC0D"/>
<path fill-rule="evenodd" clip-rule="evenodd" d="M92.7739 108H69.5596C69.0667 108 68.6667 107.552 68.6667 107C68.6667 106.448 69.0667 106 69.5596 106H92.7739C93.2667 106 93.6667 106.448 93.6667 107C93.6667 107.552 93.2667 108 92.7739 108Z" fill="#CFA202"/>
<path fill-rule="evenodd" clip-rule="evenodd" d="M98.5596 108H121.774C122.267 108 122.667 107.552 122.667 107C122.667 106.448 122.267 106 121.774 106H98.5596C98.0667 106 97.6667 106.448 97.6667 107C97.6667 107.552 98.0667 108 98.5596 108Z" fill="#CFA202"/>
<path fill-rule="evenodd" clip-rule="evenodd" d="M117.533 108.102C117.046 112.188 113.212 115.445 108.35 115.962C108.793 116.01 109.242 116.042 109.7 116.042C115.19 116.042 119.702 112.56 120.234 108.102H117.533Z" fill="#E7BD0A"/>
<path fill-rule="evenodd" clip-rule="evenodd" d="M96.857 73.955C96.6567 73.955 96.4617 73.9418 96.2685 73.9136C96.0215 73.88 95.7833 73.8227 95.5636 73.7433C95.2346 73.618 94.9717 73.4777 94.7749 73.326C94.7282 73.3013 94.6356 73.221 94.5456 73.1407L94.4476 73.0552L94.3206 72.9149C94.2641 72.8523 94.2033 72.7834 94.1547 72.7155C94.0427 72.5629 93.9395 72.3944 93.8504 72.225C93.8204 72.1774 93.7851 72.1085 93.7507 72.0424L93.7083 71.9603L93.6854 71.8112C93.6775 71.8051 93.6457 71.7133 93.5989 71.5774L93.5442 71.4231C93.4181 71.0702 93.2884 70.7032 93.1393 70.2506C93.0423 69.9348 92.9452 69.4972 92.8332 68.9643C92.7776 68.6899 92.7211 68.3882 92.6638 68.0768L92.6135 67.9921L92.6329 67.9286C92.3568 66.4888 92.078 64.8655 92.063 64.6829C92.0445 64.4103 92.0462 64.1333 92.0595 63.851C92.0956 63.1805 92.1892 62.6167 92.3444 62.1227C92.3665 62.0451 92.4 61.9586 92.4318 61.8766C92.5447 61.596 92.7017 61.3437 92.8985 61.1249C93.0537 60.9476 93.2399 60.7906 93.4507 60.66C93.9624 60.3274 94.6311 60.1395 95.329 60.1333H95.3299C95.6139 60.1333 95.8724 60.1562 96.115 60.2012C96.2818 60.2251 96.4609 60.2683 96.6382 60.3177C96.7044 60.3353 96.7705 60.3583 96.8367 60.3812C96.9426 60.4147 97.0546 60.4597 97.1622 60.503C97.4975 60.6309 97.8389 60.8161 98.1688 61.0499C98.5323 61.3014 98.8137 61.5519 99.0713 61.8395C99.3254 62.1245 99.5213 62.465 99.6792 62.7597C99.8583 63.0852 100.025 63.4284 100.186 63.7742C100.425 64.2859 100.655 64.8126 100.872 65.3543L101.093 65.9127C101.217 66.2365 101.34 66.5656 101.453 66.8858C101.596 67.2987 101.728 67.7019 101.841 68.105L101.886 68.285C101.963 68.5885 102.036 68.8752 102.036 69.2025C102.031 69.5378 101.987 69.8871 101.894 70.3044C101.877 70.3785 101.865 70.42 101.849 70.4561C101.831 70.5708 101.774 70.742 101.714 70.9123C101.67 71.034 101.623 71.1531 101.566 71.2695C101.46 71.5077 101.328 71.7451 101.176 71.9665C100.698 72.6899 100.059 73.2069 99.3307 73.4575C98.4661 73.7706 97.6713 73.9374 96.9717 73.9541L96.857 73.955Z" fill="#FFDBB9"/>
<path fill-rule="evenodd" clip-rule="evenodd" d="M95.3443 59.8052H95.3434H95.3302C94.5671 59.8114 93.8357 60.0178 93.2667 60.3866C93.0382 60.5295 92.8274 60.7077 92.6491 60.9097C92.4312 61.1523 92.2548 61.4373 92.1278 61.7522C92.0898 61.8475 92.0528 61.9463 92.0245 62.0487C91.8675 62.5453 91.7687 63.1356 91.7316 63.8299C91.7166 64.1616 91.7175 64.4448 91.736 64.7024C91.7537 64.9344 92.0501 66.63 92.2971 67.9189L92.2654 68.0327L92.3492 68.1854C92.4065 68.4933 92.4595 68.7738 92.5115 69.0288C92.65 69.6887 92.7338 70.0486 92.8018 70.2727C92.8106 70.3045 92.8256 70.3503 92.8406 70.3892C92.9773 70.8091 93.1079 71.1787 93.2058 71.454L93.2393 71.5484L93.2896 71.6878C93.3161 71.7637 93.3373 71.8254 93.3514 71.873L93.3443 71.9745L93.4308 72.1395L93.4573 72.1915C93.4961 72.2656 93.5358 72.3415 93.5816 72.4156C93.6602 72.5691 93.7722 72.75 93.8948 72.9158C93.9434 72.9838 94.0122 73.0632 94.0775 73.1364C94.1004 73.162 94.1233 73.1858 94.1401 73.2078L94.1842 73.2634L94.2389 73.3084C94.2663 73.3314 94.2954 73.3578 94.3254 73.3843C94.4065 73.4575 94.4974 73.5396 94.6033 73.6075C94.8212 73.7707 95.1026 73.9189 95.4405 74.0486C95.6937 74.1395 95.9548 74.203 96.2292 74.24C96.4224 74.2692 96.6306 74.2833 96.8556 74.2833L96.98 74.2824C97.7148 74.2656 98.545 74.0918 99.4475 73.7645C100.234 73.4937 100.932 72.9317 101.454 72.1439C101.61 71.9163 101.752 71.6613 101.871 71.394C101.924 71.2855 101.976 71.1558 102.024 71.0199C102.077 70.8735 102.137 70.697 102.182 70.5038C102.191 70.473 102.2 70.4412 102.207 70.4094C102.313 69.9375 102.36 69.5669 102.364 69.2096C102.365 68.8356 102.287 68.5312 102.205 68.2083L102.163 68.038C102.053 67.6428 101.927 67.2502 101.764 66.7791C101.65 66.4536 101.525 66.1219 101.399 65.7946C101.326 65.6049 101.252 65.4187 101.178 65.2326C100.967 64.7059 100.733 64.1686 100.484 63.6349C100.287 63.2114 100.127 62.8921 99.9663 62.5992C99.8022 62.293 99.594 61.9331 99.3178 61.6217C99.0417 61.3138 98.7409 61.0465 98.4224 60.8241L98.4171 60.8206L98.3853 60.7986L98.3447 60.7712C98.006 60.5321 97.6407 60.3336 97.272 60.1934C97.1714 60.1519 97.0505 60.1042 96.9332 60.0672C96.8759 60.0469 96.8009 60.0213 96.7259 60.0001C96.5591 59.9543 96.3598 59.904 96.148 59.874C95.9116 59.8299 95.6319 59.8052 95.3443 59.8052ZM95.3443 60.4624C95.579 60.4624 95.8163 60.481 96.0563 60.5251C96.2221 60.548 96.3871 60.5895 96.5512 60.6345C96.613 60.6512 96.6729 60.6724 96.7338 60.6936C96.8353 60.7253 96.9385 60.7668 97.0382 60.8074C97.3699 60.9344 97.6831 61.1091 97.9795 61.3182C98.0016 61.3332 98.0236 61.3482 98.0466 61.3632C98.328 61.559 98.59 61.7946 98.8264 62.0584C99.0391 62.2974 99.2146 62.5886 99.3902 62.915C99.5666 63.237 99.7298 63.574 99.8886 63.9128C100.125 64.4192 100.353 64.9406 100.567 65.477C100.64 65.6605 100.714 65.844 100.786 66.031C100.909 66.3521 101.032 66.6768 101.143 66.9944C101.283 67.3993 101.413 67.7972 101.524 68.1942C101.616 68.5683 101.708 68.862 101.707 69.2026C101.702 69.5546 101.649 69.8969 101.574 70.2339C101.566 70.263 101.56 70.2965 101.549 70.3239C101.513 70.4862 101.461 70.6441 101.404 70.8012C101.365 70.9141 101.321 71.0208 101.271 71.1267C101.167 71.3587 101.045 71.5766 100.906 71.7813C100.483 72.42 99.901 72.9132 99.2234 73.1461C98.4683 73.4205 97.6928 73.6093 96.9641 73.6251C96.9279 73.626 96.8917 73.626 96.8556 73.626C96.6721 73.626 96.4939 73.6145 96.3165 73.5881C96.0951 73.5581 95.8798 73.5078 95.6752 73.4346C95.4273 73.3393 95.1696 73.2158 94.9773 73.0658C94.8785 73.0076 94.7612 72.8876 94.6571 72.8011C94.5944 72.7226 94.4939 72.6238 94.4233 72.525C94.3174 72.3812 94.223 72.2277 94.1419 72.0724C94.0933 71.993 94.0536 71.9119 94.0131 71.8342C94.0157 71.791 93.9786 71.6701 93.9098 71.4708C93.8878 71.4072 93.8622 71.3384 93.8322 71.2546C93.7352 70.9811 93.6037 70.6088 93.452 70.1483C93.444 70.128 93.4378 70.1042 93.4308 70.0804C93.3584 69.8448 93.2641 69.417 93.1555 68.8973C93.0973 68.6115 93.0382 68.2956 92.9782 67.9692C92.9747 67.9648 92.9756 67.9604 92.9729 67.9551C92.9729 67.9551 92.9703 67.9498 92.9712 67.9454C92.6871 66.473 92.4039 64.8188 92.3915 64.6565C92.3739 64.3998 92.3757 64.136 92.388 63.8651C92.4171 63.3261 92.4886 62.7588 92.658 62.2225C92.68 62.1448 92.7091 62.0689 92.7382 61.9966C92.8353 61.7549 92.9703 61.5352 93.1423 61.3446C93.2773 61.192 93.4378 61.0553 93.6249 60.9379C94.103 60.6283 94.7074 60.4677 95.3311 60.4624C95.3355 60.4624 95.3399 60.4624 95.3443 60.4624Z" fill="#020202"/>
<path fill-rule="evenodd" clip-rule="evenodd" d="M96.857 73.955C96.6567 73.955 96.4617 73.9418 96.2685 73.9136C96.0215 73.88 95.7833 73.8227 95.5636 73.7433C95.2346 73.618 94.9717 73.4777 94.7749 73.326C94.7282 73.3013 94.6356 73.221 94.5456 73.1407L94.4476 73.0552L94.3206 72.9149C94.2641 72.8523 94.2033 72.7834 94.1547 72.7155C94.0427 72.5629 93.9395 72.3944 93.8504 72.225C93.8204 72.1774 93.7851 72.1085 93.7507 72.0424L93.7083 71.9603L93.6854 71.8112C93.6775 71.8051 93.6457 71.7133 93.5989 71.5774L93.5442 71.4231C93.4181 71.0702 93.2884 70.7032 93.1393 70.2506C93.0423 69.9348 92.9452 69.4972 92.8332 68.9643C92.7776 68.6899 92.7211 68.3882 92.6638 68.0768L92.6135 67.9921L92.6329 67.9286C92.3568 66.4888 92.078 64.8655 92.063 64.6829C92.0445 64.4103 92.0462 64.1333 92.0595 63.851C92.0956 63.1805 92.1892 62.6167 92.3444 62.1227C92.3665 62.0451 92.4 61.9586 92.4318 61.8766C92.5447 61.596 92.7017 61.3437 92.8985 61.1249C93.0537 60.9476 93.2399 60.7906 93.4507 60.66C93.9624 60.3274 94.6311 60.1395 95.329 60.1333H95.3299C95.6139 60.1333 95.8724 60.1562 96.115 60.2012C96.2818 60.2251 96.4609 60.2683 96.6382 60.3177C96.7044 60.3353 96.7705 60.3583 96.8367 60.3812C96.9426 60.4147 97.0546 60.4597 97.1622 60.503C97.4975 60.6309 97.8389 60.8161 98.1688 61.0499C98.5323 61.3014 98.8137 61.5519 99.0713 61.8395C99.3254 62.1245 99.5213 62.465 99.6792 62.7597C99.8583 63.0852 100.025 63.4284 100.186 63.7742C100.425 64.2859 100.655 64.8126 100.872 65.3543L101.093 65.9127C101.217 66.2365 101.34 66.5656 101.453 66.8858C101.596 67.2987 101.728 67.7019 101.841 68.105L101.886 68.285C101.963 68.5885 102.036 68.8752 102.036 69.2025C102.031 69.5378 101.987 69.8871 101.894 70.3044C101.877 70.3785 101.865 70.42 101.849 70.4561C101.831 70.5708 101.774 70.742 101.714 70.9123C101.67 71.034 101.623 71.1531 101.566 71.2695C101.46 71.5077 101.328 71.7451 101.176 71.9665C100.698 72.6899 100.059 73.2069 99.3307 73.4575C98.4661 73.7706 97.6713 73.9374 96.9717 73.9541L96.857 73.955Z" fill="#FFDBB9"/>
<path fill-rule="evenodd" clip-rule="evenodd" d="M95.3443 59.8052H95.3434H95.3302C94.5671 59.8114 93.8357 60.0178 93.2667 60.3866C93.0382 60.5295 92.8274 60.7077 92.6491 60.9097C92.4312 61.1523 92.2548 61.4373 92.1278 61.7522C92.0898 61.8475 92.0528 61.9463 92.0245 62.0487C91.8675 62.5453 91.7687 63.1356 91.7316 63.8299C91.7166 64.1616 91.7175 64.4448 91.736 64.7024C91.7537 64.9344 92.0501 66.63 92.2971 67.9189L92.2654 68.0327L92.3492 68.1854C92.4065 68.4933 92.4595 68.7738 92.5115 69.0288C92.65 69.6887 92.7338 70.0486 92.8018 70.2727C92.8106 70.3045 92.8256 70.3503 92.8406 70.3892C92.9773 70.8091 93.1079 71.1787 93.2058 71.454L93.2393 71.5484L93.2896 71.6878C93.3161 71.7637 93.3373 71.8254 93.3514 71.873L93.3443 71.9745L93.4308 72.1395L93.4573 72.1915C93.4961 72.2656 93.5358 72.3415 93.5816 72.4156C93.6602 72.5691 93.7722 72.75 93.8948 72.9158C93.9434 72.9838 94.0122 73.0632 94.0775 73.1364C94.1004 73.162 94.1233 73.1858 94.1401 73.2078L94.1842 73.2634L94.2389 73.3084C94.2663 73.3314 94.2954 73.3578 94.3254 73.3843C94.4065 73.4575 94.4974 73.5396 94.6033 73.6075C94.8212 73.7707 95.1026 73.9189 95.4405 74.0486C95.6937 74.1395 95.9548 74.203 96.2292 74.24C96.4224 74.2692 96.6306 74.2833 96.8556 74.2833L96.98 74.2824C97.7148 74.2656 98.545 74.0918 99.4475 73.7645C100.234 73.4937 100.932 72.9317 101.454 72.1439C101.61 71.9163 101.752 71.6613 101.871 71.394C101.924 71.2855 101.976 71.1558 102.024 71.0199C102.077 70.8735 102.137 70.697 102.182 70.5038C102.191 70.473 102.2 70.4412 102.207 70.4094C102.313 69.9375 102.36 69.5669 102.364 69.2096C102.365 68.8356 102.287 68.5312 102.205 68.2083L102.163 68.038C102.053 67.6428 101.927 67.2502 101.764 66.7791C101.65 66.4536 101.525 66.1219 101.399 65.7946C101.326 65.6049 101.252 65.4187 101.178 65.2326C100.967 64.7059 100.733 64.1686 100.484 63.6349C100.287 63.2114 100.127 62.8921 99.9663 62.5992C99.8022 62.293 99.594 61.9331 99.3178 61.6217C99.0417 61.3138 98.7409 61.0465 98.4224 60.8241L98.4171 60.8206L98.3853 60.7986L98.3447 60.7712C98.006 60.5321 97.6407 60.3336 97.272 60.1934C97.1714 60.1519 97.0505 60.1042 96.9332 60.0672C96.8759 60.0469 96.8009 60.0213 96.7259 60.0001C96.5591 59.9543 96.3598 59.904 96.148 59.874C95.9116 59.8299 95.6319 59.8052 95.3443 59.8052ZM95.3443 60.4624C95.579 60.4624 95.8163 60.481 96.0563 60.5251C96.2221 60.548 96.3871 60.5895 96.5512 60.6345C96.613 60.6512 96.6729 60.6724 96.7338 60.6936C96.8353 60.7253 96.9385 60.7668 97.0382 60.8074C97.3699 60.9344 97.6831 61.1091 97.9795 61.3182C98.0016 61.3332 98.0236 61.3482 98.0466 61.3632C98.328 61.559 98.59 61.7946 98.8264 62.0584C99.0391 62.2974 99.2146 62.5886 99.3902 62.915C99.5666 63.237 99.7298 63.574 99.8886 63.9128C100.125 64.4192 100.353 64.9406 100.567 65.477C100.64 65.6605 100.714 65.844 100.786 66.031C100.909 66.3521 101.032 66.6768 101.143 66.9944C101.283 67.3993 101.413 67.7972 101.524 68.1942C101.616 68.5683 101.708 68.862 101.707 69.2026C101.702 69.5546 101.649 69.8969 101.574 70.2339C101.566 70.263 101.56 70.2965 101.549 70.3239C101.513 70.4862 101.461 70.6441 101.404 70.8012C101.365 70.9141 101.321 71.0208 101.271 71.1267C101.167 71.3587 101.045 71.5766 100.906 71.7813C100.483 72.42 99.901 72.9132 99.2234 73.1461C98.4683 73.4205 97.6928 73.6093 96.9641 73.6251C96.9279 73.626 96.8917 73.626 96.8556 73.626C96.6721 73.626 96.4939 73.6145 96.3165 73.5881C96.0951 73.5581 95.8798 73.5078 95.6752 73.4346C95.4273 73.3393 95.1696 73.2158 94.9773 73.0658C94.8785 73.0076 94.7612 72.8876 94.6571 72.8011C94.5944 72.7226 94.4939 72.6238 94.4233 72.525C94.3174 72.3812 94.223 72.2277 94.1419 72.0724C94.0933 71.993 94.0536 71.9119 94.0131 71.8342C94.0157 71.791 93.9786 71.6701 93.9098 71.4708C93.8878 71.4072 93.8622 71.3384 93.8322 71.2546C93.7352 70.9811 93.6037 70.6088 93.452 70.1483C93.444 70.128 93.4378 70.1042 93.4308 70.0804C93.3584 69.8448 93.2641 69.417 93.1555 68.8973C93.0973 68.6115 93.0382 68.2956 92.9782 67.9692C92.9747 67.9648 92.9756 67.9604 92.9729 67.9551C92.9729 67.9551 92.9703 67.9498 92.9712 67.9454C92.6871 66.473 92.4039 64.8188 92.3915 64.6565C92.3739 64.3998 92.3757 64.136 92.388 63.8651C92.4171 63.3261 92.4886 62.7588 92.658 62.2225C92.68 62.1448 92.7091 62.0689 92.7382 61.9966C92.8353 61.7549 92.9703 61.5352 93.1423 61.3446C93.2773 61.192 93.4378 61.0553 93.6249 60.9379C94.103 60.6283 94.7074 60.4677 95.3311 60.4624C95.3355 60.4624 95.3399 60.4624 95.3443 60.4624Z" fill="#020202"/>
</svg>
