<svg width="186" height="42" viewBox="0 0 186 42" fill="none" xmlns="http://www.w3.org/2000/svg">
<path d="M19.4733 40.734C30.228 40.734 38.9465 31.939 38.9465 21.0899C38.9465 10.2407 30.228 1.4458 19.4733 1.4458C8.71845 1.4458 0 10.2407 0 21.0899C0 31.939 8.71845 40.734 19.4733 40.734Z" fill="#EFC84A"/>
<path opacity="0.1" d="M38.9458 21.0898C38.9458 20.0229 38.8623 18.9841 38.7046 17.9827L27.8686 8.66138L15.0287 9.84055V22.1942L13.8783 24.3466C13.6093 24.4309 12.7836 26.209 12.8763 26.4711L13.2382 31.1131C13.2845 31.2628 10.4271 33.6119 10.557 33.6586L18.8695 40.7339C19.0644 40.7245 19.4169 40.7339 19.4633 40.7339C30.2344 40.7339 38.9458 31.946 38.9458 21.0898Z" fill="black"/>
<path d="M27.8694 8.66138H10.5486V33.6586H27.8694V8.66138Z" fill="#E1E6E9"/>
<path d="M27.8694 8.66138H10.5486V32.7509H27.8694V8.66138Z" fill="#EBF0F3"/>
<path d="M11.7817 17.1217V26.7986H26.6626V17.1217H11.7817ZM26.2173 18.8063H23.1558V17.5803H26.2173V18.8063ZM19.1665 25.1141H22.6919V26.3401H19.1665V25.1141ZM19.1665 24.6649V19.2648H22.6919V24.6649H19.1665ZM19.1665 18.8063V17.5803H22.6919V18.8063H19.1665ZM23.1465 19.2555H26.208V24.6555H23.1465V19.2555ZM18.7119 17.5709V18.7969H12.227V17.5709H18.7119ZM12.227 19.2555H18.7119V26.3401H12.227V19.2555ZM23.1465 26.3401V25.1141H26.208V26.3401H23.1465Z" fill="#64798A"/>
<path d="M16.1236 10.5144H12.0045V10.973H16.1236V10.5144Z" fill="#44C4A1"/>
<path d="M26.5701 28.7078H22.451V29.1664H26.5701V28.7078Z" fill="#27A2DB"/>
<path d="M22.451 15.1376H15.9661V15.5962H22.451V15.1376Z" fill="#E56353"/>
<path d="M17.543 12.124H12.0045V12.5826H17.543V12.124Z" fill="#64798A"/>
<path d="M23.9353 10.3477H23.824V9.66455H23.9353V10.3477Z" fill="#663F34"/>
<path d="M24.1765 9.84998L24.1858 9.92485C24.2043 9.89676 24.2229 9.87806 24.2507 9.86872C24.2785 9.84998 24.3064 9.84998 24.3342 9.84998C24.3899 9.84998 24.427 9.86872 24.4548 9.89676C24.4827 9.92485 24.5012 9.98102 24.5012 10.0465V10.3647H24.3899V10.0465C24.3899 10.0091 24.3806 9.98102 24.362 9.96228C24.3435 9.94359 24.3249 9.93419 24.2878 9.93419C24.2693 9.93419 24.2507 9.94359 24.2322 9.95293C24.2136 9.96228 24.2043 9.97163 24.1858 9.99037V10.3554H24.0744V9.84998H24.1765Z" fill="#663F34"/>
<path d="M24.7886 10.1869L24.7979 10.2243L24.8072 10.1869L24.9092 9.84998H25.0298L24.8535 10.3554H24.7515L24.5753 9.84998H24.6958L24.7886 10.1869Z" fill="#663F34"/>
<path d="M25.0674 10.1026C25.0674 10.0278 25.086 9.96223 25.1323 9.91545C25.1694 9.86861 25.2344 9.84058 25.2994 9.84058C25.3736 9.84058 25.4292 9.86861 25.4663 9.91545C25.5034 9.96223 25.5313 10.0278 25.5313 10.1026V10.112C25.5313 10.1868 25.5127 10.2524 25.4663 10.2991C25.4292 10.3459 25.3736 10.374 25.2994 10.374C25.2251 10.374 25.1694 10.3459 25.1323 10.2991C25.0952 10.2524 25.0674 10.1868 25.0674 10.1026ZM25.1787 10.112C25.1787 10.1587 25.188 10.2055 25.2066 10.2336C25.2251 10.2617 25.2529 10.2804 25.2994 10.2804C25.3365 10.2804 25.3643 10.2617 25.3921 10.2336C25.4107 10.2055 25.4199 10.1587 25.4199 10.112V10.1026C25.4199 10.0558 25.4107 10.0184 25.3921 9.98092C25.3736 9.95288 25.3457 9.93414 25.2994 9.93414C25.2622 9.93414 25.2344 9.95288 25.2066 9.98092C25.188 10.009 25.1787 10.0558 25.1787 10.112Z" fill="#663F34"/>
<path d="M25.7451 9.7282H25.6337V9.62524H25.7451V9.7282ZM25.7451 10.3552H25.6337V9.84985H25.7451V10.3552Z" fill="#663F34"/>
<path d="M26.0786 10.2804C26.1065 10.2804 26.125 10.271 26.1528 10.2523C26.1714 10.2336 26.1807 10.2149 26.1807 10.1868H26.2827C26.2827 10.2336 26.2642 10.271 26.2271 10.3085C26.19 10.3459 26.1436 10.3646 26.0879 10.3646C26.0137 10.3646 25.958 10.3365 25.9209 10.2897C25.8838 10.243 25.8652 10.1774 25.8652 10.1026V10.0839C25.8652 10.009 25.8838 9.95283 25.9209 9.8967C25.958 9.84987 26.0137 9.82178 26.0879 9.82178C26.1528 9.82178 26.1992 9.84052 26.2363 9.87796C26.2734 9.91539 26.292 9.96217 26.292 10.009H26.19C26.19 9.98092 26.1807 9.96217 26.1621 9.93414C26.1436 9.91539 26.1157 9.90605 26.0879 9.90605C26.0415 9.90605 26.0137 9.92474 25.9951 9.95283C25.9766 9.98092 25.9673 10.0184 25.9673 10.0651V10.0839C25.9673 10.1307 25.9766 10.1681 25.9951 10.2055C26.0137 10.243 26.0323 10.2804 26.0786 10.2804Z" fill="#663F34"/>
<path d="M26.5893 10.374C26.5151 10.374 26.4594 10.3459 26.4223 10.2991C26.3759 10.2524 26.3574 10.1962 26.3574 10.1213V10.1026C26.3574 10.0278 26.3759 9.97157 26.4223 9.91545C26.4687 9.85927 26.5151 9.84058 26.5801 9.84058C26.645 9.84058 26.7007 9.85927 26.7378 9.90605C26.7749 9.94348 26.7934 9.99966 26.7934 10.0745V10.1401H26.478C26.478 10.1775 26.4873 10.2149 26.5151 10.243C26.5336 10.2711 26.5708 10.2804 26.6079 10.2804C26.6357 10.2804 26.6636 10.2804 26.6821 10.2711C26.7007 10.2617 26.7285 10.2524 26.747 10.243L26.7841 10.3178C26.7656 10.3366 26.7378 10.3459 26.7099 10.3647C26.6821 10.3834 26.6264 10.374 26.5893 10.374ZM26.5708 9.93414C26.543 9.93414 26.5244 9.94348 26.5058 9.97157C26.4873 9.99032 26.478 10.0184 26.4687 10.0558H26.6636V10.0464C26.6636 10.0184 26.6543 9.99032 26.6357 9.97157C26.6264 9.94348 26.6079 9.93414 26.5708 9.93414Z" fill="#663F34"/>
<path d="M60.0261 22.7045H66.6718V31.7712C65.5847 32.1253 64.5389 32.3765 63.5342 32.5247C62.5378 32.6729 61.459 32.747 60.2979 32.747C57.5639 32.747 55.4557 31.94 53.9734 30.326C52.4911 28.7037 51.75 26.4185 51.75 23.4703C51.75 20.5634 52.5858 18.2905 54.2575 16.6518C55.9292 15.0048 58.2309 14.1813 61.1625 14.1813C63.0484 14.1813 64.8353 14.5436 66.5235 15.2683L65.4859 17.7264C64.0201 17.0512 62.5543 16.7135 61.0884 16.7135C59.1614 16.7135 57.638 17.3188 56.518 18.5293C55.3981 19.7399 54.8381 21.3951 54.8381 23.495C54.8381 25.702 55.3404 27.382 56.3451 28.5349C57.358 29.6795 58.8115 30.2518 60.7055 30.2518C61.6608 30.2518 62.6819 30.1324 63.7689 29.8936V25.2367H60.0261V22.7045ZM72.7415 32.5H69.8387V18.8382H72.7415V32.5ZM69.6657 15.2189C69.6657 14.7001 69.8057 14.3007 70.0857 14.0207C70.3739 13.7407 70.7816 13.6007 71.3086 13.6007C71.8192 13.6007 72.2145 13.7407 72.4945 14.0207C72.7827 14.3007 72.9268 14.7001 72.9268 15.2189C72.9268 15.713 72.7827 16.1041 72.4945 16.3924C72.2145 16.6724 71.8192 16.8124 71.3086 16.8124C70.7816 16.8124 70.3739 16.6724 70.0857 16.3924C69.8057 16.1041 69.6657 15.713 69.6657 15.2189ZM87.5445 32.5H84.6293V24.0756C84.6293 23.0298 84.4316 22.2516 84.0364 21.741C83.6411 21.2222 83.0234 20.9628 82.1835 20.9628C81.0635 20.9628 80.24 21.3292 79.713 22.0622C79.1942 22.7868 78.9348 23.9974 78.9348 25.6938V32.5H76.0319V18.8382H78.3048L78.7124 20.6293H78.8607C79.2395 19.9787 79.7871 19.4764 80.5035 19.1223C81.2282 18.7682 82.0229 18.5911 82.8876 18.5911C84.9875 18.5911 86.3792 19.3076 87.0627 20.7404H87.2603C87.6639 20.0652 88.2321 19.5381 88.965 19.1593C89.6979 18.7805 90.5379 18.5911 91.4849 18.5911C93.1154 18.5911 94.3013 19.0029 95.0424 19.8264C95.7918 20.6499 96.1665 21.9057 96.1665 23.5939V32.5H93.2636V24.0756C93.2636 23.0298 93.0619 22.2516 92.6584 21.741C92.2631 21.2222 91.6455 20.9628 90.8055 20.9628C89.6773 20.9628 88.8497 21.3169 88.3227 22.0251C87.8039 22.7251 87.5445 23.8039 87.5445 25.2614V32.5ZM99.6546 14.4407H105.016C107.503 14.4407 109.298 14.803 110.401 15.5277C111.513 16.2524 112.069 17.397 112.069 18.9617C112.069 20.0158 111.797 20.8928 111.254 21.5928C110.71 22.2927 109.928 22.7333 108.907 22.9145V23.038C110.175 23.2768 111.105 23.7503 111.698 24.4585C112.299 25.1585 112.6 26.1097 112.6 27.312C112.6 28.9343 112.032 30.2066 110.895 31.1289C109.767 32.043 108.194 32.5 106.177 32.5H99.6546V14.4407ZM102.607 21.9016H105.448C106.683 21.9016 107.585 21.7081 108.153 21.321C108.721 20.9257 109.005 20.2587 109.005 19.3199C109.005 18.4717 108.697 17.8582 108.079 17.4794C107.47 17.1006 106.498 16.9112 105.164 16.9112H102.607V21.9016ZM102.607 24.298V30.0172H105.744C106.98 30.0172 107.91 29.7825 108.536 29.3131C109.17 28.8354 109.487 28.086 109.487 27.0649C109.487 26.1261 109.166 25.4303 108.524 24.9773C107.881 24.5244 106.905 24.298 105.596 24.298H102.607ZM127.292 25.6444C127.292 27.8761 126.719 29.6178 125.575 30.8695C124.43 32.1212 122.837 32.747 120.794 32.747C119.518 32.747 118.39 32.4588 117.41 31.8824C116.43 31.3059 115.676 30.4783 115.149 29.3995C114.622 28.3207 114.359 27.069 114.359 25.6444C114.359 23.4292 114.927 21.6998 116.063 20.4563C117.2 19.2129 118.801 18.5911 120.868 18.5911C122.845 18.5911 124.409 19.2293 125.562 20.5057C126.715 21.7739 127.292 23.4868 127.292 25.6444ZM117.348 25.6444C117.348 28.7984 118.513 30.3754 120.844 30.3754C123.15 30.3754 124.302 28.7984 124.302 25.6444C124.302 22.5233 123.141 20.9628 120.819 20.9628C119.6 20.9628 118.715 21.3663 118.163 22.1733C117.62 22.9804 117.348 24.1374 117.348 25.6444ZM141.885 25.6444C141.885 27.8761 141.312 29.6178 140.168 30.8695C139.023 32.1212 137.43 32.747 135.387 32.747C134.111 32.747 132.983 32.4588 132.003 31.8824C131.023 31.3059 130.269 30.4783 129.742 29.3995C129.215 28.3207 128.952 27.069 128.952 25.6444C128.952 23.4292 129.52 21.6998 130.656 20.4563C131.793 19.2129 133.394 18.5911 135.461 18.5911C137.438 18.5911 139.002 19.2293 140.155 20.5057C141.308 21.7739 141.885 23.4868 141.885 25.6444ZM131.941 25.6444C131.941 28.7984 133.106 30.3754 135.437 30.3754C137.743 30.3754 138.895 28.7984 138.895 25.6444C138.895 22.5233 137.734 20.9628 135.412 20.9628C134.193 20.9628 133.308 21.3663 132.756 22.1733C132.213 22.9804 131.941 24.1374 131.941 25.6444ZM147.164 25.2862L148.807 23.2356L152.932 18.8382H156.28L150.783 24.7056L156.626 32.5H153.217L148.831 26.509L147.238 27.8184V32.5H144.36V13.2795H147.238V22.6551L147.09 25.2862H147.164ZM167.143 28.609C167.143 29.943 166.657 30.9683 165.685 31.6847C164.713 32.3929 163.321 32.747 161.51 32.747C159.69 32.747 158.228 32.4712 157.125 31.9194V29.4119C158.73 30.153 160.225 30.5236 161.609 30.5236C163.396 30.5236 164.289 29.9842 164.289 28.9054C164.289 28.5596 164.19 28.2713 163.993 28.0408C163.795 27.8102 163.47 27.5714 163.017 27.3243C162.564 27.0773 161.934 26.7973 161.127 26.4843C159.554 25.875 158.488 25.2656 157.928 24.6562C157.376 24.0468 157.1 23.2562 157.1 22.2845C157.1 21.1151 157.569 20.2093 158.508 19.567C159.455 18.9164 160.74 18.5911 162.362 18.5911C163.968 18.5911 165.487 18.9164 166.92 19.567L165.981 21.7533C164.507 21.144 163.268 20.8393 162.263 20.8393C160.732 20.8393 159.966 21.2757 159.966 22.1486C159.966 22.5768 160.163 22.9392 160.559 23.2356C160.962 23.5321 161.835 23.9397 163.177 24.4585C164.306 24.895 165.125 25.2944 165.636 25.6567C166.146 26.0191 166.525 26.4391 166.772 26.9167C167.019 27.3861 167.143 27.9502 167.143 28.609Z" fill="#1C1E23"/>
</svg>
