<svg xmlns="http://www.w3.org/2000/svg" width="28" height="28" viewBox="0 0 28 28">
    <g fill="none" fill-rule="evenodd">
        <path d="M-4-4h36v36H-4z"/>
        <path fill="#FFF" d="M0 14c0-2.2.371-4.17 1.114-5.906.742-1.737 1.75-3.202 3.022-4.395A13.228 13.228 0 0 1 8.591.955C10.288.318 12.09 0 14 0c1.91 0 3.712.318 5.41.955a13.228 13.228 0 0 1 4.454 2.744c1.272 1.193 2.28 2.658 3.022 4.395C27.63 9.83 28 11.799 28 14c0 2.2-.371 4.17-1.114 5.906-.742 1.737-1.75 3.202-3.022 4.395a13.228 13.228 0 0 1-4.455 2.744c-1.697.637-3.5.955-5.409.955-2.121 0-4.044-.318-5.767-.955-1.724-.636-3.195-1.55-4.415-2.744-1.22-1.193-2.16-2.658-2.824-4.395C.331 18.17 0 16.201 0 14zm2.784 0c0 1.83.292 3.454.875 4.872.583 1.419 1.379 2.605 2.386 3.56a10.288 10.288 0 0 0 3.56 2.187c1.366.504 2.83.756 4.395.756 1.564 0 3.03-.252 4.395-.756a10.288 10.288 0 0 0 3.56-2.187c1.007-.955 1.803-2.141 2.386-3.56.583-1.418.875-3.042.875-4.872s-.292-3.454-.875-4.872c-.583-1.419-1.379-2.605-2.386-3.56a10.288 10.288 0 0 0-3.56-2.187c-1.366-.504-2.83-.756-4.395-.756-1.564 0-3.03.252-4.395.756a10.288 10.288 0 0 0-3.56 2.187c-1.007.955-1.803 2.141-2.386 3.56-.583 1.418-.875 3.042-.875 4.872zm15.83 6.483c-.61.345-1.293.61-2.049.795-.755.186-1.637.279-2.645.279-2.147 0-3.785-.676-4.911-2.029-1.127-1.352-1.69-3.195-1.69-5.528 0-2.413.602-4.276 1.809-5.588 1.206-1.313 2.804-1.969 4.792-1.969.478 0 .909.027 1.293.08a8.08 8.08 0 0 1 2.048.557c.319.132.676.278 1.074.437l-1.034 2.426a6.696 6.696 0 0 0-1.67-.596 7.078 7.078 0 0 0-1.353-.16c-1.113 0-2.021.345-2.724 1.035C10.851 10.91 10.5 12.17 10.5 14c0 1.538.345 2.724 1.034 3.56.69.835 1.71 1.266 3.063 1.292 1.246 0 2.306-.238 3.181-.716l.836 2.347z"/>
    </g>
</svg>
