<svg width="600" height="266" viewBox="0 0 600 266" fill="none" xmlns="http://www.w3.org/2000/svg">
<circle cx="300" cy="310" r="300" fill="#4EC8FC"/>
<mask id="mask0_440_32594" style="mask-type:alpha" maskUnits="userSpaceOnUse" x="0" y="10" width="600" height="600">
<circle cx="300" cy="310" r="300" fill="#85DAFF"/>
</mask>
<g mask="url(#mask0_440_32594)">
<path fill-rule="evenodd" clip-rule="evenodd" d="M313.044 279.589L282.549 243.844L329.116 239.835L313.044 279.589Z" fill="#013449"/>
<path fill-rule="evenodd" clip-rule="evenodd" d="M282.549 243.841L291.023 207.838L329.116 239.834L282.549 243.841Z" fill="#013449"/>
<path fill-rule="evenodd" clip-rule="evenodd" d="M291.022 207.838L397.169 216.137L329.116 239.834L291.022 207.838Z" fill="#013449"/>
<path fill-rule="evenodd" clip-rule="evenodd" d="M313.043 279.585L397.169 216.134L329.115 239.831L313.043 279.585Z" fill="#013449"/>
<path fill-rule="evenodd" clip-rule="evenodd" d="M313.043 279.585H360.141L397.169 216.134L313.043 279.585Z" fill="#013449"/>
<path fill-rule="evenodd" clip-rule="evenodd" d="M397.17 216.134L378.155 340.847L360.141 279.585L397.17 216.134Z" fill="#013449"/>
<path fill-rule="evenodd" clip-rule="evenodd" d="M397.169 216.136L319.397 171.355L291.022 207.837L397.169 216.136Z" fill="#013449"/>
<path fill-rule="evenodd" clip-rule="evenodd" d="M319.398 171.354L368.432 164.311L370.726 177.979L319.398 171.354Z" fill="#013449"/>
<path fill-rule="evenodd" clip-rule="evenodd" d="M319.398 171.355L370.726 177.98L397.171 216.136L319.398 171.355Z" fill="#013449"/>
<path fill-rule="evenodd" clip-rule="evenodd" d="M370.726 177.977L397.171 186.407V216.133L370.726 177.977Z" fill="#013449"/>
<path fill-rule="evenodd" clip-rule="evenodd" d="M397.165 216.132L405.354 180.439L397.165 186.406V216.132Z" fill="#013449"/>
<path fill-rule="evenodd" clip-rule="evenodd" d="M405.361 180.439L433.763 186.406L397.172 216.132L405.361 180.439Z" fill="#013449"/>
<path fill-rule="evenodd" clip-rule="evenodd" d="M397.165 216.135L470.063 254.91L433.755 186.409L397.165 216.135Z" fill="#013449"/>
<path fill-rule="evenodd" clip-rule="evenodd" d="M470.068 254.91L378.154 340.846L397.17 216.136L470.068 254.91Z" fill="#013449"/>
<path fill-rule="evenodd" clip-rule="evenodd" d="M381.073 388.85L470.068 254.912L378.154 340.848L381.073 388.85Z" fill="#013449"/>
<path fill-rule="evenodd" clip-rule="evenodd" d="M470.068 254.912L479.246 285.867L495.747 254.912H470.068Z" fill="#013449"/>
<path fill-rule="evenodd" clip-rule="evenodd" d="M455.697 310.576L381.077 388.852L470.072 254.912L455.697 310.576Z" fill="#013449"/>
<path fill-rule="evenodd" clip-rule="evenodd" d="M455.697 310.576L479.252 285.867L470.072 254.912L455.697 310.576Z" fill="#013449"/>
<path fill-rule="evenodd" clip-rule="evenodd" d="M205.293 33.9385L207.083 40.2007L226.005 43.6139L205.293 33.9385Z" fill="#013449"/>
<path fill-rule="evenodd" clip-rule="evenodd" d="M205.293 33.9418L249.542 25.0015L226.005 43.6173L205.293 33.9418Z" fill="#013449"/>
<path fill-rule="evenodd" clip-rule="evenodd" d="M226.002 43.6155L228.235 58.2204L249.539 24.9998L226.002 43.6155Z" fill="#013449"/>
<path fill-rule="evenodd" clip-rule="evenodd" d="M228.231 58.2161L220.625 68.5434L289.22 59.7238L228.231 58.2161Z" fill="#013449"/>
<path fill-rule="evenodd" clip-rule="evenodd" d="M220.629 68.5398L224.701 87.1035L246.874 75.0748L220.629 68.5398Z" fill="#013449"/>
<path fill-rule="evenodd" clip-rule="evenodd" d="M224.704 87.1032L237.772 87.955L246.879 75.0745L224.704 87.1032Z" fill="#013449"/>
<path fill-rule="evenodd" clip-rule="evenodd" d="M246.874 75.0805L289.222 59.728L220.629 68.5455" fill="#013449"/>
<path fill-rule="evenodd" clip-rule="evenodd" d="M249.536 25.0015L289.219 59.7278L228.232 58.22L249.536 25.0015Z" fill="#013449"/>
<path fill-rule="evenodd" clip-rule="evenodd" d="M249.538 25.0015L289.221 59.7278L310.622 34.3083L249.538 25.0015Z" fill="#013449"/>
<path fill-rule="evenodd" clip-rule="evenodd" d="M299.463 22.0261L249.538 24.9958L310.62 34.3048L299.463 22.0261Z" fill="#013449"/>
<path fill-rule="evenodd" clip-rule="evenodd" d="M310.624 34.3048L326.911 28.1654L299.467 22.0261L310.624 34.3048Z" fill="#013449"/>
<path fill-rule="evenodd" clip-rule="evenodd" d="M81.0547 218.548C81.0547 218.548 94.581 218.638 96.3295 219.146C94.9099 218.484 86.0297 214.135 86.0297 214.135L81.0547 218.548Z" fill="#013449"/>
<path fill-rule="evenodd" clip-rule="evenodd" d="M103.616 218.467L93.4288 213.099L86.0286 214.132L96.4596 219.192C96.4283 219.175 96.3826 219.159 96.3305 219.144C96.4054 219.18 96.4575 219.203 96.4887 219.215L103.616 225.046L109.942 227.104L112.792 225.046L103.616 218.467Z" fill="#013449"/>
<path fill-rule="evenodd" clip-rule="evenodd" d="M122.051 225.377L115.498 225.042L115.694 228.83L110.908 230.648L120.088 232.618L129.27 230.723V228.83L122.051 225.377Z" fill="#013449"/>
<path fill-rule="evenodd" clip-rule="evenodd" d="M189.423 295.885L169.024 273.731L121.804 252.15L95.266 262.794L94.5332 285.862L92.1623 323.371L122.262 358.32L127.385 416.733L138.955 460.268L146.598 476.554L171.386 486.331L158.663 467.113L158.959 447.883L171.386 429.672L193.233 393.102V380.336L212.787 372.531L221.205 337.184L228.909 315.111L189.423 295.885Z" fill="#013449"/>
<path fill-rule="evenodd" clip-rule="evenodd" d="M80.3045 256.534L82.4257 240.886L69.2012 234.201L74.7529 220.006L64.5155 220.323L47.2007 228.532V202.682L71.2454 191.388L89.934 192.485L98.2667 208.581L98.9037 185.511L120.086 168.076L150.642 138.789L171.577 137.34L180.809 120.321L179.491 129.768L198.513 133.033L194.553 108.672L185.303 93.3172L172.095 87.1091L155.33 80.0014L147.203 97.8342L129.268 115.051L110.606 93.8545L117.282 81.807L143.856 76.7423L159.955 63.4161L166.504 58.2431L177.994 63.2162L160.376 72.975L171.412 75.6364L181.231 82.5296L194.666 73.0791L200.671 66.0318L181.231 46.5247L155.869 47.7513L147.503 59.4468L141.837 51.9767L114.247 63.2162L58.9119 56.6687L7.63149 53.8718L-31.8108 62.96L-62.527 81.807L-68.6719 100.656L1.36377 93.3172L2.3338 128.014L-14.7749 157.534L-4.90186 191.388L7.63149 213.098L2.6856 185.511L12.9292 208.581L31.5387 235.958L48.585 238.901L69.2012 250.338L73.8412 259.949L90.5939 269.177L92.1634 262.942L80.3045 256.534Z" fill="#013449"/>
<path fill-rule="evenodd" clip-rule="evenodd" d="M94.5378 285.858L95.2705 262.79L169.03 273.727L94.5378 285.858Z" fill="#013449"/>
<path fill-rule="evenodd" clip-rule="evenodd" d="M95.2637 262.794L121.802 252.15L169.023 273.731L95.2637 262.794Z" fill="#013449"/>
<path fill-rule="evenodd" clip-rule="evenodd" d="M90.5939 269.179L92.1634 262.944L73.8411 259.951L90.5939 269.179Z" fill="#013449"/>
<path fill-rule="evenodd" clip-rule="evenodd" d="M92.1634 262.946L80.3045 256.538L73.8411 259.953L92.1634 262.946Z" fill="#013449"/>
<path fill-rule="evenodd" clip-rule="evenodd" d="M73.8424 259.946L69.2025 250.335L80.3058 256.531L73.8424 259.946Z" fill="#013449"/>
<path fill-rule="evenodd" clip-rule="evenodd" d="M69.2025 250.343L82.4269 240.888L80.3058 256.539L69.2025 250.343Z" fill="#013449"/>
<path fill-rule="evenodd" clip-rule="evenodd" d="M82.4279 240.882L48.5872 238.899L69.2035 250.337L82.4279 240.882Z" fill="#013449"/>
<path fill-rule="evenodd" clip-rule="evenodd" d="M48.5872 238.898L69.2035 234.197L82.4279 240.88L48.5872 238.898Z" fill="#013449"/>
<path fill-rule="evenodd" clip-rule="evenodd" d="M48.5872 238.904L64.5157 220.325L69.2035 234.203L48.5872 238.904Z" fill="#013449"/>
<path fill-rule="evenodd" clip-rule="evenodd" d="M64.5174 220.321L74.7548 220.005L69.2052 234.199L64.5174 220.321Z" fill="#013449"/>
<path fill-rule="evenodd" clip-rule="evenodd" d="M64.5144 220.325L31.5397 235.959L48.586 238.904L64.5144 220.325Z" fill="#013449"/>
<path fill-rule="evenodd" clip-rule="evenodd" d="M31.5397 235.955L47.1996 202.68V228.831L31.5397 235.955Z" fill="#013449"/>
<path fill-rule="evenodd" clip-rule="evenodd" d="M31.5393 235.955L12.9297 208.58L47.1992 202.68L31.5393 235.955Z" fill="#013449"/>
<path fill-rule="evenodd" clip-rule="evenodd" d="M47.1974 202.68L2.6823 185.509L12.9259 208.579L47.1974 202.68Z" fill="#013449"/>
<path fill-rule="evenodd" clip-rule="evenodd" d="M2.6823 185.507L85.2721 138.786L47.1974 202.678L2.6823 185.507Z" fill="#013449"/>
<path fill-rule="evenodd" clip-rule="evenodd" d="M85.2749 138.786L-14.7754 157.531L2.68513 185.507L85.2749 138.786Z" fill="#013449"/>
<path fill-rule="evenodd" clip-rule="evenodd" d="M-14.7754 157.534L-4.90441 191.388L2.68513 185.511L-14.7754 157.534Z" fill="#013449"/>
<path fill-rule="evenodd" clip-rule="evenodd" d="M2.68512 185.509L7.63102 213.096L-4.90234 191.386L2.68512 185.509Z" fill="#013449"/>
<path fill-rule="evenodd" clip-rule="evenodd" d="M85.2776 138.784L71.2476 191.383L47.203 202.676L85.2776 138.784Z" fill="#013449"/>
<path fill-rule="evenodd" clip-rule="evenodd" d="M71.2443 191.383L89.933 192.48L85.2743 138.784L71.2443 191.383Z" fill="#013449"/>
<path fill-rule="evenodd" clip-rule="evenodd" d="M89.9357 192.483L98.2684 208.579L98.9054 185.509L89.9357 192.483Z" fill="#013449"/>
<path fill-rule="evenodd" clip-rule="evenodd" d="M85.2734 138.786L98.9017 185.507L89.9321 192.482L85.2734 138.786Z" fill="#013449"/>
<path fill-rule="evenodd" clip-rule="evenodd" d="M98.9017 185.507L120.084 168.072L85.2734 138.786L98.9017 185.507Z" fill="#013449"/>
<path fill-rule="evenodd" clip-rule="evenodd" d="M85.2749 138.787L2.33334 128.012L-14.7754 157.532L85.2749 138.787Z" fill="#013449"/>
<path fill-rule="evenodd" clip-rule="evenodd" d="M2.33397 128.009L1.36394 93.3118L85.2756 138.784L2.33397 128.009Z" fill="#013449"/>
<path fill-rule="evenodd" clip-rule="evenodd" d="M85.2756 138.788L58.9141 56.6648L1.36394 93.3153L85.2756 138.788Z" fill="#013449"/>
<path fill-rule="evenodd" clip-rule="evenodd" d="M85.2734 138.791L129.266 115.05L120.084 168.078L85.2734 138.791Z" fill="#013449"/>
<path fill-rule="evenodd" clip-rule="evenodd" d="M120.091 168.076L150.647 138.789L129.273 115.05L120.091 168.076Z" fill="#013449"/>
<path fill-rule="evenodd" clip-rule="evenodd" d="M150.645 138.791L171.579 137.342L129.271 115.05L150.645 138.791Z" fill="#013449"/>
<path fill-rule="evenodd" clip-rule="evenodd" d="M129.271 115.048L147.206 97.8318L171.579 137.337L129.271 115.048Z" fill="#013449"/>
<path fill-rule="evenodd" clip-rule="evenodd" d="M147.207 97.8276L155.336 79.9949L171.581 137.335L147.207 97.8276Z" fill="#013449"/>
<path fill-rule="evenodd" clip-rule="evenodd" d="M155.332 80.0015L172.097 87.1092L171.577 137.34L155.332 80.0015Z" fill="#013449"/>
<path fill-rule="evenodd" clip-rule="evenodd" d="M172.096 87.1074L198.511 133.032L180.807 120.322L172.096 87.1074Z" fill="#013449"/>
<path fill-rule="evenodd" clip-rule="evenodd" d="M172.096 87.1074L185.303 93.3155L198.511 133.032L172.096 87.1074Z" fill="#013449"/>
<path fill-rule="evenodd" clip-rule="evenodd" d="M180.808 120.32L179.492 129.767L198.512 133.03L180.808 120.32Z" fill="#013449"/>
<path fill-rule="evenodd" clip-rule="evenodd" d="M180.807 120.322L171.576 137.34L172.096 87.1074L180.807 120.322Z" fill="#013449"/>
<path fill-rule="evenodd" clip-rule="evenodd" d="M185.306 93.3118L194.557 108.666L198.514 133.028L185.306 93.3118Z" fill="#013449"/>
<path fill-rule="evenodd" clip-rule="evenodd" d="M1.37 93.3154L-31.8066 62.9583L7.63564 53.8701L1.37 93.3154Z" fill="#013449"/>
<path fill-rule="evenodd" clip-rule="evenodd" d="M7.62957 53.8701L58.912 56.667L1.36394 93.3154L7.62957 53.8701Z" fill="#013449"/>
<path fill-rule="evenodd" clip-rule="evenodd" d="M-31.8108 62.957L-68.6719 100.653L1.36586 93.3142L-31.8108 62.957Z" fill="#013449"/>
<path fill-rule="evenodd" clip-rule="evenodd" d="M58.9128 56.6648L110.605 93.8506L85.2742 138.788L58.9128 56.6648Z" fill="#013449"/>
<path fill-rule="evenodd" clip-rule="evenodd" d="M110.605 93.8572L129.266 115.053L85.2734 138.792L110.605 93.8572Z" fill="#013449"/>
<path fill-rule="evenodd" clip-rule="evenodd" d="M110.605 93.8506L117.281 81.8031L58.9128 56.6648L110.605 93.8506Z" fill="#013449"/>
<path fill-rule="evenodd" clip-rule="evenodd" d="M58.9128 56.6648L114.246 63.2144L117.281 81.8052L58.9128 56.6648Z" fill="#013449"/>
<path fill-rule="evenodd" clip-rule="evenodd" d="M114.248 63.2175L143.857 76.7436L117.283 81.8083L114.248 63.2175Z" fill="#013449"/>
<path fill-rule="evenodd" clip-rule="evenodd" d="M114.248 63.2139L141.838 51.9724L143.857 76.74L114.248 63.2139Z" fill="#013449"/>
<path fill-rule="evenodd" clip-rule="evenodd" d="M143.857 76.74L147.505 59.4446L141.839 51.9724L143.857 76.74Z" fill="#013449"/>
<path fill-rule="evenodd" clip-rule="evenodd" d="M147.506 59.4465L159.957 63.4138L143.857 76.742L147.506 59.4465Z" fill="#013449"/>
<path fill-rule="evenodd" clip-rule="evenodd" d="M147.504 59.4432L155.87 47.7456L159.954 63.4104L147.504 59.4432Z" fill="#013449"/>
<path fill-rule="evenodd" clip-rule="evenodd" d="M159.955 63.4136L166.504 58.2427L155.869 47.7488L159.955 63.4136Z" fill="#013449"/>
<path fill-rule="evenodd" clip-rule="evenodd" d="M166.507 58.2452L181.235 46.5247L155.872 47.7513L166.507 58.2452Z" fill="#013449"/>
<path fill-rule="evenodd" clip-rule="evenodd" d="M166.504 58.2452L177.994 63.2183L181.231 46.5247L166.504 58.2452Z" fill="#013449"/>
<path fill-rule="evenodd" clip-rule="evenodd" d="M177.995 63.2183L200.672 66.0339L181.232 46.5247L177.995 63.2183Z" fill="#013449"/>
<path fill-rule="evenodd" clip-rule="evenodd" d="M177.995 63.2175L194.664 73.0783L200.672 66.0331L177.995 63.2175Z" fill="#013449"/>
<path fill-rule="evenodd" clip-rule="evenodd" d="M177.995 63.2175L181.232 82.531L194.664 73.0783L177.995 63.2175Z" fill="#013449"/>
<path fill-rule="evenodd" clip-rule="evenodd" d="M177.992 63.2175L171.41 75.6378L181.229 82.531L177.992 63.2175Z" fill="#013449"/>
<path fill-rule="evenodd" clip-rule="evenodd" d="M177.996 63.2175L160.377 72.9763L171.413 75.6378L177.996 63.2175Z" fill="#013449"/>
<path fill-rule="evenodd" clip-rule="evenodd" d="M81.0547 218.548L86.0297 214.135C86.0297 214.135 97.4869 219.746 96.4586 219.194C95.4303 218.644 81.0547 218.548 81.0547 218.548Z" fill="#013449"/>
<path fill-rule="evenodd" clip-rule="evenodd" d="M86.0286 214.136L93.4288 213.104L96.4575 219.197L86.0286 214.136Z" fill="#013449"/>
<path fill-rule="evenodd" clip-rule="evenodd" d="M93.4334 213.099L103.621 218.467L96.4622 219.192L93.4334 213.099Z" fill="#013449"/>
<path fill-rule="evenodd" clip-rule="evenodd" d="M96.4583 219.191L103.615 225.045V218.467L96.4583 219.191Z" fill="#013449"/>
<path fill-rule="evenodd" clip-rule="evenodd" d="M103.617 225.045L109.94 227.103L103.617 218.467V225.045Z" fill="#013449"/>
<path fill-rule="evenodd" clip-rule="evenodd" d="M103.617 218.467L112.793 225.045L109.943 227.103L103.617 218.467Z" fill="#013449"/>
<path fill-rule="evenodd" clip-rule="evenodd" d="M110.908 230.651L120.088 232.619L115.694 228.831L110.908 230.651Z" fill="#013449"/>
<path fill-rule="evenodd" clip-rule="evenodd" d="M120.086 232.618L115.498 225.042L115.694 228.83L120.086 232.618Z" fill="#013449"/>
<path fill-rule="evenodd" clip-rule="evenodd" d="M115.498 225.042L122.051 225.377L120.088 232.618L115.498 225.042Z" fill="#013449"/>
<path fill-rule="evenodd" clip-rule="evenodd" d="M120.091 232.622L129.273 230.729L122.054 225.381L120.091 232.622Z" fill="#013449"/>
<path fill-rule="evenodd" clip-rule="evenodd" d="M122.051 225.381L129.27 228.833V230.726L122.051 225.381Z" fill="#013449"/>
<path fill-rule="evenodd" clip-rule="evenodd" d="M637.408 249.656L636.526 264.005L641.678 271.656L647.66 283.629L656.78 289.768L654.357 277.014L641.118 260.229L644.494 251.287L660.141 265.942L670.872 254.942V248.18L669.885 241.832L662.057 233.702L657.683 225.145L663.045 219.472L671.332 223.66L692.346 210.077L698.262 189.958L686.736 169.585L690.269 166.634L679.203 154.057L695.117 159.582L706.647 174.968L713.068 170.051L705.851 159.582L706.026 148.614L707.215 147.418L693.868 133.032H643.031H538.313L519.45 207.358L539.614 210.077L554.627 223.66L572 265.031L583.064 260.229V240.385L600.133 221.744L612.972 218.354L623.849 239.833L632.125 238.771L637.408 249.656Z" fill="#013449"/>
<path fill-rule="evenodd" clip-rule="evenodd" d="M660.147 181.09L572.646 174.915L612.978 218.353L660.147 181.09Z" fill="#013449"/>
<path fill-rule="evenodd" clip-rule="evenodd" d="M572.642 174.918L538.314 133.032L660.142 181.093L572.642 174.918Z" fill="#013449"/>
<path fill-rule="evenodd" clip-rule="evenodd" d="M572.641 174.918L519.45 207.358L538.313 133.032L572.641 174.918Z" fill="#013449"/>
<path fill-rule="evenodd" clip-rule="evenodd" d="M519.45 207.355L539.614 210.075L572.641 174.915L519.45 207.355Z" fill="#013449"/>
<path fill-rule="evenodd" clip-rule="evenodd" d="M539.619 210.075L554.632 223.657L572.646 174.915L539.619 210.075Z" fill="#013449"/>
<path fill-rule="evenodd" clip-rule="evenodd" d="M554.625 223.659L600.131 221.743L572.639 174.915L554.625 223.659Z" fill="#013449"/>
<path fill-rule="evenodd" clip-rule="evenodd" d="M554.625 223.66L571.998 265.032L583.062 240.385L554.625 223.66Z" fill="#013449"/>
<path fill-rule="evenodd" clip-rule="evenodd" d="M583.066 240.385L600.135 221.745L554.629 223.661L583.066 240.385Z" fill="#013449"/>
<path fill-rule="evenodd" clip-rule="evenodd" d="M583.066 240.387V260.232L572.002 265.034L583.066 240.387Z" fill="#013449"/>
<path fill-rule="evenodd" clip-rule="evenodd" d="M600.138 221.743L612.978 218.353L572.646 174.915L600.138 221.743Z" fill="#013449"/>
<path fill-rule="evenodd" clip-rule="evenodd" d="M686.737 169.585L538.314 133.032L660.142 181.091L686.737 169.585Z" fill="#013449"/>
<path fill-rule="evenodd" clip-rule="evenodd" d="M538.314 133.032H643.031L686.737 169.585L538.314 133.032Z" fill="#013449"/>
<path fill-rule="evenodd" clip-rule="evenodd" d="M412.541 146.494L405.994 124.579L397.239 95.2781L391.821 104.306L378.076 107.398L375.707 105.566L367.243 104.672V95.6509L361.889 99.3786L361.178 106.547L348.045 116.291L326.071 125.854L335.622 134.99L333.009 143.101L317.57 142.133L313.138 145.269L311.458 157.061L313.042 165.678L320.209 167.386L333.009 166.401L338.234 160.251L344.096 151.165L348.045 147.593L349.381 143.076L357.256 144.663L365.191 141.292L373.884 150.203L382.27 156.034L382.522 160.251L373.705 162.169L380.489 166.665L385.994 160.905L387.795 154.751L391.113 155.274L387.941 151.33L380.489 147.593L374.356 138.918L377.587 137.141L390.147 146.494L400.826 166.665L404.685 167.386L408.428 152.785L413.732 162.99L418.784 167.386L412.541 146.494Z" fill="#013449"/>
<path fill-rule="evenodd" clip-rule="evenodd" d="M323.981 112.794L326.007 107.65L326.908 104.303L322.944 103.125L314.703 106.546L313.138 114.019L315.815 116.268L323.981 112.794Z" fill="#013449"/>
<path fill-rule="evenodd" clip-rule="evenodd" d="M330.626 105.689L332.42 108.582L328.34 111.414L326.484 120.271L329.494 120.985L334.539 118.857L341.615 117.478L345.064 112.557L338.286 104.387L335.624 98.3669V94.6121L332.701 92.4941C332.15 92.3483 328.867 92.1172 328.867 92.1172L325.293 95.6554L326.009 101.536L330.626 105.689Z" fill="#013449"/>
<path fill-rule="evenodd" clip-rule="evenodd" d="M359.274 94.6025L363.108 93.7528L367.244 91.6432L373.381 98.5885L370.15 102.064L370.565 104.303L382.686 101.529V100.186L384.328 93.2676L389.245 89.1525L385.288 84.1107L384.898 81.7012L395.502 72.0507L401.387 71.63L393.631 78.5149V85.1769L398.799 88.7047L403.966 79.654L409.686 69.9349L417.218 57.1377L407.678 54.168H395.846L393.631 55.3279L386.741 56.7295L379.549 62.4023L369.103 73.1315L360.827 77.8631L354.372 81.7012L356.014 92.4887L359.274 94.6025Z" fill="#013449"/>
<path fill-rule="evenodd" clip-rule="evenodd" d="M313.138 145.27L311.458 157.061L319.398 153.056L313.138 145.27Z" fill="#013449"/>
<path fill-rule="evenodd" clip-rule="evenodd" d="M319.395 153.058L317.57 142.135L313.138 145.271L319.395 153.058Z" fill="#013449"/>
<path fill-rule="evenodd" clip-rule="evenodd" d="M319.398 153.055L313.042 165.677L311.458 157.059L319.398 153.055Z" fill="#013449"/>
<path fill-rule="evenodd" clip-rule="evenodd" d="M319.398 153.055L320.212 167.387L313.043 165.677L319.398 153.055Z" fill="#013449"/>
<path fill-rule="evenodd" clip-rule="evenodd" d="M319.398 153.055L333.009 166.4L320.212 167.387L319.398 153.055Z" fill="#013449"/>
<path fill-rule="evenodd" clip-rule="evenodd" d="M317.572 142.137L333.012 166.405L319.398 153.06L317.572 142.137Z" fill="#013449"/>
<path fill-rule="evenodd" clip-rule="evenodd" d="M317.572 142.137L333.012 143.105V166.405L317.572 142.137Z" fill="#013449"/>
<path fill-rule="evenodd" clip-rule="evenodd" d="M333.012 143.1L338.234 160.252L333.012 166.4V143.1Z" fill="#013449"/>
<path fill-rule="evenodd" clip-rule="evenodd" d="M338.237 160.252L344.099 151.164L333.012 143.1L338.237 160.252Z" fill="#013449"/>
<path fill-rule="evenodd" clip-rule="evenodd" d="M333.012 143.097L335.624 134.985L344.099 151.16L333.012 143.097Z" fill="#013449"/>
<path fill-rule="evenodd" clip-rule="evenodd" d="M335.622 134.985L348.045 147.591L344.096 151.16L335.622 134.985Z" fill="#013449"/>
<path fill-rule="evenodd" clip-rule="evenodd" d="M348.045 147.591L349.383 143.074L335.622 134.985L348.045 147.591Z" fill="#013449"/>
<path fill-rule="evenodd" clip-rule="evenodd" d="M335.625 134.99L326.074 125.854L348.048 127.275L335.625 134.99Z" fill="#013449"/>
<path fill-rule="evenodd" clip-rule="evenodd" d="M348.045 127.27L349.383 143.075L335.622 134.986L348.045 127.27Z" fill="#013449"/>
<path fill-rule="evenodd" clip-rule="evenodd" d="M326.074 125.854L348.046 116.291V127.274L326.074 125.854Z" fill="#013449"/>
<path fill-rule="evenodd" clip-rule="evenodd" d="M348.047 116.298L361.18 106.554L348.047 127.279V116.298Z" fill="#013449"/>
<path fill-rule="evenodd" clip-rule="evenodd" d="M348.047 127.27L357.258 144.659L349.385 143.075L348.047 127.27Z" fill="#013449"/>
<path fill-rule="evenodd" clip-rule="evenodd" d="M348.047 127.27L365.195 141.288L357.258 144.659L348.047 127.27Z" fill="#013449"/>
<path fill-rule="evenodd" clip-rule="evenodd" d="M361.18 106.554L368.649 127.279H348.047L361.18 106.554Z" fill="#013449"/>
<path fill-rule="evenodd" clip-rule="evenodd" d="M368.647 127.27L365.192 141.288L348.044 127.27H368.647Z" fill="#013449"/>
<path fill-rule="evenodd" clip-rule="evenodd" d="M368.647 127.27L374.357 138.916L365.191 141.288L368.647 127.27Z" fill="#013449"/>
<path fill-rule="evenodd" clip-rule="evenodd" d="M365.191 141.298L373.884 150.209L374.357 138.924L365.191 141.298Z" fill="#013449"/>
<path fill-rule="evenodd" clip-rule="evenodd" d="M374.359 138.924L380.494 147.6L373.887 150.209L374.359 138.924Z" fill="#013449"/>
<path fill-rule="evenodd" clip-rule="evenodd" d="M373.887 150.204L382.271 156.035L380.492 147.594L373.887 150.204Z" fill="#013449"/>
<path fill-rule="evenodd" clip-rule="evenodd" d="M380.495 147.594L387.947 151.328L387.801 154.752L380.495 147.594Z" fill="#013449"/>
<path fill-rule="evenodd" clip-rule="evenodd" d="M387.939 151.334L391.112 155.283L387.793 154.758L387.939 151.334Z" fill="#013449"/>
<path fill-rule="evenodd" clip-rule="evenodd" d="M387.798 154.752L382.273 156.035L380.492 147.594L387.798 154.752Z" fill="#013449"/>
<path fill-rule="evenodd" clip-rule="evenodd" d="M387.797 154.752L385.998 160.906L382.275 156.035L387.797 154.752Z" fill="#013449"/>
<path fill-rule="evenodd" clip-rule="evenodd" d="M382.271 156.032L382.525 160.252L385.998 160.906L382.271 156.032Z" fill="#013449"/>
<path fill-rule="evenodd" clip-rule="evenodd" d="M382.523 160.25L373.705 162.169L385.995 160.904L382.523 160.25Z" fill="#013449"/>
<path fill-rule="evenodd" clip-rule="evenodd" d="M373.705 162.172L380.489 166.668L385.995 160.908L373.705 162.172Z" fill="#013449"/>
<path fill-rule="evenodd" clip-rule="evenodd" d="M361.178 106.545L367.243 104.671V95.6492L361.178 106.545Z" fill="#013449"/>
<path fill-rule="evenodd" clip-rule="evenodd" d="M367.243 95.6492L361.889 99.379L361.178 106.545L367.243 95.6492Z" fill="#013449"/>
<path fill-rule="evenodd" clip-rule="evenodd" d="M367.245 104.669L368.648 127.271L361.178 106.544L367.245 104.669Z" fill="#013449"/>
<path fill-rule="evenodd" clip-rule="evenodd" d="M367.246 104.669L375.708 105.565L368.649 127.271L367.246 104.669Z" fill="#013449"/>
<path fill-rule="evenodd" clip-rule="evenodd" d="M375.707 105.566L378.076 107.397L368.646 127.272L375.707 105.566Z" fill="#013449"/>
<path fill-rule="evenodd" clip-rule="evenodd" d="M368.646 127.27L377.586 137.139L374.356 138.916L368.646 127.27Z" fill="#013449"/>
<path fill-rule="evenodd" clip-rule="evenodd" d="M378.078 107.399L393.093 127.275H368.648L378.078 107.399Z" fill="#013449"/>
<path fill-rule="evenodd" clip-rule="evenodd" d="M368.646 127.27L377.586 137.139L393.092 127.27H368.646Z" fill="#013449"/>
<path fill-rule="evenodd" clip-rule="evenodd" d="M393.097 127.276L391.825 104.308L378.082 107.401L393.097 127.276Z" fill="#013449"/>
<path fill-rule="evenodd" clip-rule="evenodd" d="M391.82 104.306L397.238 95.2781L405.993 124.579L391.82 104.306Z" fill="#013449"/>
<path fill-rule="evenodd" clip-rule="evenodd" d="M393.092 127.276L405.993 124.582L391.82 104.308L393.092 127.276Z" fill="#013449"/>
<path fill-rule="evenodd" clip-rule="evenodd" d="M393.097 127.27L390.152 146.49L377.591 137.139L393.097 127.27Z" fill="#013449"/>
<path fill-rule="evenodd" clip-rule="evenodd" d="M390.146 146.499L405.994 124.585L393.092 127.28L390.146 146.499Z" fill="#013449"/>
<path fill-rule="evenodd" clip-rule="evenodd" d="M390.146 146.499H412.54L405.994 124.585L390.146 146.499Z" fill="#013449"/>
<path fill-rule="evenodd" clip-rule="evenodd" d="M412.544 146.499L408.43 152.79L390.15 146.499H412.544Z" fill="#013449"/>
<path fill-rule="evenodd" clip-rule="evenodd" d="M390.146 146.499L400.827 166.67L408.427 152.79L390.146 146.499Z" fill="#013449"/>
<path fill-rule="evenodd" clip-rule="evenodd" d="M400.827 166.668L404.686 167.389L408.429 152.788L400.827 166.668Z" fill="#013449"/>
<path fill-rule="evenodd" clip-rule="evenodd" d="M408.431 152.79L413.732 162.995L412.542 146.499L408.431 152.79Z" fill="#013449"/>
<path fill-rule="evenodd" clip-rule="evenodd" d="M413.736 162.995L418.785 167.391L412.546 146.499L413.736 162.995Z" fill="#013449"/>
<path fill-rule="evenodd" clip-rule="evenodd" d="M314.703 106.554L313.138 114.026L315.812 116.277L314.703 106.554Z" fill="#013449"/>
<path fill-rule="evenodd" clip-rule="evenodd" d="M314.701 106.554L321.439 108.841L315.811 116.277L314.701 106.554Z" fill="#013449"/>
<path fill-rule="evenodd" clip-rule="evenodd" d="M314.701 106.546L322.942 103.125L321.439 108.833L314.701 106.546Z" fill="#013449"/>
<path fill-rule="evenodd" clip-rule="evenodd" d="M321.446 108.831L323.983 112.792L315.817 116.268L321.446 108.831Z" fill="#013449"/>
<path fill-rule="evenodd" clip-rule="evenodd" d="M323.98 112.804L326.006 107.656L321.442 108.84L323.98 112.804Z" fill="#013449"/>
<path fill-rule="evenodd" clip-rule="evenodd" d="M322.942 103.125L326.003 107.65L321.442 108.831L322.942 103.125Z" fill="#013449"/>
<path fill-rule="evenodd" clip-rule="evenodd" d="M322.945 103.125L326.91 104.304L326.008 107.653L322.945 103.125Z" fill="#013449"/>
<path fill-rule="evenodd" clip-rule="evenodd" d="M328.337 111.413L326.481 120.272L329.49 120.986L328.337 111.413Z" fill="#013449"/>
<path fill-rule="evenodd" clip-rule="evenodd" d="M329.496 120.986L337.063 112.556L328.343 111.413L329.496 120.986Z" fill="#013449"/>
<path fill-rule="evenodd" clip-rule="evenodd" d="M329.492 120.982L334.538 118.851L337.059 112.552L329.492 120.982Z" fill="#013449"/>
<path fill-rule="evenodd" clip-rule="evenodd" d="M334.538 118.851L341.615 117.473L337.059 112.552L334.538 118.851Z" fill="#013449"/>
<path fill-rule="evenodd" clip-rule="evenodd" d="M341.615 117.473L345.062 112.552H337.061L341.615 117.473Z" fill="#013449"/>
<path fill-rule="evenodd" clip-rule="evenodd" d="M345.061 112.553L338.283 104.383L337.057 112.553H345.061Z" fill="#013449"/>
<path fill-rule="evenodd" clip-rule="evenodd" d="M337.063 112.553L332.423 108.577L328.343 111.41L337.063 112.553Z" fill="#013449"/>
<path fill-rule="evenodd" clip-rule="evenodd" d="M332.419 108.577L338.282 104.383L337.056 112.553L332.419 108.577Z" fill="#013449"/>
<path fill-rule="evenodd" clip-rule="evenodd" d="M332.419 108.577L330.625 105.684L338.285 104.383L332.419 108.577Z" fill="#013449"/>
<path fill-rule="evenodd" clip-rule="evenodd" d="M330.627 105.689L326.01 101.536L338.287 104.387L330.627 105.689Z" fill="#013449"/>
<path fill-rule="evenodd" clip-rule="evenodd" d="M338.287 104.383L335.625 98.3623L326.01 101.534L338.287 104.383Z" fill="#013449"/>
<path fill-rule="evenodd" clip-rule="evenodd" d="M326.009 101.53L325.293 95.6492L330.624 96.1073L326.009 101.53Z" fill="#013449"/>
<path fill-rule="evenodd" clip-rule="evenodd" d="M330.627 96.1147L335.625 98.3681L326.01 101.538L330.627 96.1147Z" fill="#013449"/>
<path fill-rule="evenodd" clip-rule="evenodd" d="M330.627 96.1165L332.7 92.4944C332.151 92.3485 328.867 92.1172 328.867 92.1172L330.627 96.1165Z" fill="#013449"/>
<path fill-rule="evenodd" clip-rule="evenodd" d="M330.624 96.1136L328.865 92.1172L325.293 95.6554L330.624 96.1136Z" fill="#013449"/>
<path fill-rule="evenodd" clip-rule="evenodd" d="M332.699 92.4915L335.624 94.6109L330.625 96.1135L332.699 92.4915Z" fill="#013449"/>
<path fill-rule="evenodd" clip-rule="evenodd" d="M335.624 94.614V98.3715L330.625 96.1166L335.624 94.614Z" fill="#013449"/>
<path fill-rule="evenodd" clip-rule="evenodd" d="M354.372 81.7021L356.013 92.4897L359.272 94.6035L354.372 81.7021Z" fill="#013449"/>
<path fill-rule="evenodd" clip-rule="evenodd" d="M359.277 94.6089L363.11 93.7592L362.144 84.5586L359.277 94.6089Z" fill="#013449"/>
<path fill-rule="evenodd" clip-rule="evenodd" d="M354.372 81.7021L362.14 84.5531L359.274 94.6035L354.372 81.7021Z" fill="#013449"/>
<path fill-rule="evenodd" clip-rule="evenodd" d="M362.14 84.5519L360.825 77.8628L354.372 81.7009L362.14 84.5519Z" fill="#013449"/>
<path fill-rule="evenodd" clip-rule="evenodd" d="M362.144 84.5586L367.246 91.6496L363.11 93.7592L362.144 84.5586Z" fill="#013449"/>
<path fill-rule="evenodd" clip-rule="evenodd" d="M367.246 91.6513L372.985 78.7188L362.142 84.5603L367.246 91.6513Z" fill="#013449"/>
<path fill-rule="evenodd" clip-rule="evenodd" d="M360.83 77.866L372.987 78.7136L362.146 84.5551L360.83 77.866Z" fill="#013449"/>
<path fill-rule="evenodd" clip-rule="evenodd" d="M360.83 77.8678L369.107 73.1362L372.987 78.7153L360.83 77.8678Z" fill="#013449"/>
<path fill-rule="evenodd" clip-rule="evenodd" d="M369.106 73.1328L379.551 62.4036L372.986 78.7119L369.106 73.1328Z" fill="#013449"/>
<path fill-rule="evenodd" clip-rule="evenodd" d="M379.554 62.407L384.903 81.7038L372.988 78.7153L379.554 62.407Z" fill="#013449"/>
<path fill-rule="evenodd" clip-rule="evenodd" d="M384.9 81.7093L367.246 91.6513L372.985 78.7188L384.9 81.7093Z" fill="#013449"/>
<path fill-rule="evenodd" clip-rule="evenodd" d="M367.246 91.6442L385.289 84.1116L384.9 81.7021L367.246 91.6442Z" fill="#013449"/>
<path fill-rule="evenodd" clip-rule="evenodd" d="M385.289 84.1111L389.245 89.1529L367.246 91.6436L385.289 84.1111Z" fill="#013449"/>
<path fill-rule="evenodd" clip-rule="evenodd" d="M389.245 89.1501L384.33 93.2652L367.246 91.6409L389.245 89.1501Z" fill="#013449"/>
<path fill-rule="evenodd" clip-rule="evenodd" d="M367.246 91.6453L373.383 98.5926L384.33 93.2696L367.246 91.6453Z" fill="#013449"/>
<path fill-rule="evenodd" clip-rule="evenodd" d="M373.385 98.5887L382.69 100.186L384.333 93.2678L373.385 98.5887Z" fill="#013449"/>
<path fill-rule="evenodd" clip-rule="evenodd" d="M373.379 98.5918L370.146 102.065L382.684 100.189L373.379 98.5918Z" fill="#013449"/>
<path fill-rule="evenodd" clip-rule="evenodd" d="M370.15 102.069L370.566 104.307L382.687 100.19L370.15 102.069Z" fill="#013449"/>
<path fill-rule="evenodd" clip-rule="evenodd" d="M370.566 104.307L382.688 101.533V100.19L370.566 104.307Z" fill="#013449"/>
<path fill-rule="evenodd" clip-rule="evenodd" d="M384.901 81.7038L395.502 72.0554L379.551 62.407L384.901 81.7038Z" fill="#013449"/>
<path fill-rule="evenodd" clip-rule="evenodd" d="M395.502 72.0579L386.741 56.7346L379.551 62.4095L395.502 72.0579Z" fill="#013449"/>
<path fill-rule="evenodd" clip-rule="evenodd" d="M395.5 72.0579L401.384 71.6352L386.738 56.7346L395.5 72.0579Z" fill="#013449"/>
<path fill-rule="evenodd" clip-rule="evenodd" d="M386.738 56.7393L393.628 55.3398L401.384 71.6399L386.738 56.7393Z" fill="#013449"/>
<path fill-rule="evenodd" clip-rule="evenodd" d="M393.63 55.33L395.844 54.168L401.386 71.63L393.63 55.33Z" fill="#013449"/>
<path fill-rule="evenodd" clip-rule="evenodd" d="M401.386 71.6355L393.63 78.5224L403.967 79.6595L401.386 71.6355Z" fill="#013449"/>
<path fill-rule="evenodd" clip-rule="evenodd" d="M393.63 78.5168L398.798 88.7067L403.967 79.6539L393.63 78.5168Z" fill="#013449"/>
<path fill-rule="evenodd" clip-rule="evenodd" d="M393.63 78.5168V85.1789L398.796 88.7067L393.63 78.5168Z" fill="#013449"/>
<path fill-rule="evenodd" clip-rule="evenodd" d="M401.387 71.6315L409.688 69.9363L403.968 79.6555L401.387 71.6315Z" fill="#013449"/>
<path fill-rule="evenodd" clip-rule="evenodd" d="M401.387 71.6332L405.537 61.4434L409.688 69.938L401.387 71.6332Z" fill="#013449"/>
<path fill-rule="evenodd" clip-rule="evenodd" d="M405.54 61.4427L417.222 57.1401L409.691 69.9373L405.54 61.4427Z" fill="#013449"/>
<path fill-rule="evenodd" clip-rule="evenodd" d="M405.538 61.4402L395.846 54.168L401.388 71.63L405.538 61.4402Z" fill="#013449"/>
<path fill-rule="evenodd" clip-rule="evenodd" d="M405.54 61.4402L417.222 57.1377L407.682 54.168L405.54 61.4402Z" fill="#013449"/>
<path fill-rule="evenodd" clip-rule="evenodd" d="M395.846 54.168H407.68L405.538 61.4402L395.846 54.168Z" fill="#013449"/>
<path fill-rule="evenodd" clip-rule="evenodd" d="M784.671 68.3147L740.524 57.1377L704.189 57.5834L660.145 49.9592L639.695 52.5957L595.994 47.9246L581.069 41.7894L554.628 35.8625L492.361 52.5957L453.549 64.3912L417.219 57.1377L398.799 88.7048L397.242 95.2752L418.785 167.385L441.507 169.726L438.017 192.494L459.676 226.592L472.665 250.322L495.748 242.492L512.261 233.699L516.766 218.334L506.258 207.112L491.82 208.482L481.343 190.922L498.487 201.941L519.453 207.355L538.315 133.03C538.315 133.03 606.002 133.03 607.003 133.094L693.869 133.03L707.216 147.414L714.724 144.573L720.511 125.41L727.718 133.823L731.998 132.072L712.029 107.183L693.182 103.828L697.075 90.8519H726.267L725.705 83.1174L739.414 86.9846L734.591 97.3182L755.362 117.331L759.044 104.77L750.505 92.2056L772.96 80.4955L765.947 72.8588L784.671 74.2166V68.3147Z" fill="#013449"/>
<path fill-rule="evenodd" clip-rule="evenodd" d="M398.799 88.7072L417.219 57.1401L477.234 127.274L398.799 88.7072Z" fill="#013449"/>
<path fill-rule="evenodd" clip-rule="evenodd" d="M397.242 95.2781L477.234 127.274L418.785 167.388L397.242 95.2781Z" fill="#013449"/>
<path fill-rule="evenodd" clip-rule="evenodd" d="M477.234 127.272L398.799 88.7058L397.242 95.2762L477.234 127.272Z" fill="#013449"/>
<path fill-rule="evenodd" clip-rule="evenodd" d="M418.783 167.384L441.505 169.725L477.232 127.27L418.783 167.384Z" fill="#013449"/>
<path fill-rule="evenodd" clip-rule="evenodd" d="M441.505 169.725L438.014 192.493L481.341 190.921L441.505 169.725Z" fill="#013449"/>
<path fill-rule="evenodd" clip-rule="evenodd" d="M438.014 192.495L459.673 226.592L481.341 190.923L438.014 192.495Z" fill="#013449"/>
<path fill-rule="evenodd" clip-rule="evenodd" d="M459.674 226.592L472.663 250.323L481.341 190.923L459.674 226.592Z" fill="#013449"/>
<path fill-rule="evenodd" clip-rule="evenodd" d="M481.341 190.926L488.241 228.563L472.663 250.324L481.341 190.926Z" fill="#013449"/>
<path fill-rule="evenodd" clip-rule="evenodd" d="M488.239 228.561L495.746 242.493L472.663 250.323L488.239 228.561Z" fill="#013449"/>
<path fill-rule="evenodd" clip-rule="evenodd" d="M488.242 228.563L516.766 218.338L495.748 242.496L488.242 228.563Z" fill="#013449"/>
<path fill-rule="evenodd" clip-rule="evenodd" d="M495.749 242.496L512.262 233.703L516.767 218.338L495.749 242.496Z" fill="#013449"/>
<path fill-rule="evenodd" clip-rule="evenodd" d="M481.348 190.926L491.824 208.486L488.248 228.563L481.348 190.926Z" fill="#013449"/>
<path fill-rule="evenodd" clip-rule="evenodd" d="M491.822 208.483L506.26 207.112L488.245 228.56L491.822 208.483Z" fill="#013449"/>
<path fill-rule="evenodd" clip-rule="evenodd" d="M506.26 207.112L516.768 218.335L488.245 228.56L506.26 207.112Z" fill="#013449"/>
<path fill-rule="evenodd" clip-rule="evenodd" d="M481.343 190.921L477.234 127.27L441.507 169.725L481.343 190.921Z" fill="#013449"/>
<path fill-rule="evenodd" clip-rule="evenodd" d="M481.342 190.921L498.486 201.94L477.233 127.27L481.342 190.921Z" fill="#013449"/>
<path fill-rule="evenodd" clip-rule="evenodd" d="M477.233 127.27L519.452 207.352L498.486 201.94L477.233 127.27Z" fill="#013449"/>
<path fill-rule="evenodd" clip-rule="evenodd" d="M477.233 127.27L538.314 133.026L519.452 207.352L477.233 127.27Z" fill="#013449"/>
<path fill-rule="evenodd" clip-rule="evenodd" d="M417.217 57.1384L453.547 64.3919L477.232 127.272L417.217 57.1384Z" fill="#013449"/>
<path fill-rule="evenodd" clip-rule="evenodd" d="M453.551 64.3912L492.362 52.5957L477.235 127.271L453.551 64.3912Z" fill="#013449"/>
<path fill-rule="evenodd" clip-rule="evenodd" d="M492.36 52.5957L544.286 88.7069L477.233 127.273L492.36 52.5957Z" fill="#013449"/>
<path fill-rule="evenodd" clip-rule="evenodd" d="M492.36 52.5983L554.629 35.8672L544.286 88.7095L492.36 52.5983Z" fill="#013449"/>
<path fill-rule="evenodd" clip-rule="evenodd" d="M544.286 88.7058L538.314 133.028L477.233 127.272L544.286 88.7058Z" fill="#013449"/>
<path fill-rule="evenodd" clip-rule="evenodd" d="M554.632 35.8672L581.072 41.7941L544.29 88.7095L554.632 35.8672Z" fill="#013449"/>
<path fill-rule="evenodd" clip-rule="evenodd" d="M544.286 88.7058C544.286 88.7058 608.004 133.16 607.003 133.095C606.001 133.028 538.314 133.028 538.314 133.028L544.286 88.7058Z" fill="#013449"/>
<path fill-rule="evenodd" clip-rule="evenodd" d="M544.29 88.7095L647.705 87.8806L607.007 133.099L544.29 88.7095Z" fill="#013449"/>
<path fill-rule="evenodd" clip-rule="evenodd" d="M581.072 41.7869L595.998 47.9199L544.29 88.7022L581.072 41.7869Z" fill="#013449"/>
<path fill-rule="evenodd" clip-rule="evenodd" d="M595.998 47.9229L639.699 52.594L544.29 88.7052L595.998 47.9229Z" fill="#013449"/>
<path fill-rule="evenodd" clip-rule="evenodd" d="M639.699 52.5957L647.705 87.878L544.29 88.7069L639.699 52.5957Z" fill="#013449"/>
</g>
<path fill-rule="evenodd" clip-rule="evenodd" d="M296.667 230C296.667 233.682 300 239.559 306.667 247.632C313.333 239.559 316.667 233.682 316.667 230C316.667 224.477 312.189 220 306.667 220C301.144 220 296.667 224.477 296.667 230ZM311.667 230C311.667 232.761 309.428 235 306.667 235C303.905 235 301.667 232.761 301.667 230C301.667 227.238 303.905 225 306.667 225C309.428 225 311.667 227.238 311.667 230Z" fill="white"/>
<path fill-rule="evenodd" clip-rule="evenodd" d="M366.667 256.667C366.667 260.349 370 266.226 376.667 274.299C383.333 266.226 386.667 260.349 386.667 256.667C386.667 251.144 382.189 246.667 376.667 246.667C371.144 246.667 366.667 251.144 366.667 256.667ZM381.666 256.667C381.666 259.428 379.428 261.667 376.666 261.667C373.905 261.667 371.666 259.428 371.666 256.667C371.666 253.905 373.905 251.667 376.666 251.667C379.428 251.667 381.666 253.905 381.666 256.667Z" fill="white"/>
<path fill-rule="evenodd" clip-rule="evenodd" d="M320 160C320 163.682 323.333 169.559 330 177.632C336.667 169.559 340 163.682 340 160C340 154.477 335.523 150 330 150C324.477 150 320 154.477 320 160ZM335 160C335 162.762 332.761 165 330 165C327.238 165 325 162.762 325 160C325 157.239 327.238 155 330 155C332.761 155 335 157.239 335 160Z" fill="white"/>
<path fill-rule="evenodd" clip-rule="evenodd" d="M366.667 180C366.667 183.682 370 189.559 376.667 197.632C383.333 189.559 386.667 183.682 386.667 180C386.667 174.477 382.189 170 376.667 170C371.144 170 366.667 174.477 366.667 180ZM381.666 180C381.666 182.762 379.428 185 376.666 185C373.905 185 371.666 182.762 371.666 180C371.666 177.239 373.905 175 376.666 175C379.428 175 381.666 177.239 381.666 180Z" fill="white"/>
<path fill-rule="evenodd" clip-rule="evenodd" d="M416.667 216.667C416.667 220.348 420 226.226 426.667 234.299C433.333 226.226 436.667 220.348 436.667 216.667C436.667 211.144 432.189 206.667 426.667 206.667C421.144 206.667 416.667 211.144 416.667 216.667ZM431.667 216.667C431.667 219.428 429.428 221.667 426.667 221.667C423.905 221.667 421.667 219.428 421.667 216.667C421.667 213.905 423.905 211.667 426.667 211.667C429.428 211.667 431.667 213.905 431.667 216.667Z" fill="white"/>
<path fill-rule="evenodd" clip-rule="evenodd" d="M180 50C180 53.6819 183.333 59.5593 190 67.6323C196.667 59.5593 200 53.6819 200 50C200 44.4772 195.523 40 190 40C184.477 40 180 44.4772 180 50ZM195 49.9997C195 52.7611 192.761 54.9997 190 54.9997C187.239 54.9997 185 52.7611 185 49.9997C185 47.2383 187.239 44.9997 190 44.9997C192.761 44.9997 195 47.2383 195 49.9997Z" fill="white"/>
<path fill-rule="evenodd" clip-rule="evenodd" d="M150 110C150 113.682 153.333 119.559 160 127.632C166.667 119.559 170 113.682 170 110C170 104.477 165.523 100 160 100C154.477 100 150 104.477 150 110ZM165 110C165 112.761 162.761 115 160 115C157.239 115 155 112.761 155 110C155 107.238 157.239 105 160 105C162.761 105 165 107.238 165 110Z" fill="white"/>
<path fill-rule="evenodd" clip-rule="evenodd" d="M120 116.667C120 120.349 123.333 126.226 130 134.299C136.667 126.226 140 120.349 140 116.667C140 111.144 135.523 106.667 130 106.667C124.477 106.667 120 111.144 120 116.667ZM135 116.667C135 119.429 132.761 121.667 130 121.667C127.239 121.667 125 119.429 125 116.667C125 113.906 127.239 111.667 130 111.667C132.761 111.667 135 113.906 135 116.667Z" fill="white"/>
<path fill-rule="evenodd" clip-rule="evenodd" d="M90 160C90 163.682 93.3333 169.559 100 177.632C106.667 169.559 110 163.682 110 160C110 154.477 105.523 150 100 150C94.4771 150 90 154.477 90 160ZM105 160C105 162.762 102.761 165 100 165C97.2385 165 95 162.762 95 160C95 157.239 97.2385 155 100 155C102.761 155 105 157.239 105 160Z" fill="white"/>
<path fill-rule="evenodd" clip-rule="evenodd" d="M46.6666 146.667C46.6666 150.349 50 156.226 56.6666 164.299C63.3333 156.226 66.6666 150.349 66.6666 146.667C66.6666 141.144 62.1895 136.667 56.6666 136.667C51.1438 136.667 46.6666 141.144 46.6666 146.667ZM61.6666 146.667C61.6666 149.429 59.428 151.667 56.6666 151.667C53.9052 151.667 51.6666 149.429 51.6666 146.667C51.6666 143.906 53.9052 141.667 56.6666 141.667C59.428 141.667 61.6666 143.906 61.6666 146.667Z" fill="white"/>
<path fill-rule="evenodd" clip-rule="evenodd" d="M463.333 76.6667C463.333 80.3486 466.667 86.2261 473.333 94.299C480 86.2261 483.333 80.3486 483.333 76.6667C483.333 71.1439 478.856 66.6667 473.333 66.6667C467.81 66.6667 463.333 71.1439 463.333 76.6667ZM478.333 76.6666C478.333 79.428 476.095 81.6666 473.333 81.6666C470.572 81.6666 468.333 79.428 468.333 76.6666C468.333 73.9052 470.572 71.6666 473.333 71.6666C476.095 71.6666 478.333 73.9052 478.333 76.6666Z" fill="white"/>
<path fill-rule="evenodd" clip-rule="evenodd" d="M510 183.333C510 187.015 513.333 192.893 520 200.966C526.667 192.893 530 187.015 530 183.333C530 177.81 525.523 173.333 520 173.333C514.477 173.333 510 177.81 510 183.333ZM525 183.333C525 186.095 522.761 188.333 520 188.333C517.239 188.333 515 186.095 515 183.333C515 180.572 517.239 178.333 520 178.333C522.761 178.333 525 180.572 525 183.333Z" fill="white"/>
<path fill-rule="evenodd" clip-rule="evenodd" d="M463.333 193.333C463.333 197.015 466.667 202.893 473.333 210.966C480 202.893 483.333 197.015 483.333 193.333C483.333 187.811 478.856 183.333 473.333 183.333C467.81 183.333 463.333 187.811 463.333 193.333ZM478.333 193.333C478.333 196.095 476.095 198.333 473.333 198.333C470.572 198.333 468.333 196.095 468.333 193.333C468.333 190.572 470.572 188.333 473.333 188.333C476.095 188.333 478.333 190.572 478.333 193.333Z" fill="white"/>
<path fill-rule="evenodd" clip-rule="evenodd" d="M500 136.667C500 140.349 503.333 146.226 510 154.299C516.667 146.226 520 140.349 520 136.667C520 131.144 515.523 126.667 510 126.667C504.477 126.667 500 131.144 500 136.667ZM515 136.667C515 139.428 512.761 141.667 510 141.667C507.238 141.667 505 139.428 505 136.667C505 133.905 507.238 131.667 510 131.667C512.761 131.667 515 133.905 515 136.667Z" fill="white"/>
<path fill-rule="evenodd" clip-rule="evenodd" d="M320 80C320 83.6819 323.333 89.5593 330 97.6323C336.667 89.5593 340 83.6819 340 80C340 74.4772 335.523 70 330 70C324.477 70 320 74.4772 320 80ZM335 79.9997C335 82.7611 332.761 84.9997 330 84.9997C327.238 84.9997 325 82.7611 325 79.9997C325 77.2383 327.238 74.9997 330 74.9997C332.761 74.9997 335 77.2383 335 79.9997Z" fill="white"/>
<path fill-rule="evenodd" clip-rule="evenodd" d="M350 103.333C350 107.015 353.333 112.893 360 120.966C366.667 112.893 370 107.015 370 103.333C370 97.8106 365.523 93.3335 360 93.3335C354.477 93.3335 350 97.8106 350 103.333ZM365 103.333C365 106.095 362.761 108.333 360 108.333C357.238 108.333 355 106.095 355 103.333C355 100.572 357.238 98.3332 360 98.3332C362.761 98.3332 365 100.572 365 103.333Z" fill="white"/>
<path fill-rule="evenodd" clip-rule="evenodd" d="M410 73.3335C410 77.0154 413.333 82.8928 420 90.9658C426.667 82.8928 430 77.0154 430 73.3335C430 67.8106 425.523 63.3335 420 63.3335C414.477 63.3335 410 67.8106 410 73.3335ZM425 73.3332C425 76.0946 422.761 78.3332 420 78.3332C417.238 78.3332 415 76.0946 415 73.3332C415 70.5718 417.238 68.3332 420 68.3332C422.761 68.3332 425 70.5718 425 73.3332Z" fill="white"/>
<path fill-rule="evenodd" clip-rule="evenodd" d="M430 146.667C430 150.349 433.333 156.226 440 164.299C446.667 156.226 450 150.349 450 146.667C450 141.144 445.523 136.667 440 136.667C434.477 136.667 430 141.144 430 146.667ZM445 146.667C445 149.429 442.761 151.667 440 151.667C437.239 151.667 435 149.429 435 146.667C435 143.906 437.239 141.667 440 141.667C442.761 141.667 445 143.906 445 146.667Z" fill="white"/>
<path fill-rule="evenodd" clip-rule="evenodd" d="M453.333 126.667C453.333 130.348 456.667 136.226 463.333 144.299C470 136.226 473.333 130.348 473.333 126.667C473.333 121.144 468.856 116.667 463.333 116.667C457.81 116.667 453.333 121.144 453.333 126.667ZM468.333 126.667C468.333 129.428 466.095 131.667 463.333 131.667C460.572 131.667 458.333 129.428 458.333 126.667C458.333 123.905 460.572 121.667 463.333 121.667C466.095 121.667 468.333 123.905 468.333 126.667Z" fill="white"/>
<path fill-rule="evenodd" clip-rule="evenodd" d="M230 53.3333C230 57.0152 233.333 62.8926 240 70.9655C246.667 62.8926 250 57.0152 250 53.3333C250 47.8104 245.523 43.3333 240 43.3333C234.477 43.3333 230 47.8104 230 53.3333ZM245 53.3331C245 56.0945 242.761 58.3331 240 58.3331C237.238 58.3331 235 56.0945 235 53.3331C235 50.5717 237.238 48.3331 240 48.3331C242.761 48.3331 245 50.5717 245 53.3331Z" fill="white"/>
<path fill-rule="evenodd" clip-rule="evenodd" d="M376.667 107.85C376.667 113.373 381.667 122.189 391.667 134.299C401.667 122.189 406.667 113.373 406.667 107.85C406.667 99.5658 399.951 92.8501 391.667 92.8501C383.382 92.8501 376.667 99.5658 376.667 107.85ZM399.167 107.85C399.167 111.992 395.809 115.35 391.667 115.35C387.524 115.35 384.167 111.992 384.167 107.85C384.167 103.708 387.524 100.35 391.667 100.35C395.809 100.35 399.167 103.708 399.167 107.85Z" fill="white"/>
<path fill-rule="evenodd" clip-rule="evenodd" d="M330 201.667C330 207.19 335 216.006 345 228.115C355 216.006 360 207.19 360 201.667C360 193.382 353.284 186.667 345 186.667C336.716 186.667 330 193.382 330 201.667ZM352.5 201.667C352.5 205.809 349.142 209.167 345 209.167C340.858 209.167 337.5 205.809 337.5 201.667C337.5 197.525 340.858 194.167 345 194.167C349.142 194.167 352.5 197.525 352.5 201.667Z" fill="white"/>
<path fill-rule="evenodd" clip-rule="evenodd" d="M380 35C380 40.5228 385 49.339 395 61.4484C405 49.339 410 40.5228 410 35C410 26.7157 403.284 20 395 20C386.716 20 380 26.7157 380 35ZM402.5 35.0004C402.5 39.1425 399.142 42.5004 395 42.5004C390.858 42.5004 387.5 39.1425 387.5 35.0004C387.5 30.8583 390.858 27.5004 395 27.5004C399.142 27.5004 402.5 30.8583 402.5 35.0004Z" fill="white"/>
<path fill-rule="evenodd" clip-rule="evenodd" d="M260 15C260 20.5228 265 29.339 275 41.4484C285 29.339 290 20.5228 290 15C290 6.71573 283.284 0 275 0C266.716 0 260 6.71573 260 15ZM282.5 15C282.5 19.1421 279.142 22.5 275 22.5C270.858 22.5 267.5 19.1421 267.5 15C267.5 10.8579 270.858 7.5 275 7.5C279.142 7.5 282.5 10.8579 282.5 15Z" fill="white"/>
<path fill-rule="evenodd" clip-rule="evenodd" d="M80 81.6667C80 87.1896 85 96.0057 95 108.115C105 96.0057 110 87.1896 110 81.6667C110 73.3825 103.284 66.6667 95 66.6667C86.7157 66.6667 80 73.3825 80 81.6667ZM102.5 81.6668C102.5 85.8089 99.142 89.1668 94.9999 89.1668C90.8577 89.1668 87.4999 85.8089 87.4999 81.6668C87.4999 77.5247 90.8577 74.1668 94.9999 74.1668C99.142 74.1668 102.5 77.5247 102.5 81.6668Z" fill="white"/>
<path fill-rule="evenodd" clip-rule="evenodd" d="M110 241.667C110 247.19 115 256.006 125 268.115C135 256.006 140 247.19 140 241.667C140 233.382 133.284 226.667 125 226.667C116.716 226.667 110 233.382 110 241.667ZM132.5 241.667C132.5 245.809 129.142 249.167 125 249.167C120.858 249.167 117.5 245.809 117.5 241.667C117.5 237.525 120.858 234.167 125 234.167C129.142 234.167 132.5 237.525 132.5 241.667Z" fill="white"/>
</svg>
