<svg width="165" height="128" viewBox="0 0 165 128" fill="none" xmlns="http://www.w3.org/2000/svg">
<path fill-rule="evenodd" clip-rule="evenodd" d="M59.6763 18H55.3335H50.9922C7.5715 18 0.333496 28.4456 0.333496 41.3332V73V104.667C0.333496 117.554 7.5715 128 50.9922 128H55.3335H59.6763C103.097 128 110.333 117.554 110.333 104.667V73V41.3332C110.333 28.4456 103.097 18 59.6763 18Z" fill="#B5FFF2"/>
<path fill-rule="evenodd" clip-rule="evenodd" d="M119.333 93H15.3335V32.9273C15.3335 30.7583 17.0918 29 19.2608 29H115.406C117.575 29 119.333 30.7583 119.333 32.9273V93Z" fill="#123F5B"/>
<path fill-rule="evenodd" clip-rule="evenodd" d="M14.3335 93H119.333V100.055C119.333 101.681 118.015 103 116.388 103H17.279C15.6522 103 14.3335 101.681 14.3335 100.055V93Z" fill="url(#paint0_linear_669_15328)"/>
<path fill-rule="evenodd" clip-rule="evenodd" d="M82.3335 114H52.3335L55.0454 103H79.4748L82.3335 114Z" fill="#2498BF"/>
<path fill-rule="evenodd" clip-rule="evenodd" d="M88.3335 114.288C88.3335 116.338 86.6714 118 84.6211 118H49.0459C46.9956 118 45.3335 116.338 45.3335 114.288C45.3335 113.836 46.0968 114.002 46.5482 114.002H87.1229C87.5716 114.002 88.3335 113.839 88.3335 114.288Z" fill="#86CFE8"/>
<path fill-rule="evenodd" clip-rule="evenodd" d="M19.3335 87C19.3335 88.1046 20.2289 89 21.3335 89H113.333C114.438 89 115.333 88.1046 115.333 87V35C115.333 33.8954 114.438 33 113.333 33H21.3335C20.2289 33 19.3335 33.8954 19.3335 35V87Z" fill="url(#paint1_linear_669_15328)"/>
<path fill-rule="evenodd" clip-rule="evenodd" d="M77.3335 58.5646L68.065 69.4493C67.4843 70.1313 66.4536 70.188 65.8021 69.5738L59.333 63.435V59.1623L66.7502 66.1548L76.4246 54.7934C75.3117 53.7083 72.944 53 68.1228 53H67.3335H66.5439C58.6492 53 57.3335 54.8992 57.3335 57.2424V63V68.7576C57.3335 71.1008 58.6492 73 66.5439 73H67.3335H68.1228C76.0175 73 77.3335 71.1008 77.3335 68.7576V63V58.5646Z" fill="white"/>
<path fill-rule="evenodd" clip-rule="evenodd" d="M8.33582 112.585C6.87487 112.585 5.69065 111.395 5.69065 109.926L4.8335 55C4.8335 53.5 7.10084 52 9.8098 52L35.923 52.0991C38.6319 52.0991 39.3335 53.2781 39.3335 56V110C39.3335 111.469 37.6452 113 36.1842 113L8.33582 112.585Z" fill="#123F5B"/>
<path fill-rule="evenodd" clip-rule="evenodd" d="M6.9676 113C5.51276 113 4.3335 111.82 4.3335 110.363V56.8887C4.3335 54.1887 5.52023 53 8.21786 53H34.4482C37.1459 53 38.3335 54.1887 38.3335 56.8887V110.363C38.3335 111.82 37.1533 113 35.6985 113H6.9676Z" fill="#2498BF"/>
<path fill-rule="evenodd" clip-rule="evenodd" d="M6.3335 107C6.3335 108.105 7.22893 109 8.3335 109H34.3335C35.4381 109 36.3335 108.105 36.3335 107V57C36.3335 55.8954 35.4381 55 34.3335 55H8.3335C7.22893 55 6.3335 55.8954 6.3335 57V107Z" fill="white"/>
<circle cx="9.8335" cy="58.5" r="1.5" fill="#2498BF"/>
<path fill-rule="evenodd" clip-rule="evenodd" d="M31.3335 76.5648L22.065 87.4495C21.4843 88.1315 20.4536 88.1882 19.8021 87.574L13.3329 81.4351V77.1624L20.7502 84.1549L30.4247 72.7935C29.3118 71.7083 26.9441 71 22.1227 71H21.3334H20.5438C12.649 71 11.3333 72.8992 11.3333 75.2424V81.0001V86.7578C11.3333 89.101 12.649 91.0002 20.5438 91.0002H21.3334H22.1227C30.0175 91.0002 31.3335 89.101 31.3335 86.7578V81.0001V76.5648Z" fill="url(#paint2_linear_669_15328)"/>
<defs>
<linearGradient id="paint0_linear_669_15328" x1="84.7584" y1="99.6464" x2="119.333" y2="99.6464" gradientUnits="userSpaceOnUse">
<stop stop-color="white"/>
<stop offset="1" stop-color="#A0E7FF"/>
</linearGradient>
<linearGradient id="paint1_linear_669_15328" x1="67.3335" y1="5" x2="18.5874" y2="88.5648" gradientUnits="userSpaceOnUse">
<stop stop-color="#00B6F3"/>
<stop offset="1" stop-color="#00FF44"/>
</linearGradient>
<linearGradient id="paint2_linear_669_15328" x1="21.3334" y1="60.9999" x2="41.3336" y2="81.0001" gradientUnits="userSpaceOnUse">
<stop stop-color="#00B6F3"/>
<stop offset="1" stop-color="#00FF44"/>
</linearGradient>
</defs>
</svg>
