<svg width="165" height="128" viewBox="0 0 165 128" fill="none" xmlns="http://www.w3.org/2000/svg">
<path fill-rule="evenodd" clip-rule="evenodd" d="M59.7151 18H55.3723H51.031C7.61032 18 0.372314 28.4456 0.372314 41.3332V73V104.667C0.372314 117.554 7.61032 128 51.031 128H55.3723H59.7151C103.136 128 110.372 117.554 110.372 104.667V73V41.3332C110.372 28.4456 103.136 18 59.7151 18Z" fill="#D0F3FF"/>
<path fill-rule="evenodd" clip-rule="evenodd" d="M30.635 34.4992L28.4545 35.4248L26.2747 36.35C4.47351 45.6041 3.10269 52.4788 5.89515 59.0574L12.7567 75.2221L19.6182 91.3868C22.4106 97.9654 28.3081 101.755 50.1093 92.5008L52.2891 91.5756L54.4696 90.65C76.2708 81.396 77.6409 74.5216 74.8485 67.943L67.9869 51.7783L61.1254 35.6136C58.333 29.0349 52.4362 25.2452 30.635 34.4992Z" fill="#A34A5E"/>
<path fill-rule="evenodd" clip-rule="evenodd" d="M35.0639 74.5399C35.0639 74.5399 33.2733 74.4164 32.1182 75.7902C30.9632 77.1641 28.1919 84.9673 28.1919 84.9673C28.1919 84.9673 37.4046 84.1492 39.296 82.4628C41.1874 80.7763 39.2807 76.2843 39.2807 76.2843L35.0639 74.5399Z" fill="#E5B829"/>
<mask id="mask0_669_14815" style="mask-type:luminance" maskUnits="userSpaceOnUse" x="28" y="74" width="13" height="11">
<path fill-rule="evenodd" clip-rule="evenodd" d="M35.0639 74.5399C35.0639 74.5399 33.2733 74.4164 32.1182 75.7902C30.9632 77.1641 28.1919 84.9673 28.1919 84.9673C28.1919 84.9673 37.4046 84.1492 39.296 82.4628C41.1874 80.7763 39.2807 76.2843 39.2807 76.2843L35.0639 74.5399Z" fill="white"/>
</mask>
<g mask="url(#mask0_669_14815)">
<path fill-rule="evenodd" clip-rule="evenodd" d="M38.6122 75.7335C38.6122 75.7335 35.3488 76.2351 34.1938 77.609C33.0388 78.9828 31.0366 85.5268 31.0366 85.5268C31.0366 85.5268 40.2493 84.7088 42.1407 83.0223C44.0321 81.3359 42.1254 76.8438 42.1254 76.8438L38.6122 75.7335Z" fill="#E4A232"/>
</g>
<path fill-rule="evenodd" clip-rule="evenodd" d="M39.2696 76.2581C39.2696 76.2581 44.4091 67.8915 47.5487 59.9321C50.6882 51.9726 52.8744 41.7671 50.9753 40.3643C49.0762 38.9615 42.522 50.1375 39.8011 57.0357C37.0801 63.9339 35.0528 74.5137 35.0528 74.5137L39.2696 76.2581Z" fill="#5D768C"/>
<mask id="mask1_669_14815" style="mask-type:luminance" maskUnits="userSpaceOnUse" x="35" y="40" width="17" height="37">
<path fill-rule="evenodd" clip-rule="evenodd" d="M39.2696 76.2581C39.2696 76.2581 44.4091 67.8915 47.5487 59.9321C50.6882 51.9726 52.8744 41.7671 50.9753 40.3643C49.0762 38.9615 42.522 50.1375 39.8011 57.0357C37.0801 63.9339 35.0528 74.5137 35.0528 74.5137L39.2696 76.2581Z" fill="white"/>
</mask>
<g mask="url(#mask1_669_14815)">
<path fill-rule="evenodd" clip-rule="evenodd" d="M36.7406 64.158L44.9358 67.0852L41.3486 75.0138L33.0739 71.8994L36.7406 64.158Z" fill="#BFC8D1"/>
<path fill-rule="evenodd" clip-rule="evenodd" d="M46.2207 64.9935L37.7871 61.5048L36.7406 64.158L45.0152 67.2724L46.2207 64.9935ZM41.7168 74.8575L33.2832 71.3687L32.2367 74.0219L40.5114 77.1363L41.7168 74.8575Z" fill="#D2D9DF"/>
<g style="mix-blend-mode:hard-light">
<path fill-rule="evenodd" clip-rule="evenodd" d="M39.2695 76.2581C43.98 69.3734 44.409 67.8915 47.5485 59.932C50.6881 51.9725 53.5891 42.4272 50.9752 40.3642C49.5388 44.1464 45.5851 52.2354 42.8642 59.1336C40.1432 66.0318 36.8217 75.6099 36.8217 75.6099C36.8217 75.6099 38.6166 77.2124 39.2695 76.2581Z" fill="#636363"/>
</g>
</g>
<path fill-rule="evenodd" clip-rule="evenodd" d="M72.7406 57H70.3718H68.0038C44.3198 57 40.3718 62.7926 40.3718 69.9393V87.5V105.061C40.3718 112.207 44.3198 118 68.0038 118H70.3718H72.7406C96.4246 118 100.372 112.207 100.372 105.061V87.5V69.9393C100.372 62.7926 96.4246 57 72.7406 57Z" fill="#66709F"/>
<path fill-rule="evenodd" clip-rule="evenodd" d="M53.9724 69.76C53.9724 68.1032 55.3156 66.76 56.9724 66.76H77.0565L86.7724 78.3602V105.24C86.7724 106.897 85.4293 108.24 83.7724 108.24H56.9724C55.3156 108.24 53.9724 106.897 53.9724 105.24V69.76Z" fill="#02C1FF"/>
<rect x="58.7725" y="81.3999" width="24" height="2.44" fill="white"/>
<rect x="58.7725" y="87.0933" width="24" height="2.44" fill="white"/>
<rect x="58.7725" y="92.7866" width="24" height="2.44" fill="white"/>
<rect x="58.7725" y="98.48" width="12" height="2.44" fill="white"/>
<path fill-rule="evenodd" clip-rule="evenodd" d="M77.1724 66.76V78.1539H86.7724L77.1724 66.76Z" fill="#40DAFF"/>
<path fill-rule="evenodd" clip-rule="evenodd" d="M86.7636 86.6867L77.1724 78.1467H86.7724L86.7636 86.6867Z" fill="#3D6A7E" style="mix-blend-mode:hard-light"/>
</svg>
